OCRAStd.ufo
<glyph name="quotedbl" format="1">
  <advance width="720"/>
  <unicode hex="0022"/>
  <outline>
    <contour>
      <point x="607" y="778" type="line"/>
      <point x="607" y="728" type="line"/>
      <point x="564" y="515" type="line" smooth="yes"/>
      <point x="557" y="481"/>
      <point x="553" y="455"/>
      <point x="508" y="455" type="curve" smooth="yes"/>
      <point x="473" y="455"/>
      <point x="468" y="485"/>
      <point x="462" y="514" type="curve" smooth="yes"/>
      <point x="428" y="678" type="line"/>
      <point x="292" y="678" type="line"/>
      <point x="258" y="514" type="line" smooth="yes"/>
      <point x="252" y="485"/>
      <point x="247" y="455"/>
      <point x="212" y="455" type="curve" smooth="yes"/>
      <point x="167" y="455"/>
      <point x="163" y="481"/>
      <point x="156" y="515" type="curve" smooth="yes"/>
      <point x="113" y="728" type="line"/>
      <point x="113" y="778" type="line"/>
    </contour>
  </outline>
</glyph>
<glyph name="percent" format="1">
  <advance width="720"/>
  <unicode hex="0025"/>
  <outline>
    <contour>
      <point x="594" y="611" type="curve" smooth="yes"/>
      <point x="197" y="93" type="line" smooth="yes"/>
      <point x="182" y="76"/>
      <point x="144" y="74"/>
      <point x="126" y="93" type="curve" smooth="yes"/>
      <point x="109" y="111"/>
      <point x="110" y="146"/>
      <point x="126" y="164" type="curve" smooth="yes"/>
      <point x="523" y="682" type="line" smooth="yes"/>
      <point x="537" y="700"/>
      <point x="576" y="701"/>
      <point x="594" y="682" type="curve" smooth="yes"/>
      <point x="611" y="664"/>
      <point x="610" y="629"/>
    </contour>
    <contour>
      <point x="544" y="0" type="curve" smooth="yes"/>
      <point x="472" y="0" type="line" smooth="yes"/>
      <point x="450" y="0"/>
      <point x="434" y="0"/>
      <point x="420" y="19" type="curve" smooth="yes"/>
      <point x="409" y="34"/>
      <point x="409" y="45"/>
      <point x="409" y="64" type="curve" smooth="yes"/>
      <point x="409" y="120" type="line" smooth="yes"/>
      <point x="409" y="139"/>
      <point x="409" y="150"/>
      <point x="420" y="165" type="curve" smooth="yes"/>
      <point x="434" y="184"/>
      <point x="450" y="184"/>
      <point x="472" y="184" type="curve" smooth="yes"/>
      <point x="544" y="184" type="line" smooth="yes"/>
      <point x="566" y="184"/>
      <point x="582" y="184"/>
      <point x="596" y="165" type="curve" smooth="yes"/>
      <point x="607" y="150"/>
      <point x="607" y="139"/>
      <point x="607" y="120" type="curve" smooth="yes"/>
      <point x="607" y="64" type="line" smooth="yes"/>
      <point x="607" y="45"/>
      <point x="607" y="34"/>
      <point x="596" y="19" type="curve" smooth="yes"/>
      <point x="582" y="0"/>
      <point x="566" y="0"/>
    </contour>
    <contour>
      <point x="248" y="594" type="curve" smooth="yes"/>
      <point x="176" y="594" type="line" smooth="yes"/>
      <point x="154" y="594"/>
      <point x="138" y="594"/>
      <point x="124" y="613" type="curve" smooth="yes"/>
      <point x="113" y="628"/>
      <point x="113" y="639"/>
      <point x="113" y="658" type="curve" smooth="yes"/>
      <point x="113" y="714" type="line" smooth="yes"/>
      <point x="113" y="733"/>
      <point x="113" y="744"/>
      <point x="124" y="759" type="curve" smooth="yes"/>
      <point x="138" y="778"/>
      <point x="154" y="778"/>
      <point x="176" y="778" type="curve" smooth="yes"/>
      <point x="248" y="778" type="line" smooth="yes"/>
      <point x="270" y="778"/>
      <point x="286" y="778"/>
      <point x="300" y="759" type="curve" smooth="yes"/>
      <point x="311" y="744"/>
      <point x="311" y="733"/>
      <point x="311" y="714" type="curve" smooth="yes"/>
      <point x="311" y="658" type="line" smooth="yes"/>
      <point x="311" y="639"/>
      <point x="311" y="628"/>
      <point x="300" y="613" type="curve" smooth="yes"/>
      <point x="286" y="594"/>
      <point x="270" y="594"/>
    </contour>
  </outline>
</glyph>
<glyph name="ampersand" format="1">
  <advance width="720"/>
  <unicode hex="0026"/>
  <outline>
    <contour>
      <point x="581" y="175" type="curve" smooth="yes"/>
      <point x="541" y="140" type="line"/>
      <point x="563" y="117" type="line" smooth="yes"/>
      <point x="578" y="102"/>
      <point x="607" y="73"/>
      <point x="607" y="50" type="curve" smooth="yes"/>
      <point x="607" y="22"/>
      <point x="588" y="0"/>
      <point x="559" y="0" type="curve" smooth="yes"/>
      <point x="541" y="0"/>
      <point x="529" y="9"/>
      <point x="517" y="22" type="curve" smooth="yes"/>
      <point x="466" y="75" type="line"/>
      <point x="403" y="22" type="line" smooth="yes"/>
      <point x="380" y="3"/>
      <point x="377" y="0"/>
      <point x="346" y="0" type="curve" smooth="yes"/>
      <point x="255" y="0" type="line" smooth="yes"/>
      <point x="217" y="0"/>
      <point x="184" y="6"/>
      <point x="155" y="33" type="curve" smooth="yes"/>
      <point x="123" y="63"/>
      <point x="113" y="99"/>
      <point x="113" y="140" type="curve" smooth="yes"/>
      <point x="113" y="203" type="line" smooth="yes"/>
      <point x="113" y="238"/>
      <point x="113" y="242"/>
      <point x="141" y="266" type="curve" smooth="yes"/>
      <point x="222" y="337" type="line"/>
      <point x="128" y="438" type="line" smooth="yes"/>
      <point x="113" y="455"/>
      <point x="113" y="463"/>
      <point x="113" y="485" type="curve" smooth="yes"/>
      <point x="113" y="555" type="line" smooth="yes"/>
      <point x="113" y="638"/>
      <point x="170" y="693"/>
      <point x="253" y="693" type="curve" smooth="yes"/>
      <point x="364" y="693" type="line" smooth="yes"/>
      <point x="448" y="693"/>
      <point x="508" y="642"/>
      <point x="508" y="555" type="curve" smooth="yes"/>
      <point x="508" y="485" type="line" smooth="yes"/>
      <point x="508" y="447"/>
      <point x="502" y="445"/>
      <point x="473" y="420" type="curve" smooth="yes"/>
      <point x="366" y="328" type="line"/>
      <point x="473" y="215" type="line"/>
      <point x="492" y="231" type="line" smooth="yes"/>
      <point x="509" y="245"/>
      <point x="532" y="270"/>
      <point x="556" y="270" type="curve" smooth="yes"/>
      <point x="584" y="270"/>
      <point x="607" y="246"/>
      <point x="607" y="218" type="curve" smooth="yes"/>
      <point x="607" y="200"/>
      <point x="594" y="186"/>
    </contour>
    <contour>
      <point x="298" y="401" type="line"/>
      <point x="408" y="495" type="line"/>
      <point x="408" y="530" type="line" smooth="yes"/>
      <point x="408" y="573"/>
      <point x="414" y="593"/>
      <point x="364" y="593" type="curve" smooth="yes"/>
      <point x="253" y="593" type="line" smooth="yes"/>
      <point x="206" y="593"/>
      <point x="213" y="569"/>
      <point x="213" y="530" type="curve" smooth="yes"/>
      <point x="213" y="495" type="line"/>
    </contour>
    <contour>
      <point x="398" y="148" type="line"/>
      <point x="290" y="264" type="line"/>
      <point x="213" y="196" type="line"/>
      <point x="213" y="140" type="line" smooth="yes"/>
      <point x="213" y="115"/>
      <point x="208" y="100"/>
      <point x="261" y="100" type="curve" smooth="yes"/>
      <point x="342" y="100" type="line"/>
    </contour>
  </outline>
</glyph>
<glyph name="parenleft" format="1">
  <advance width="720"/>
  <unicode hex="0028"/>
  <outline>
    <contour>
      <point x="291" y="624" type="curve" smooth="yes"/>
      <point x="387" y="742" type="line" smooth="yes"/>
      <point x="403" y="762"/>
      <point x="414" y="778"/>
      <point x="441" y="778" type="curve" smooth="yes"/>
      <point x="467" y="778"/>
      <point x="487" y="753"/>
      <point x="487" y="728" type="curve" smooth="yes"/>
      <point x="487" y="711"/>
      <point x="476" y="697"/>
      <point x="467" y="685" type="curve" smooth="yes"/>
      <point x="359" y="543" type="line" smooth="yes"/>
      <point x="333" y="509"/>
      <point x="333" y="507"/>
      <point x="333" y="465" type="curve" smooth="yes"/>
      <point x="333" y="313" type="line" smooth="yes"/>
      <point x="333" y="271"/>
      <point x="333" y="269"/>
      <point x="359" y="235" type="curve" smooth="yes"/>
      <point x="464" y="96" type="line" smooth="yes"/>
      <point x="474" y="82"/>
      <point x="487" y="67"/>
      <point x="487" y="50" type="curve" smooth="yes"/>
      <point x="487" y="22"/>
      <point x="466" y="0"/>
      <point x="439" y="0" type="curve" smooth="yes"/>
      <point x="415" y="0"/>
      <point x="404" y="15"/>
      <point x="390" y="32" type="curve" smooth="yes"/>
      <point x="291" y="154" type="line" smooth="yes"/>
      <point x="247" y="208"/>
      <point x="233" y="243"/>
      <point x="233" y="313" type="curve" smooth="yes"/>
      <point x="233" y="465" type="line" smooth="yes"/>
      <point x="233" y="534"/>
      <point x="247" y="570"/>
    </contour>
  </outline>
</glyph>
<glyph name="parenright" format="1">
  <advance width="720"/>
  <unicode hex="0029"/>
  <outline>
    <contour>
      <point x="333" y="742" type="curve" smooth="yes"/>
      <point x="429" y="624" type="line" smooth="yes"/>
      <point x="473" y="570"/>
      <point x="487" y="534"/>
      <point x="487" y="465" type="curve" smooth="yes"/>
      <point x="487" y="313" type="line" smooth="yes"/>
      <point x="487" y="243"/>
      <point x="473" y="208"/>
      <point x="429" y="154" type="curve" smooth="yes"/>
      <point x="330" y="32" type="line" smooth="yes"/>
      <point x="316" y="15"/>
      <point x="305" y="0"/>
      <point x="281" y="0" type="curve" smooth="yes"/>
      <point x="254" y="0"/>
      <point x="233" y="22"/>
      <point x="233" y="50" type="curve" smooth="yes"/>
      <point x="233" y="67"/>
      <point x="246" y="82"/>
      <point x="256" y="96" type="curve" smooth="yes"/>
      <point x="361" y="235" type="line" smooth="yes"/>
      <point x="387" y="269"/>
      <point x="387" y="271"/>
      <point x="387" y="313" type="curve" smooth="yes"/>
      <point x="387" y="465" type="line" smooth="yes"/>
      <point x="387" y="507"/>
      <point x="387" y="509"/>
      <point x="361" y="543" type="curve" smooth="yes"/>
      <point x="253" y="685" type="line" smooth="yes"/>
      <point x="244" y="697"/>
      <point x="233" y="711"/>
      <point x="233" y="728" type="curve" smooth="yes"/>
      <point x="233" y="753"/>
      <point x="253" y="778"/>
      <point x="279" y="778" type="curve" smooth="yes"/>
      <point x="306" y="778"/>
      <point x="317" y="762"/>
    </contour>
  </outline>
</glyph>
<glyph name="asterisk" format="1">
  <advance width="720"/>
  <unicode hex="002A"/>
  <outline>
    <contour>
      <point x="153" y="276" type="curve" smooth="yes"/>
      <point x="284" y="388" type="line"/>
      <point x="140" y="511" type="line" smooth="yes"/>
      <point x="127" y="522"/>
      <point x="113" y="536"/>
      <point x="113" y="554" type="curve" smooth="yes"/>
      <point x="113" y="582"/>
      <point x="134" y="607"/>
      <point x="163" y="607" type="curve" smooth="yes"/>
      <point x="179" y="607"/>
      <point x="192" y="598"/>
      <point x="203" y="588" type="curve" smooth="yes"/>
      <point x="310" y="496" type="line"/>
      <point x="310" y="642" type="line" smooth="yes"/>
      <point x="310" y="674"/>
      <point x="324" y="692"/>
      <point x="360" y="692" type="curve" smooth="yes"/>
      <point x="396" y="692"/>
      <point x="410" y="674"/>
      <point x="410" y="642" type="curve" smooth="yes"/>
      <point x="410" y="496" type="line"/>
      <point x="517" y="588" type="line" smooth="yes"/>
      <point x="528" y="598"/>
      <point x="541" y="607"/>
      <point x="557" y="607" type="curve" smooth="yes"/>
      <point x="586" y="607"/>
      <point x="607" y="582"/>
      <point x="607" y="554" type="curve" smooth="yes"/>
      <point x="607" y="536"/>
      <point x="593" y="522"/>
      <point x="580" y="511" type="curve" smooth="yes"/>
      <point x="436" y="388" type="line"/>
      <point x="567" y="276" type="line" smooth="yes"/>
      <point x="584" y="262"/>
      <point x="607" y="245"/>
      <point x="607" y="221" type="curve" smooth="yes"/>
      <point x="607" y="193"/>
      <point x="586" y="169"/>
      <point x="557" y="169" type="curve" smooth="yes"/>
      <point x="536" y="169"/>
      <point x="518" y="187"/>
      <point x="503" y="200" type="curve" smooth="yes"/>
      <point x="410" y="280" type="line"/>
      <point x="410" y="136" type="line" smooth="yes"/>
      <point x="410" y="104"/>
      <point x="396" y="86"/>
      <point x="360" y="86" type="curve" smooth="yes"/>
      <point x="324" y="86"/>
      <point x="310" y="104"/>
      <point x="310" y="136" type="curve" smooth="yes"/>
      <point x="310" y="280" type="line"/>
      <point x="217" y="200" type="line" smooth="yes"/>
      <point x="202" y="187"/>
      <point x="184" y="169"/>
      <point x="163" y="169" type="curve" smooth="yes"/>
      <point x="134" y="169"/>
      <point x="113" y="193"/>
      <point x="113" y="221" type="curve" smooth="yes"/>
      <point x="113" y="245"/>
      <point x="136" y="262"/>
    </contour>
  </outline>
</glyph>
<glyph name="plus" format="1">
  <advance width="720"/>
  <unicode hex="002B"/>
  <outline>
    <contour>
      <point x="310" y="439" type="line"/>
      <point x="310" y="588" type="line" smooth="yes"/>
      <point x="310" y="620"/>
      <point x="324" y="638"/>
      <point x="360" y="638" type="curve" smooth="yes"/>
      <point x="396" y="638"/>
      <point x="410" y="620"/>
      <point x="410" y="588" type="curve" smooth="yes"/>
      <point x="410" y="439" type="line"/>
      <point x="557" y="439" type="line" smooth="yes"/>
      <point x="583" y="439"/>
      <point x="607" y="425"/>
      <point x="607" y="389" type="curve" smooth="yes"/>
      <point x="607" y="353"/>
      <point x="583" y="339"/>
      <point x="557" y="339" type="curve" smooth="yes"/>
      <point x="410" y="339" type="line"/>
      <point x="410" y="192" type="line" smooth="yes"/>
      <point x="410" y="160"/>
      <point x="396" y="142"/>
      <point x="360" y="142" type="curve" smooth="yes"/>
      <point x="324" y="142"/>
      <point x="310" y="160"/>
      <point x="310" y="192" type="curve" smooth="yes"/>
      <point x="310" y="339" type="line"/>
      <point x="163" y="339" type="line" smooth="yes"/>
      <point x="137" y="339"/>
      <point x="113" y="353"/>
      <point x="113" y="389" type="curve" smooth="yes"/>
      <point x="113" y="425"/>
      <point x="137" y="439"/>
      <point x="163" y="439" type="curve" smooth="yes"/>
    </contour>
  </outline>
</glyph>
<glyph name="comma" format="1">
  <advance width="720"/>
  <unicode hex="002C"/>
  <outline>
    <contour>
      <point x="408" y="254" type="line"/>
      <point x="262" y="254" type="line" smooth="yes"/>
      <point x="236" y="254"/>
      <point x="212" y="268"/>
      <point x="212" y="304" type="curve" smooth="yes"/>
      <point x="212" y="340"/>
      <point x="236" y="354"/>
      <point x="262" y="354" type="curve" smooth="yes"/>
      <point x="448" y="354" type="line" smooth="yes"/>
      <point x="466" y="354"/>
      <point x="477" y="354"/>
      <point x="492" y="340" type="curve" smooth="yes"/>
      <point x="508" y="325"/>
      <point x="508" y="311"/>
      <point x="508" y="290" type="curve" smooth="yes"/>
      <point x="508" y="50" type="line" smooth="yes"/>
      <point x="508" y="18"/>
      <point x="494" y="0"/>
      <point x="458" y="0" type="curve" smooth="yes"/>
      <point x="422" y="0"/>
      <point x="408" y="18"/>
      <point x="408" y="50" type="curve" smooth="yes"/>
    </contour>
  </outline>
</glyph>
<glyph name="period" format="1">
  <advance width="720"/>
  <unicode hex="002E"/>
  <outline>
    <contour>
      <point x="396" y="128" type="curve" smooth="yes"/>
      <point x="324" y="128" type="line" smooth="yes"/>
      <point x="302" y="128"/>
      <point x="286" y="128"/>
      <point x="272" y="147" type="curve" smooth="yes"/>
      <point x="261" y="162"/>
      <point x="261" y="173"/>
      <point x="261" y="192" type="curve" smooth="yes"/>
      <point x="261" y="248" type="line" smooth="yes"/>
      <point x="261" y="267"/>
      <point x="261" y="278"/>
      <point x="272" y="293" type="curve" smooth="yes"/>
      <point x="286" y="312"/>
      <point x="302" y="312"/>
      <point x="324" y="312" type="curve" smooth="yes"/>
      <point x="396" y="312" type="line" smooth="yes"/>
      <point x="418" y="312"/>
      <point x="434" y="312"/>
      <point x="448" y="293" type="curve" smooth="yes"/>
      <point x="459" y="278"/>
      <point x="459" y="267"/>
      <point x="459" y="248" type="curve" smooth="yes"/>
      <point x="459" y="192" type="line" smooth="yes"/>
      <point x="459" y="173"/>
      <point x="459" y="162"/>
      <point x="448" y="147" type="curve" smooth="yes"/>
      <point x="434" y="128"/>
      <point x="418" y="128"/>
    </contour>
  </outline>
</glyph>
<glyph name="two" format="1">
  <advance width="720"/>
  <unicode hex="0032"/>
  <outline>
    <contour>
      <point x="213" y="339" type="line"/>
      <point x="213" y="100" type="line"/>
      <point x="557" y="100" type="line" smooth="yes"/>
      <point x="583" y="100"/>
      <point x="607" y="86"/>
      <point x="607" y="50" type="curve" smooth="yes"/>
      <point x="607" y="14"/>
      <point x="583" y="0"/>
      <point x="557" y="0" type="curve" smooth="yes"/>
      <point x="113" y="0" type="line"/>
      <point x="113" y="326" type="line" smooth="yes"/>
      <point x="113" y="401"/>
      <point x="151" y="439"/>
      <point x="226" y="439" type="curve" smooth="yes"/>
      <point x="507" y="439" type="line"/>
      <point x="507" y="678" type="line"/>
      <point x="163" y="678" type="line" smooth="yes"/>
      <point x="137" y="678"/>
      <point x="113" y="692"/>
      <point x="113" y="728" type="curve" smooth="yes"/>
      <point x="113" y="764"/>
      <point x="137" y="778"/>
      <point x="163" y="778" type="curve" smooth="yes"/>
      <point x="495" y="778" type="line" smooth="yes"/>
      <point x="528" y="778"/>
      <point x="551" y="773"/>
      <point x="576" y="750" type="curve" smooth="yes"/>
      <point x="604" y="724"/>
      <point x="607" y="697"/>
      <point x="607" y="661" type="curve" smooth="yes"/>
      <point x="607" y="456" type="line" smooth="yes"/>
      <point x="607" y="420"/>
      <point x="604" y="393"/>
      <point x="576" y="367" type="curve" smooth="yes"/>
      <point x="551" y="344"/>
      <point x="528" y="339"/>
      <point x="495" y="339" type="curve" smooth="yes"/>
    </contour>
  </outline>
</glyph>
<glyph name="three" format="1">
  <advance width="720"/>
  <unicode hex="0033"/>
  <outline>
    <contour>
      <point x="507" y="678" type="line"/>
      <point x="163" y="678" type="line" smooth="yes"/>
      <point x="137" y="678"/>
      <point x="113" y="692"/>
      <point x="113" y="728" type="curve" smooth="yes"/>
      <point x="113" y="764"/>
      <point x="137" y="778"/>
      <point x="163" y="778" type="curve" smooth="yes"/>
      <point x="507" y="778" type="line" smooth="yes"/>
      <point x="564" y="778"/>
      <point x="607" y="735"/>
      <point x="607" y="678" type="curve" smooth="yes"/>
      <point x="607" y="486" type="line" smooth="yes"/>
      <point x="607" y="446"/>
      <point x="599" y="417"/>
      <point x="568" y="389" type="curve"/>
      <point x="599" y="361"/>
      <point x="607" y="332"/>
      <point x="607" y="292" type="curve" smooth="yes"/>
      <point x="607" y="100" type="line" smooth="yes"/>
      <point x="607" y="43"/>
      <point x="564" y="0"/>
      <point x="507" y="0" type="curve" smooth="yes"/>
      <point x="163" y="0" type="line" smooth="yes"/>
      <point x="137" y="0"/>
      <point x="113" y="14"/>
      <point x="113" y="50" type="curve" smooth="yes"/>
      <point x="113" y="86"/>
      <point x="137" y="100"/>
      <point x="163" y="100" type="curve" smooth="yes"/>
      <point x="507" y="100" type="line"/>
      <point x="507" y="266" type="line" smooth="yes"/>
      <point x="507" y="322"/>
      <point x="485" y="339"/>
      <point x="457" y="339" type="curve" smooth="yes"/>
      <point x="261" y="339" type="line" smooth="yes"/>
      <point x="235" y="339"/>
      <point x="211" y="353"/>
      <point x="211" y="389" type="curve" smooth="yes"/>
      <point x="211" y="425"/>
      <point x="235" y="439"/>
      <point x="261" y="439" type="curve" smooth="yes"/>
      <point x="457" y="439" type="line" smooth="yes"/>
      <point x="485" y="439"/>
      <point x="507" y="456"/>
      <point x="507" y="512" type="curve" smooth="yes"/>
    </contour>
  </outline>
</glyph>
<glyph name="eight" format="1">
  <advance width="720"/>
  <unicode hex="0038"/>
  <outline>
    <contour>
      <point x="313" y="439" type="line"/>
      <point x="407" y="439" type="line"/>
      <point x="407" y="678" type="line"/>
      <point x="313" y="678" type="line"/>
    </contour>
    <contour>
      <point x="263" y="778" type="curve" smooth="yes"/>
      <point x="457" y="778" type="line" smooth="yes"/>
      <point x="491" y="778"/>
      <point x="507" y="754"/>
      <point x="507" y="728" type="curve" smooth="yes"/>
      <point x="507" y="439" type="line"/>
      <point x="538" y="439"/>
      <point x="562" y="428"/>
      <point x="580" y="411" type="curve" smooth="yes"/>
      <point x="598" y="394"/>
      <point x="607" y="369"/>
      <point x="607" y="338" type="curve" smooth="yes"/>
      <point x="607" y="100" type="line" smooth="yes"/>
      <point x="607" y="39"/>
      <point x="569" y="0"/>
      <point x="507" y="0" type="curve" smooth="yes"/>
      <point x="213" y="0" type="line" smooth="yes"/>
      <point x="151" y="0"/>
      <point x="113" y="39"/>
      <point x="113" y="100" type="curve" smooth="yes"/>
      <point x="113" y="338" type="line" smooth="yes"/>
      <point x="113" y="369"/>
      <point x="122" y="394"/>
      <point x="140" y="411" type="curve" smooth="yes"/>
      <point x="158" y="428"/>
      <point x="182" y="439"/>
      <point x="213" y="439" type="curve"/>
      <point x="213" y="728" type="line" smooth="yes"/>
      <point x="213" y="754"/>
      <point x="229" y="778"/>
    </contour>
    <contour>
      <point x="213" y="100" type="line"/>
      <point x="507" y="100" type="line"/>
      <point x="507" y="339" type="line"/>
      <point x="213" y="339" type="line"/>
    </contour>
  </outline>
</glyph>
<glyph name="colon" format="1">
  <advance width="720"/>
  <unicode hex="003A"/>
  <outline>
    <contour>
      <point x="396" y="127" type="curve" smooth="yes"/>
      <point x="324" y="127" type="line" smooth="yes"/>
      <point x="302" y="127"/>
      <point x="286" y="127"/>
      <point x="272" y="146" type="curve" smooth="yes"/>
      <point x="261" y="161"/>
      <point x="261" y="172"/>
      <point x="261" y="191" type="curve" smooth="yes"/>
      <point x="261" y="247" type="line" smooth="yes"/>
      <point x="261" y="266"/>
      <point x="261" y="277"/>
      <point x="272" y="292" type="curve" smooth="yes"/>
      <point x="286" y="311"/>
      <point x="302" y="311"/>
      <point x="324" y="311" type="curve" smooth="yes"/>
      <point x="396" y="311" type="line" smooth="yes"/>
      <point x="418" y="311"/>
      <point x="434" y="311"/>
      <point x="448" y="292" type="curve" smooth="yes"/>
      <point x="459" y="277"/>
      <point x="459" y="266"/>
      <point x="459" y="247" type="curve" smooth="yes"/>
      <point x="459" y="191" type="line" smooth="yes"/>
      <point x="459" y="172"/>
      <point x="459" y="161"/>
      <point x="448" y="146" type="curve" smooth="yes"/>
      <point x="434" y="127"/>
      <point x="418" y="127"/>
    </contour>
    <contour>
      <point x="396" y="467" type="curve" smooth="yes"/>
      <point x="324" y="467" type="line" smooth="yes"/>
      <point x="302" y="467"/>
      <point x="286" y="467"/>
      <point x="272" y="486" type="curve" smooth="yes"/>
      <point x="261" y="501"/>
      <point x="261" y="512"/>
      <point x="261" y="531" type="curve" smooth="yes"/>
      <point x="261" y="587" type="line" smooth="yes"/>
      <point x="261" y="606"/>
      <point x="261" y="617"/>
      <point x="272" y="632" type="curve" smooth="yes"/>
      <point x="286" y="651"/>
      <point x="302" y="651"/>
      <point x="324" y="651" type="curve" smooth="yes"/>
      <point x="396" y="651" type="line" smooth="yes"/>
      <point x="418" y="651"/>
      <point x="434" y="651"/>
      <point x="448" y="632" type="curve" smooth="yes"/>
      <point x="459" y="617"/>
      <point x="459" y="606"/>
      <point x="459" y="587" type="curve" smooth="yes"/>
      <point x="459" y="531" type="line" smooth="yes"/>
      <point x="459" y="512"/>
      <point x="459" y="501"/>
      <point x="448" y="486" type="curve" smooth="yes"/>
      <point x="434" y="467"/>
      <point x="418" y="467"/>
    </contour>
  </outline>
</glyph>
<glyph name="less" format="1">
  <advance width="720"/>
  <unicode hex="003C"/>
  <outline>
    <contour>
      <point x="241" y="412" type="line"/>
      <point x="599" y="174" type="line" smooth="yes"/>
      <point x="619" y="161"/>
      <point x="631" y="148"/>
      <point x="632" y="123" type="curve" smooth="yes"/>
      <point x="632" y="95"/>
      <point x="608" y="68"/>
      <point x="580" y="68" type="curve" smooth="yes"/>
      <point x="563" y="68"/>
      <point x="549" y="77"/>
      <point x="537" y="85" type="curve" smooth="yes"/>
      <point x="126" y="358" type="line" smooth="yes"/>
      <point x="104" y="372"/>
      <point x="89" y="383"/>
      <point x="89" y="412" type="curve" smooth="yes"/>
      <point x="88" y="440"/>
      <point x="104" y="452"/>
      <point x="126" y="466" type="curve" smooth="yes"/>
      <point x="538" y="740" type="line" smooth="yes"/>
      <point x="550" y="748"/>
      <point x="564" y="755"/>
      <point x="579" y="755" type="curve" smooth="yes"/>
      <point x="608" y="755"/>
      <point x="631" y="729"/>
      <point x="632" y="701" type="curve" smooth="yes"/>
      <point x="632" y="675"/>
      <point x="616" y="661"/>
      <point x="597" y="648" type="curve" smooth="yes"/>
    </contour>
  </outline>
</glyph>
<glyph name="C" format="1">
  <advance width="720"/>
  <unicode hex="0043"/>
  <outline>
    <contour>
      <point x="557" y="0" type="curve" smooth="yes"/>
      <point x="382" y="0" type="line" smooth="yes"/>
      <point x="307" y="0"/>
      <point x="264" y="30"/>
      <point x="232" y="95" type="curve" smooth="yes"/>
      <point x="140" y="281" type="line" smooth="yes"/>
      <point x="123" y="315"/>
      <point x="113" y="347"/>
      <point x="113" y="386" type="curve" smooth="yes"/>
      <point x="113" y="430"/>
      <point x="121" y="457"/>
      <point x="141" y="497" type="curve" smooth="yes"/>
      <point x="233" y="682" type="line" smooth="yes"/>
      <point x="267" y="751"/>
      <point x="310" y="778"/>
      <point x="387" y="778" type="curve" smooth="yes"/>
      <point x="557" y="778" type="line" smooth="yes"/>
      <point x="579" y="778"/>
      <point x="607" y="766"/>
      <point x="607" y="728" type="curve" smooth="yes"/>
      <point x="607" y="692"/>
      <point x="580" y="678"/>
      <point x="557" y="678" type="curve" smooth="yes"/>
      <point x="390" y="678" type="line" smooth="yes"/>
      <point x="347" y="678"/>
      <point x="340" y="674"/>
      <point x="321" y="636" type="curve" smooth="yes"/>
      <point x="234" y="462" type="line" smooth="yes"/>
      <point x="221" y="435"/>
      <point x="213" y="417"/>
      <point x="213" y="386" type="curve" smooth="yes"/>
      <point x="213" y="358"/>
      <point x="222" y="341"/>
      <point x="234" y="317" type="curve" smooth="yes"/>
      <point x="319" y="144" type="line" smooth="yes"/>
      <point x="339" y="103"/>
      <point x="349" y="100"/>
      <point x="394" y="100" type="curve" smooth="yes"/>
      <point x="557" y="100" type="line" smooth="yes"/>
      <point x="579" y="100"/>
      <point x="607" y="88"/>
      <point x="607" y="50" type="curve" smooth="yes"/>
      <point x="607" y="14"/>
      <point x="580" y="0"/>
    </contour>
  </outline>
</glyph>
<glyph name="D" format="1">
  <advance width="720"/>
  <unicode hex="0044"/>
  <outline>
    <contour>
      <point x="211" y="100" type="line"/>
      <point x="211" y="678" type="line"/>
      <point x="174" y="678" type="line" smooth="yes"/>
      <point x="141" y="678"/>
      <point x="113" y="690"/>
      <point x="113" y="728" type="curve" smooth="yes"/>
      <point x="113" y="764"/>
      <point x="140" y="778"/>
      <point x="171" y="778" type="curve" smooth="yes"/>
      <point x="338" y="778" type="line" smooth="yes"/>
      <point x="416" y="778"/>
      <point x="455" y="746"/>
      <point x="489" y="678" type="curve" smooth="yes"/>
      <point x="577" y="502" type="line" smooth="yes"/>
      <point x="597" y="461"/>
      <point x="607" y="432"/>
      <point x="607" y="386" type="curve" smooth="yes"/>
      <point x="607" y="346"/>
      <point x="596" y="312"/>
      <point x="578" y="276" type="curve" smooth="yes"/>
      <point x="487" y="94" type="line" smooth="yes"/>
      <point x="452" y="23"/>
      <point x="407" y="0"/>
      <point x="329" y="0" type="curve" smooth="yes"/>
      <point x="163" y="0" type="line" smooth="yes"/>
      <point x="137" y="0"/>
      <point x="113" y="14"/>
      <point x="113" y="50" type="curve" smooth="yes"/>
      <point x="113" y="86"/>
      <point x="137" y="100"/>
      <point x="163" y="100" type="curve" smooth="yes"/>
    </contour>
    <contour>
      <point x="311" y="678" type="line"/>
      <point x="311" y="100" type="line"/>
      <point x="330" y="100" type="line" smooth="yes"/>
      <point x="372" y="100"/>
      <point x="382" y="105"/>
      <point x="400" y="142" type="curve" smooth="yes"/>
      <point x="488" y="320" type="line" smooth="yes"/>
      <point x="499" y="343"/>
      <point x="507" y="360"/>
      <point x="507" y="385" type="curve" smooth="yes"/>
      <point x="507" y="419"/>
      <point x="496" y="438"/>
      <point x="482" y="467" type="curve" smooth="yes"/>
      <point x="399" y="636" type="line" smooth="yes"/>
      <point x="378" y="679"/>
      <point x="369" y="678"/>
      <point x="323" y="678" type="curve" smooth="yes"/>
    </contour>
  </outline>
</glyph>
<glyph name="G" format="1">
  <advance width="720"/>
  <unicode hex="0047"/>
  <outline>
    <contour>
      <point x="507" y="254" type="line"/>
      <point x="410" y="254" type="line" smooth="yes"/>
      <point x="384" y="254"/>
      <point x="360" y="268"/>
      <point x="360" y="304" type="curve" smooth="yes"/>
      <point x="360" y="340"/>
      <point x="384" y="354"/>
      <point x="410" y="354" type="curve" smooth="yes"/>
      <point x="607" y="354" type="line"/>
      <point x="607" y="157" type="line" smooth="yes"/>
      <point x="607" y="60"/>
      <point x="542" y="0"/>
      <point x="447" y="0" type="curve" smooth="yes"/>
      <point x="275" y="0" type="line" smooth="yes"/>
      <point x="229" y="0"/>
      <point x="195" y="8"/>
      <point x="160" y="40" type="curve" smooth="yes"/>
      <point x="120" y="76"/>
      <point x="113" y="113"/>
      <point x="113" y="163" type="curve" smooth="yes"/>
      <point x="113" y="413" type="line" smooth="yes"/>
      <point x="113" y="477"/>
      <point x="127" y="510"/>
      <point x="165" y="559" type="curve" smooth="yes"/>
      <point x="283" y="710" type="line" smooth="yes"/>
      <point x="323" y="761"/>
      <point x="358" y="778"/>
      <point x="423" y="778" type="curve" smooth="yes"/>
      <point x="557" y="778" type="line" smooth="yes"/>
      <point x="583" y="778"/>
      <point x="607" y="764"/>
      <point x="607" y="728" type="curve" smooth="yes"/>
      <point x="607" y="692"/>
      <point x="583" y="678"/>
      <point x="557" y="678" type="curve" smooth="yes"/>
      <point x="437" y="678" type="line" smooth="yes"/>
      <point x="382" y="678"/>
      <point x="386" y="679"/>
      <point x="353" y="637" type="curve" smooth="yes"/>
      <point x="244" y="498" type="line" smooth="yes"/>
      <point x="213" y="459"/>
      <point x="213" y="417"/>
      <point x="213" y="368" type="curve" smooth="yes"/>
      <point x="213" y="172" type="line" smooth="yes"/>
      <point x="213" y="117"/>
      <point x="225" y="100"/>
      <point x="282" y="100" type="curve" smooth="yes"/>
      <point x="441" y="100" type="line" smooth="yes"/>
      <point x="477" y="100"/>
      <point x="507" y="108"/>
      <point x="507" y="152" type="curve" smooth="yes"/>
    </contour>
  </outline>
</glyph>
<glyph name="I" format="1">
  <advance width="720"/>
  <unicode hex="0049"/>
  <outline>
    <contour>
      <point x="410" y="678" type="line"/>
      <point x="410" y="100" type="line"/>
      <point x="557" y="100" type="line" smooth="yes"/>
      <point x="583" y="100"/>
      <point x="607" y="86"/>
      <point x="607" y="50" type="curve" smooth="yes"/>
      <point x="607" y="14"/>
      <point x="583" y="0"/>
      <point x="557" y="0" type="curve" smooth="yes"/>
      <point x="163" y="0" type="line" smooth="yes"/>
      <point x="137" y="0"/>
      <point x="113" y="14"/>
      <point x="113" y="50" type="curve" smooth="yes"/>
      <point x="113" y="86"/>
      <point x="137" y="100"/>
      <point x="163" y="100" type="curve" smooth="yes"/>
      <point x="310" y="100" type="line"/>
      <point x="310" y="678" type="line"/>
      <point x="163" y="678" type="line" smooth="yes"/>
      <point x="137" y="678"/>
      <point x="113" y="692"/>
      <point x="113" y="728" type="curve" smooth="yes"/>
      <point x="113" y="764"/>
      <point x="137" y="778"/>
      <point x="163" y="778" type="curve" smooth="yes"/>
      <point x="557" y="778" type="line" smooth="yes"/>
      <point x="583" y="778"/>
      <point x="607" y="764"/>
      <point x="607" y="728" type="curve" smooth="yes"/>
      <point x="607" y="692"/>
      <point x="583" y="678"/>
      <point x="557" y="678" type="curve" smooth="yes"/>
    </contour>
  </outline>
</glyph>
<glyph name="J" format="1">
  <advance width="720"/>
  <unicode hex="004A"/>
  <outline>
    <contour>
      <point x="557" y="728" type="curve" smooth="yes"/>
      <point x="557" y="170" type="line" smooth="yes"/>
      <point x="557" y="132"/>
      <point x="557" y="108"/>
      <point x="538" y="74" type="curve" smooth="yes"/>
      <point x="504" y="17"/>
      <point x="454" y="0"/>
      <point x="392" y="0" type="curve" smooth="yes"/>
      <point x="334" y="0" type="line" smooth="yes"/>
      <point x="278" y="0"/>
      <point x="230" y="10"/>
      <point x="194" y="58" type="curve" smooth="yes"/>
      <point x="169" y="91"/>
      <point x="163" y="119"/>
      <point x="163" y="159" type="curve" smooth="yes"/>
      <point x="163" y="304" type="line" smooth="yes"/>
      <point x="163" y="336"/>
      <point x="177" y="354"/>
      <point x="213" y="354" type="curve" smooth="yes"/>
      <point x="249" y="354"/>
      <point x="263" y="336"/>
      <point x="263" y="304" type="curve" smooth="yes"/>
      <point x="263" y="174" type="line" smooth="yes"/>
      <point x="263" y="116"/>
      <point x="275" y="100"/>
      <point x="334" y="100" type="curve" smooth="yes"/>
      <point x="389" y="100" type="line" smooth="yes"/>
      <point x="431" y="100"/>
      <point x="457" y="106"/>
      <point x="457" y="154" type="curve" smooth="yes"/>
      <point x="457" y="728" type="line" smooth="yes"/>
      <point x="457" y="760"/>
      <point x="471" y="778"/>
      <point x="507" y="778" type="curve" smooth="yes"/>
      <point x="543" y="778"/>
      <point x="557" y="760"/>
    </contour>
  </outline>
</glyph>
<glyph name="L" format="1">
  <advance width="720"/>
  <unicode hex="004C"/>
  <outline>
    <contour>
      <point x="213" y="100" type="line"/>
      <point x="557" y="100" type="line" smooth="yes"/>
      <point x="583" y="100"/>
      <point x="607" y="86"/>
      <point x="607" y="50" type="curve" smooth="yes"/>
      <point x="607" y="14"/>
      <point x="583" y="0"/>
      <point x="557" y="0" type="curve" smooth="yes"/>
      <point x="113" y="0" type="line"/>
      <point x="113" y="728" type="line" smooth="yes"/>
      <point x="113" y="760"/>
      <point x="127" y="778"/>
      <point x="163" y="778" type="curve" smooth="yes"/>
      <point x="199" y="778"/>
      <point x="213" y="760"/>
      <point x="213" y="728" type="curve" smooth="yes"/>
    </contour>
  </outline>
</glyph>
<glyph name="M" format="1">
  <advance width="720"/>
  <unicode hex="004D"/>
  <outline>
    <contour>
      <point x="360" y="602" type="line"/>
      <point x="482" y="778" type="line"/>
      <point x="607" y="778" type="line"/>
      <point x="607" y="50" type="line" smooth="yes"/>
      <point x="607" y="18"/>
      <point x="593" y="0"/>
      <point x="557" y="0" type="curve" smooth="yes"/>
      <point x="521" y="0"/>
      <point x="507" y="18"/>
      <point x="507" y="50" type="curve" smooth="yes"/>
      <point x="507" y="640" type="line"/>
      <point x="505" y="640" type="line"/>
      <point x="410" y="499" type="line"/>
      <point x="410" y="483" type="line" smooth="yes"/>
      <point x="410" y="452"/>
      <point x="398" y="423"/>
      <point x="360" y="423" type="curve" smooth="yes"/>
      <point x="324" y="423"/>
      <point x="310" y="452"/>
      <point x="310" y="483" type="curve" smooth="yes"/>
      <point x="310" y="499" type="line"/>
      <point x="215" y="640" type="line"/>
      <point x="213" y="640" type="line"/>
      <point x="213" y="50" type="line" smooth="yes"/>
      <point x="213" y="18"/>
      <point x="199" y="0"/>
      <point x="163" y="0" type="curve" smooth="yes"/>
      <point x="127" y="0"/>
      <point x="113" y="18"/>
      <point x="113" y="50" type="curve" smooth="yes"/>
      <point x="113" y="778" type="line"/>
      <point x="238" y="778" type="line"/>
    </contour>
  </outline>
</glyph>
<glyph name="P" format="1">
  <advance width="720"/>
  <unicode hex="0050"/>
  <outline>
    <contour>
      <point x="213" y="294" type="line"/>
      <point x="213" y="50" type="line" smooth="yes"/>
      <point x="213" y="18"/>
      <point x="199" y="0"/>
      <point x="163" y="0" type="curve" smooth="yes"/>
      <point x="127" y="0"/>
      <point x="113" y="18"/>
      <point x="113" y="50" type="curve" smooth="yes"/>
      <point x="113" y="778" type="line"/>
      <point x="445" y="778" type="line" smooth="yes"/>
      <point x="491" y="778"/>
      <point x="524" y="771"/>
      <point x="560" y="737" type="curve" smooth="yes"/>
      <point x="603" y="697"/>
      <point x="607" y="660"/>
      <point x="607" y="606" type="curve" smooth="yes"/>
      <point x="607" y="470" type="line" smooth="yes"/>
      <point x="607" y="419"/>
      <point x="603" y="383"/>
      <point x="566" y="342" type="curve" smooth="yes"/>
      <point x="527" y="298"/>
      <point x="486" y="294"/>
      <point x="432" y="294" type="curve" smooth="yes"/>
    </contour>
    <contour>
      <point x="213" y="678" type="line"/>
      <point x="213" y="394" type="line"/>
      <point x="435" y="394" type="line" smooth="yes"/>
      <point x="494" y="394"/>
      <point x="507" y="409"/>
      <point x="507" y="466" type="curve" smooth="yes"/>
      <point x="507" y="606" type="line" smooth="yes"/>
      <point x="507" y="663"/>
      <point x="494" y="678"/>
      <point x="435" y="678" type="curve" smooth="yes"/>
    </contour>
  </outline>
</glyph>
<glyph name="Q" format="1">
  <advance width="720"/>
  <unicode hex="0051"/>
  <outline>
    <contour>
      <point x="426" y="0" type="line"/>
      <point x="390" y="91" type="line"/>
      <point x="324" y="35" type="line" smooth="yes"/>
      <point x="296" y="11"/>
      <point x="273" y="0"/>
      <point x="234" y="0" type="curve" smooth="yes"/>
      <point x="200" y="0"/>
      <point x="169" y="13"/>
      <point x="146" y="38" type="curve" smooth="yes"/>
      <point x="118" y="69"/>
      <point x="113" y="96"/>
      <point x="113" y="136" type="curve" smooth="yes"/>
      <point x="113" y="398" type="line" smooth="yes"/>
      <point x="113" y="471"/>
      <point x="139" y="517"/>
      <point x="193" y="563" type="curve" smooth="yes"/>
      <point x="397" y="737" type="line" smooth="yes"/>
      <point x="423" y="760"/>
      <point x="446" y="778"/>
      <point x="482" y="778" type="curve" smooth="yes"/>
      <point x="558" y="778"/>
      <point x="607" y="722"/>
      <point x="607" y="648" type="curve" smooth="yes"/>
      <point x="607" y="383" type="line" smooth="yes"/>
      <point x="607" y="306"/>
      <point x="587" y="262"/>
      <point x="528" y="211" type="curve" smooth="yes"/>
      <point x="469" y="160" type="line"/>
      <point x="494" y="100" type="line"/>
      <point x="553" y="100" type="line" smooth="yes"/>
      <point x="583" y="100"/>
      <point x="607" y="82"/>
      <point x="607" y="50" type="curve" smooth="yes"/>
      <point x="607" y="8"/>
      <point x="576" y="0"/>
      <point x="541" y="0" type="curve" smooth="yes"/>
    </contour>
    <contour>
      <point x="419" y="287" type="curve" smooth="yes"/>
      <point x="431" y="258" type="line"/>
      <point x="454" y="277" type="line" smooth="yes"/>
      <point x="500" y="315"/>
      <point x="507" y="329"/>
      <point x="507" y="389" type="curve" smooth="yes"/>
      <point x="507" y="638" type="line" smooth="yes"/>
      <point x="507" y="654"/>
      <point x="509" y="678"/>
      <point x="487" y="678" type="curve" smooth="yes"/>
      <point x="475" y="678"/>
      <point x="468" y="668"/>
      <point x="459" y="661" type="curve" smooth="yes"/>
      <point x="258" y="487" type="line" smooth="yes"/>
      <point x="224" y="458"/>
      <point x="213" y="439"/>
      <point x="213" y="394" type="curve" smooth="yes"/>
      <point x="213" y="135" type="line" smooth="yes"/>
      <point x="213" y="119"/>
      <point x="212" y="100"/>
      <point x="235" y="100" type="curve" smooth="yes"/>
      <point x="246" y="100"/>
      <point x="257" y="108"/>
      <point x="265" y="115" type="curve" smooth="yes"/>
      <point x="351" y="190" type="line"/>
      <point x="325" y="256" type="line" smooth="yes"/>
      <point x="319" y="270"/>
      <point x="311" y="288"/>
      <point x="311" y="303" type="curve" smooth="yes"/>
      <point x="311" y="330"/>
      <point x="335" y="351"/>
      <point x="361" y="351" type="curve" smooth="yes"/>
      <point x="400" y="351"/>
      <point x="406" y="317"/>
    </contour>
  </outline>
</glyph>
<glyph name="R" format="1">
  <advance width="720"/>
  <unicode hex="0052"/>
  <outline>
    <contour>
      <point x="213" y="422" type="line"/>
      <point x="213" y="50" type="line" smooth="yes"/>
      <point x="213" y="18"/>
      <point x="199" y="0"/>
      <point x="163" y="0" type="curve" smooth="yes"/>
      <point x="127" y="0"/>
      <point x="113" y="18"/>
      <point x="113" y="50" type="curve" smooth="yes"/>
      <point x="113" y="778" type="line"/>
      <point x="449" y="778" type="line" smooth="yes"/>
      <point x="528" y="778"/>
      <point x="607" y="722"/>
      <point x="607" y="633" type="curve" smooth="yes"/>
      <point x="607" y="564" type="line" smooth="yes"/>
      <point x="607" y="470"/>
      <point x="529" y="422"/>
      <point x="449" y="422" type="curve" smooth="yes"/>
      <point x="357" y="422" type="line"/>
      <point x="582" y="100" type="line" smooth="yes"/>
      <point x="593" y="85"/>
      <point x="607" y="66"/>
      <point x="607" y="47" type="curve" smooth="yes"/>
      <point x="607" y="19"/>
      <point x="584" y="0"/>
      <point x="556" y="0" type="curve" smooth="yes"/>
      <point x="536" y="0"/>
      <point x="523" y="12"/>
      <point x="512" y="28" type="curve" smooth="yes"/>
      <point x="236" y="422" type="line"/>
    </contour>
    <contour>
      <point x="213" y="678" type="line"/>
      <point x="213" y="522" type="line"/>
      <point x="435" y="522" type="line" smooth="yes"/>
      <point x="463" y="522"/>
      <point x="507" y="524"/>
      <point x="507" y="564" type="curve" smooth="yes"/>
      <point x="507" y="633" type="line" smooth="yes"/>
      <point x="507" y="673"/>
      <point x="466" y="678"/>
      <point x="436" y="678" type="curve" smooth="yes"/>
    </contour>
  </outline>
</glyph>
<glyph name="S" format="1">
  <advance width="720"/>
  <unicode hex="0053"/>
  <outline>
    <contour>
      <point x="228" y="637" type="curve" smooth="yes"/>
      <point x="572" y="196" type="line" smooth="yes"/>
      <point x="592" y="170"/>
      <point x="607" y="147"/>
      <point x="607" y="113" type="curve" smooth="yes"/>
      <point x="607" y="38"/>
      <point x="550" y="0"/>
      <point x="481" y="0" type="curve" smooth="yes"/>
      <point x="261" y="0" type="line" smooth="yes"/>
      <point x="223" y="0"/>
      <point x="190" y="7"/>
      <point x="160" y="32" type="curve" smooth="yes"/>
      <point x="133" y="54"/>
      <point x="113" y="90"/>
      <point x="113" y="125" type="curve" smooth="yes"/>
      <point x="113" y="157"/>
      <point x="131" y="185"/>
      <point x="166" y="185" type="curve" smooth="yes"/>
      <point x="195" y="185"/>
      <point x="213" y="161"/>
      <point x="213" y="134" type="curve" smooth="yes"/>
      <point x="213" y="104"/>
      <point x="229" y="100"/>
      <point x="257" y="100" type="curve" smooth="yes"/>
      <point x="474" y="100" type="line" smooth="yes"/>
      <point x="482" y="100"/>
      <point x="507" y="97"/>
      <point x="507" y="112" type="curve" smooth="yes"/>
      <point x="507" y="120"/>
      <point x="493" y="135"/>
      <point x="489" y="141" type="curve" smooth="yes"/>
      <point x="146" y="582" type="line" smooth="yes"/>
      <point x="125" y="609"/>
      <point x="113" y="629"/>
      <point x="113" y="664" type="curve" smooth="yes"/>
      <point x="113" y="704"/>
      <point x="132" y="738"/>
      <point x="166" y="760" type="curve" smooth="yes"/>
      <point x="194" y="778"/>
      <point x="217" y="778"/>
      <point x="249" y="778" type="curve" smooth="yes"/>
      <point x="461" y="778" type="line" smooth="yes"/>
      <point x="499" y="778"/>
      <point x="531" y="770"/>
      <point x="560" y="745" type="curve" smooth="yes"/>
      <point x="586" y="722"/>
      <point x="607" y="685"/>
      <point x="607" y="650" type="curve" smooth="yes"/>
      <point x="607" y="618"/>
      <point x="591" y="592"/>
      <point x="555" y="592" type="curve" smooth="yes"/>
      <point x="525" y="592"/>
      <point x="507" y="611"/>
      <point x="507" y="639" type="curve" smooth="yes"/>
      <point x="507" y="673"/>
      <point x="490" y="678"/>
      <point x="459" y="678" type="curve" smooth="yes"/>
      <point x="247" y="678" type="line" smooth="yes"/>
      <point x="236" y="678"/>
      <point x="213" y="681"/>
      <point x="213" y="664" type="curve" smooth="yes"/>
      <point x="213" y="655"/>
      <point x="224" y="643"/>
    </contour>
  </outline>
</glyph>
<glyph name="T" format="1">
  <advance width="720"/>
  <unicode hex="0054"/>
  <outline>
    <contour>
      <point x="310" y="678" type="line"/>
      <point x="213" y="678" type="line"/>
      <point x="213" y="642" type="line" smooth="yes"/>
      <point x="213" y="610"/>
      <point x="199" y="592"/>
      <point x="163" y="592" type="curve" smooth="yes"/>
      <point x="127" y="592"/>
      <point x="113" y="610"/>
      <point x="113" y="642" type="curve" smooth="yes"/>
      <point x="113" y="778" type="line"/>
      <point x="607" y="778" type="line"/>
      <point x="607" y="642" type="line" smooth="yes"/>
      <point x="607" y="610"/>
      <point x="593" y="592"/>
      <point x="557" y="592" type="curve" smooth="yes"/>
      <point x="521" y="592"/>
      <point x="507" y="610"/>
      <point x="507" y="642" type="curve" smooth="yes"/>
      <point x="507" y="678" type="line"/>
      <point x="410" y="678" type="line"/>
      <point x="410" y="50" type="line" smooth="yes"/>
      <point x="410" y="18"/>
      <point x="396" y="0"/>
      <point x="360" y="0" type="curve" smooth="yes"/>
      <point x="324" y="0"/>
      <point x="310" y="18"/>
      <point x="310" y="50" type="curve" smooth="yes"/>
    </contour>
  </outline>
</glyph>
<glyph name="V" format="1">
  <advance width="720"/>
  <unicode hex="0056"/>
  <outline>
    <contour>
      <point x="360" y="186" type="line"/>
      <point x="507" y="568" type="line"/>
      <point x="507" y="728" type="line" smooth="yes"/>
      <point x="507" y="760"/>
      <point x="521" y="778"/>
      <point x="557" y="778" type="curve" smooth="yes"/>
      <point x="593" y="778"/>
      <point x="607" y="760"/>
      <point x="607" y="728" type="curve" smooth="yes"/>
      <point x="607" y="570" type="line" smooth="yes"/>
      <point x="607" y="557"/>
      <point x="606" y="543"/>
      <point x="601" y="531" type="curve" smooth="yes"/>
      <point x="410" y="44" type="line" smooth="yes"/>
      <point x="400" y="19"/>
      <point x="391" y="0"/>
      <point x="360" y="0" type="curve" smooth="yes"/>
      <point x="329" y="0"/>
      <point x="320" y="19"/>
      <point x="310" y="44" type="curve" smooth="yes"/>
      <point x="119" y="531" type="line" smooth="yes"/>
      <point x="114" y="543"/>
      <point x="113" y="557"/>
      <point x="113" y="570" type="curve" smooth="yes"/>
      <point x="113" y="728" type="line" smooth="yes"/>
      <point x="113" y="760"/>
      <point x="127" y="778"/>
      <point x="163" y="778" type="curve" smooth="yes"/>
      <point x="199" y="778"/>
      <point x="213" y="760"/>
      <point x="213" y="728" type="curve" smooth="yes"/>
      <point x="213" y="568" type="line"/>
    </contour>
  </outline>
</glyph>
<glyph name="W" format="1">
  <advance width="720"/>
  <unicode hex="0057"/>
  <outline>
    <contour>
      <point x="497" y="0" type="curve" smooth="yes"/>
      <point x="422" y="0" type="line" smooth="yes"/>
      <point x="388" y="0"/>
      <point x="368" y="7"/>
      <point x="361" y="43" type="curve"/>
      <point x="359" y="43" type="line"/>
      <point x="352" y="7"/>
      <point x="332" y="0"/>
      <point x="298" y="0" type="curve" smooth="yes"/>
      <point x="223" y="0" type="line" smooth="yes"/>
      <point x="188" y="0"/>
      <point x="179" y="6"/>
      <point x="162" y="36" type="curve" smooth="yes"/>
      <point x="127" y="97" type="line" smooth="yes"/>
      <point x="114" y="119"/>
      <point x="113" y="121"/>
      <point x="113" y="148" type="curve" smooth="yes"/>
      <point x="113" y="728" type="line" smooth="yes"/>
      <point x="113" y="760"/>
      <point x="127" y="778"/>
      <point x="163" y="778" type="curve" smooth="yes"/>
      <point x="199" y="778"/>
      <point x="213" y="760"/>
      <point x="213" y="728" type="curve" smooth="yes"/>
      <point x="213" y="148" type="line"/>
      <point x="240" y="100" type="line"/>
      <point x="283" y="100" type="line"/>
      <point x="310" y="148" type="line"/>
      <point x="310" y="463" type="line" smooth="yes"/>
      <point x="310" y="494"/>
      <point x="324" y="522"/>
      <point x="360" y="522" type="curve" smooth="yes"/>
      <point x="396" y="522"/>
      <point x="410" y="494"/>
      <point x="410" y="463" type="curve" smooth="yes"/>
      <point x="410" y="148" type="line"/>
      <point x="437" y="100" type="line"/>
      <point x="480" y="100" type="line"/>
      <point x="507" y="148" type="line"/>
      <point x="507" y="728" type="line" smooth="yes"/>
      <point x="507" y="760"/>
      <point x="521" y="778"/>
      <point x="557" y="778" type="curve" smooth="yes"/>
      <point x="593" y="778"/>
      <point x="607" y="760"/>
      <point x="607" y="728" type="curve" smooth="yes"/>
      <point x="607" y="148" type="line" smooth="yes"/>
      <point x="607" y="121"/>
      <point x="606" y="119"/>
      <point x="593" y="97" type="curve" smooth="yes"/>
      <point x="558" y="36" type="line" smooth="yes"/>
      <point x="541" y="6"/>
      <point x="532" y="0"/>
    </contour>
  </outline>
</glyph>
<glyph name="bracketleft" format="1">
  <advance width="720"/>
  <unicode hex="005B"/>
  <outline>
    <contour>
      <point x="365" y="100" type="line"/>
      <point x="545" y="100" type="line" smooth="yes"/>
      <point x="577" y="100"/>
      <point x="607" y="87"/>
      <point x="607" y="50" type="curve" smooth="yes"/>
      <point x="607" y="14"/>
      <point x="579" y="0"/>
      <point x="547" y="0" type="curve" smooth="yes"/>
      <point x="184" y="0" type="line" smooth="yes"/>
      <point x="129" y="0"/>
      <point x="113" y="10"/>
      <point x="113" y="67" type="curve" smooth="yes"/>
      <point x="113" y="707" type="line" smooth="yes"/>
      <point x="113" y="761"/>
      <point x="123" y="778"/>
      <point x="180" y="778" type="curve" smooth="yes"/>
      <point x="545" y="778" type="line" smooth="yes"/>
      <point x="577" y="778"/>
      <point x="607" y="765"/>
      <point x="607" y="728" type="curve" smooth="yes"/>
      <point x="607" y="692"/>
      <point x="579" y="678"/>
      <point x="547" y="678" type="curve" smooth="yes"/>
      <point x="365" y="678" type="line"/>
    </contour>
    <contour>
      <point x="213" y="100" type="line"/>
      <point x="265" y="100" type="line"/>
      <point x="265" y="678" type="line"/>
      <point x="213" y="678" type="line"/>
    </contour>
  </outline>
</glyph>
<glyph name="bracketright" format="1">
  <advance width="720"/>
  <unicode hex="005D"/>
  <outline>
    <contour>
      <point x="175" y="100" type="curve" smooth="yes"/>
      <point x="355" y="100" type="line"/>
      <point x="355" y="678" type="line"/>
      <point x="173" y="678" type="line" smooth="yes"/>
      <point x="141" y="678"/>
      <point x="113" y="692"/>
      <point x="113" y="728" type="curve" smooth="yes"/>
      <point x="113" y="765"/>
      <point x="143" y="778"/>
      <point x="175" y="778" type="curve" smooth="yes"/>
      <point x="540" y="778" type="line" smooth="yes"/>
      <point x="597" y="778"/>
      <point x="607" y="761"/>
      <point x="607" y="707" type="curve" smooth="yes"/>
      <point x="607" y="67" type="line" smooth="yes"/>
      <point x="607" y="10"/>
      <point x="591" y="0"/>
      <point x="536" y="0" type="curve" smooth="yes"/>
      <point x="173" y="0" type="line" smooth="yes"/>
      <point x="141" y="0"/>
      <point x="113" y="14"/>
      <point x="113" y="50" type="curve" smooth="yes"/>
      <point x="113" y="87"/>
      <point x="143" y="100"/>
    </contour>
    <contour>
      <point x="455" y="100" type="line"/>
      <point x="507" y="100" type="line"/>
      <point x="507" y="678" type="line"/>
      <point x="455" y="678" type="line"/>
    </contour>
  </outline>
</glyph>
<glyph name="asciicircum" format="1">
  <advance width="720"/>
  <unicode hex="005E"/>
  <outline>
    <contour>
      <point x="360" y="402" type="line"/>
      <point x="219" y="195" type="line" smooth="yes"/>
      <point x="206" y="176"/>
      <point x="196" y="162"/>
      <point x="170" y="162" type="curve" smooth="yes"/>
      <point x="147" y="162"/>
      <point x="127" y="181"/>
      <point x="127" y="205" type="curve" smooth="yes"/>
      <point x="127" y="222"/>
      <point x="136" y="237"/>
      <point x="144" y="252" type="curve" smooth="yes"/>
      <point x="307" y="562" type="line" smooth="yes"/>
      <point x="319" y="586"/>
      <point x="329" y="608"/>
      <point x="360" y="608" type="curve" smooth="yes"/>
      <point x="392" y="608"/>
      <point x="401" y="586"/>
      <point x="414" y="562" type="curve" smooth="yes"/>
      <point x="577" y="252" type="line" smooth="yes"/>
      <point x="585" y="237"/>
      <point x="593" y="222"/>
      <point x="593" y="205" type="curve" smooth="yes"/>
      <point x="593" y="181"/>
      <point x="573" y="162"/>
      <point x="550" y="162" type="curve" smooth="yes"/>
      <point x="525" y="162"/>
      <point x="515" y="176"/>
      <point x="502" y="195" type="curve" smooth="yes"/>
    </contour>
  </outline>
</glyph>
<glyph name="b" format="1">
  <advance width="720"/>
  <unicode hex="0062"/>
  <outline>
    <contour>
      <point x="221" y="671" type="curve" smooth="yes"/>
      <point x="221" y="469" type="line"/>
      <point x="238" y="486" type="line" smooth="yes"/>
      <point x="270" y="518"/>
      <point x="289" y="539"/>
      <point x="333" y="539" type="curve" smooth="yes"/>
      <point x="439" y="539" type="line" smooth="yes"/>
      <point x="464" y="539"/>
      <point x="486" y="525"/>
      <point x="510" y="505" type="curve" smooth="yes"/>
      <point x="543" y="477" type="line" smooth="yes"/>
      <point x="581" y="444"/>
      <point x="595" y="417"/>
      <point x="595" y="366" type="curve" smooth="yes"/>
      <point x="595" y="173" type="line" smooth="yes"/>
      <point x="595" y="122"/>
      <point x="581" y="95"/>
      <point x="543" y="62" type="curve" smooth="yes"/>
      <point x="510" y="34" type="line" smooth="yes"/>
      <point x="487" y="15"/>
      <point x="459" y="0"/>
      <point x="435" y="0" type="curve" smooth="yes"/>
      <point x="336" y="0" type="line" smooth="yes"/>
      <point x="297" y="0"/>
      <point x="270" y="24"/>
      <point x="243" y="49" type="curve" smooth="yes"/>
      <point x="221" y="70" type="line"/>
      <point x="221" y="64" type="line" smooth="yes"/>
      <point x="221" y="33"/>
      <point x="211" y="0"/>
      <point x="173" y="0" type="curve" smooth="yes"/>
      <point x="132" y="0"/>
      <point x="125" y="34"/>
      <point x="125" y="67" type="curve" smooth="yes"/>
      <point x="125" y="671" type="line" smooth="yes"/>
      <point x="125" y="704"/>
      <point x="132" y="737"/>
      <point x="173" y="737" type="curve" smooth="yes"/>
      <point x="214" y="737"/>
      <point x="221" y="704"/>
    </contour>
    <contour>
      <point x="221" y="315" type="curve" smooth="yes"/>
      <point x="221" y="231" type="line" smooth="yes"/>
      <point x="221" y="200"/>
      <point x="225" y="188"/>
      <point x="250" y="167" type="curve" smooth="yes"/>
      <point x="305" y="120" type="line" smooth="yes"/>
      <point x="317" y="110"/>
      <point x="332" y="96"/>
      <point x="342" y="96" type="curve" smooth="yes"/>
      <point x="415" y="96" type="line" smooth="yes"/>
      <point x="429" y="96"/>
      <point x="438" y="99"/>
      <point x="445" y="105" type="curve" smooth="yes"/>
      <point x="487" y="140" type="line" smooth="yes"/>
      <point x="498" y="149"/>
      <point x="499" y="172"/>
      <point x="499" y="191" type="curve" smooth="yes"/>
      <point x="499" y="361" type="line" smooth="yes"/>
      <point x="499" y="380"/>
      <point x="494" y="395"/>
      <point x="486" y="401" type="curve" smooth="yes"/>
      <point x="442" y="435" type="line" smooth="yes"/>
      <point x="436" y="440"/>
      <point x="429" y="443"/>
      <point x="419" y="443" type="curve" smooth="yes"/>
      <point x="352" y="443" type="line" smooth="yes"/>
      <point x="339" y="443"/>
      <point x="323" y="436"/>
      <point x="312" y="426" type="curve" smooth="yes"/>
      <point x="250" y="372" type="line" smooth="yes"/>
      <point x="234" y="359"/>
      <point x="221" y="344"/>
    </contour>
  </outline>
</glyph>
<glyph name="h" format="1">
  <advance width="720"/>
  <unicode hex="0068"/>
  <outline>
    <contour>
      <point x="437" y="443" type="curve" smooth="yes"/>
      <point x="393" y="443" type="line" smooth="yes"/>
      <point x="383" y="443"/>
      <point x="373" y="440"/>
      <point x="363" y="434" type="curve" smooth="yes"/>
      <point x="221" y="345" type="line"/>
      <point x="221" y="66" type="line" smooth="yes"/>
      <point x="221" y="33"/>
      <point x="214" y="0"/>
      <point x="173" y="0" type="curve" smooth="yes"/>
      <point x="132" y="0"/>
      <point x="125" y="33"/>
      <point x="125" y="66" type="curve" smooth="yes"/>
      <point x="125" y="671" type="line" smooth="yes"/>
      <point x="125" y="704"/>
      <point x="132" y="737"/>
      <point x="173" y="737" type="curve" smooth="yes"/>
      <point x="214" y="737"/>
      <point x="221" y="704"/>
      <point x="221" y="671" type="curve" smooth="yes"/>
      <point x="221" y="456" type="line"/>
      <point x="299" y="507" type="line" smooth="yes"/>
      <point x="324" y="523"/>
      <point x="353" y="539"/>
      <point x="385" y="539" type="curve" smooth="yes"/>
      <point x="449" y="539" type="line" smooth="yes"/>
      <point x="468" y="539"/>
      <point x="502" y="539"/>
      <point x="542" y="504" type="curve" smooth="yes"/>
      <point x="585" y="467"/>
      <point x="583" y="426"/>
      <point x="585" y="374" type="curve" smooth="yes"/>
      <point x="595" y="72" type="line" smooth="yes"/>
      <point x="596" y="38"/>
      <point x="591" y="0"/>
      <point x="548" y="0" type="curve" smooth="yes"/>
      <point x="509" y="0"/>
      <point x="501" y="33"/>
      <point x="500" y="65" type="curve" smooth="yes"/>
      <point x="490" y="361" type="line" smooth="yes"/>
      <point x="488" y="407"/>
      <point x="491" y="443"/>
    </contour>
  </outline>
</glyph>
<glyph name="i" format="1">
  <advance width="720"/>
  <unicode hex="0069"/>
  <outline>
    <contour>
      <point x="410" y="472" type="curve" smooth="yes"/>
      <point x="410" y="96" type="line"/>
      <point x="482" y="96" type="line" smooth="yes"/>
      <point x="514" y="96"/>
      <point x="548" y="89"/>
      <point x="548" y="48" type="curve" smooth="yes"/>
      <point x="548" y="6"/>
      <point x="510" y="0"/>
      <point x="482" y="0" type="curve" smooth="yes"/>
      <point x="238" y="0" type="line" smooth="yes"/>
      <point x="210" y="0"/>
      <point x="172" y="6"/>
      <point x="172" y="48" type="curve" smooth="yes"/>
      <point x="172" y="89"/>
      <point x="206" y="96"/>
      <point x="238" y="96" type="curve" smooth="yes"/>
      <point x="314" y="96" type="line"/>
      <point x="314" y="443" type="line"/>
      <point x="238" y="443" type="line" smooth="yes"/>
      <point x="210" y="443"/>
      <point x="172" y="449"/>
      <point x="172" y="491" type="curve" smooth="yes"/>
      <point x="172" y="532"/>
      <point x="206" y="539"/>
      <point x="238" y="539" type="curve" smooth="yes"/>
      <point x="339" y="539" type="line" smooth="yes"/>
      <point x="394" y="539"/>
      <point x="410" y="529"/>
    </contour>
    <contour>
      <point x="265" y="687" type="curve" smooth="yes"/>
      <point x="265" y="733" type="line" smooth="yes"/>
      <point x="265" y="767"/>
      <point x="284" y="778"/>
      <point x="310" y="778" type="curve" smooth="yes"/>
      <point x="365" y="778" type="line" smooth="yes"/>
      <point x="391" y="778"/>
      <point x="410" y="767"/>
      <point x="410" y="733" type="curve" smooth="yes"/>
      <point x="410" y="687" type="line" smooth="yes"/>
      <point x="410" y="653"/>
      <point x="391" y="642"/>
      <point x="365" y="642" type="curve" smooth="yes"/>
      <point x="310" y="642" type="line" smooth="yes"/>
      <point x="284" y="642"/>
      <point x="265" y="653"/>
    </contour>
  </outline>
</glyph>
<glyph name="k" format="1">
  <advance width="720"/>
  <unicode hex="006B"/>
  <outline>
    <contour>
      <point x="221" y="315" type="line"/>
      <point x="441" y="500" type="line" smooth="yes"/>
      <point x="458" y="515"/>
      <point x="482" y="539"/>
      <point x="505" y="539" type="curve" smooth="yes"/>
      <point x="532" y="539"/>
      <point x="553" y="517"/>
      <point x="553" y="490" type="curve" smooth="yes"/>
      <point x="553" y="467"/>
      <point x="538" y="456"/>
      <point x="521" y="442" type="curve" smooth="yes"/>
      <point x="335" y="288" type="line"/>
      <point x="561" y="100" type="line" smooth="yes"/>
      <point x="579" y="85"/>
      <point x="595" y="74"/>
      <point x="595" y="49" type="curve" smooth="yes"/>
      <point x="595" y="22"/>
      <point x="574" y="0"/>
      <point x="547" y="0" type="curve" smooth="yes"/>
      <point x="528" y="0"/>
      <point x="516" y="12"/>
      <point x="502" y="23" type="curve" smooth="yes"/>
      <point x="261" y="224" type="line"/>
      <point x="221" y="188" type="line"/>
      <point x="221" y="66" type="line" smooth="yes"/>
      <point x="221" y="33"/>
      <point x="214" y="0"/>
      <point x="173" y="0" type="curve" smooth="yes"/>
      <point x="132" y="0"/>
      <point x="125" y="33"/>
      <point x="125" y="66" type="curve" smooth="yes"/>
      <point x="125" y="671" type="line" smooth="yes"/>
      <point x="125" y="704"/>
      <point x="132" y="737"/>
      <point x="173" y="737" type="curve" smooth="yes"/>
      <point x="214" y="737"/>
      <point x="221" y="704"/>
      <point x="221" y="671" type="curve" smooth="yes"/>
    </contour>
  </outline>
</glyph>
<glyph name="l" format="1">
  <advance width="720"/>
  <unicode hex="006C"/>
  <outline>
    <contour>
      <point x="410" y="670" type="curve" smooth="yes"/>
      <point x="410" y="96" type="line"/>
      <point x="482" y="96" type="line" smooth="yes"/>
      <point x="514" y="96"/>
      <point x="548" y="89"/>
      <point x="548" y="48" type="curve" smooth="yes"/>
      <point x="548" y="6"/>
      <point x="510" y="0"/>
      <point x="482" y="0" type="curve" smooth="yes"/>
      <point x="238" y="0" type="line" smooth="yes"/>
      <point x="210" y="0"/>
      <point x="172" y="6"/>
      <point x="172" y="48" type="curve" smooth="yes"/>
      <point x="172" y="89"/>
      <point x="206" y="96"/>
      <point x="238" y="96" type="curve" smooth="yes"/>
      <point x="314" y="96" type="line"/>
      <point x="314" y="641" type="line"/>
      <point x="238" y="641" type="line" smooth="yes"/>
      <point x="210" y="641"/>
      <point x="172" y="647"/>
      <point x="172" y="689" type="curve" smooth="yes"/>
      <point x="172" y="730"/>
      <point x="206" y="737"/>
      <point x="238" y="737" type="curve" smooth="yes"/>
      <point x="339" y="737" type="line" smooth="yes"/>
      <point x="394" y="737"/>
      <point x="410" y="727"/>
    </contour>
  </outline>
</glyph>
<glyph name="n" format="1">
  <advance width="720"/>
  <unicode hex="006E"/>
  <outline>
    <contour>
      <point x="363" y="434" type="curve" smooth="yes"/>
      <point x="221" y="345" type="line"/>
      <point x="221" y="66" type="line" smooth="yes"/>
      <point x="221" y="33"/>
      <point x="214" y="0"/>
      <point x="173" y="0" type="curve" smooth="yes"/>
      <point x="132" y="0"/>
      <point x="125" y="33"/>
      <point x="125" y="66" type="curve" smooth="yes"/>
      <point x="125" y="468" type="line" smooth="yes"/>
      <point x="125" y="503"/>
      <point x="129" y="539"/>
      <point x="173" y="539" type="curve" smooth="yes"/>
      <point x="216" y="539"/>
      <point x="221" y="503"/>
      <point x="221" y="469" type="curve" smooth="yes"/>
      <point x="221" y="458" type="line"/>
      <point x="221" y="456" type="line"/>
      <point x="299" y="507" type="line" smooth="yes"/>
      <point x="324" y="523"/>
      <point x="351" y="539"/>
      <point x="382" y="539" type="curve" smooth="yes"/>
      <point x="453" y="539" type="line" smooth="yes"/>
      <point x="490" y="539"/>
      <point x="513" y="529"/>
      <point x="542" y="504" type="curve" smooth="yes"/>
      <point x="585" y="467"/>
      <point x="583" y="426"/>
      <point x="585" y="374" type="curve" smooth="yes"/>
      <point x="595" y="72" type="line" smooth="yes"/>
      <point x="596" y="38"/>
      <point x="591" y="0"/>
      <point x="548" y="0" type="curve" smooth="yes"/>
      <point x="509" y="0"/>
      <point x="501" y="33"/>
      <point x="500" y="65" type="curve" smooth="yes"/>
      <point x="490" y="361" type="line" smooth="yes"/>
      <point x="488" y="420"/>
      <point x="483" y="443"/>
      <point x="425" y="443" type="curve" smooth="yes"/>
      <point x="393" y="443" type="line" smooth="yes"/>
      <point x="383" y="443"/>
      <point x="373" y="440"/>
    </contour>
  </outline>
</glyph>
<glyph name="p" format="1">
  <advance width="720"/>
  <unicode hex="0070"/>
  <outline>
    <contour>
      <point x="595" y="311" type="curve" smooth="yes"/>
      <point x="595" y="208" type="line" smooth="yes"/>
      <point x="595" y="139"/>
      <point x="590" y="113"/>
      <point x="534" y="69" type="curve" smooth="yes"/>
      <point x="476" y="23" type="line" smooth="yes"/>
      <point x="456" y="7"/>
      <point x="425" y="-20"/>
      <point x="399" y="-20" type="curve" smooth="yes"/>
      <point x="334" y="-20" type="line" smooth="yes"/>
      <point x="291" y="-20"/>
      <point x="271" y="8"/>
      <point x="240" y="37" type="curve" smooth="yes"/>
      <point x="221" y="55" type="line"/>
      <point x="221" y="-138" type="line" smooth="yes"/>
      <point x="221" y="-171"/>
      <point x="214" y="-204"/>
      <point x="173" y="-204" type="curve" smooth="yes"/>
      <point x="132" y="-204"/>
      <point x="125" y="-171"/>
      <point x="125" y="-138" type="curve" smooth="yes"/>
      <point x="125" y="468" type="line" smooth="yes"/>
      <point x="125" y="502"/>
      <point x="129" y="539"/>
      <point x="173" y="539" type="curve" smooth="yes"/>
      <point x="212" y="539"/>
      <point x="221" y="508"/>
      <point x="221" y="476" type="curve" smooth="yes"/>
      <point x="221" y="464" type="line"/>
      <point x="240" y="481" type="line" smooth="yes"/>
      <point x="265" y="503"/>
      <point x="303" y="539"/>
      <point x="330" y="539" type="curve" smooth="yes"/>
      <point x="396" y="539" type="line" smooth="yes"/>
      <point x="419" y="539"/>
      <point x="450" y="515"/>
      <point x="476" y="495" type="curve" smooth="yes"/>
      <point x="534" y="450" type="line" smooth="yes"/>
      <point x="590" y="406"/>
      <point x="595" y="379"/>
    </contour>
    <contour>
      <point x="499" y="195" type="curve" smooth="yes"/>
      <point x="499" y="324" type="line" smooth="yes"/>
      <point x="499" y="342"/>
      <point x="494" y="353"/>
      <point x="479" y="366" type="curve" smooth="yes"/>
      <point x="407" y="426" type="line" smooth="yes"/>
      <point x="398" y="434"/>
      <point x="387" y="443"/>
      <point x="374" y="443" type="curve" smooth="yes"/>
      <point x="349" y="443" type="line" smooth="yes"/>
      <point x="335" y="443"/>
      <point x="318" y="425"/>
      <point x="308" y="415" type="curve" smooth="yes"/>
      <point x="248" y="358" type="line" smooth="yes"/>
      <point x="228" y="339"/>
      <point x="221" y="328"/>
      <point x="221" y="307" type="curve" smooth="yes"/>
      <point x="221" y="213" type="line" smooth="yes"/>
      <point x="221" y="199"/>
      <point x="225" y="181"/>
      <point x="235" y="172" type="curve" smooth="yes"/>
      <point x="308" y="103" type="line" smooth="yes"/>
      <point x="322" y="89"/>
      <point x="337" y="76"/>
      <point x="349" y="76" type="curve" smooth="yes"/>
      <point x="374" y="76" type="line" smooth="yes"/>
      <point x="387" y="76"/>
      <point x="398" y="85"/>
      <point x="407" y="93" type="curve" smooth="yes"/>
      <point x="479" y="153" type="line" smooth="yes"/>
      <point x="494" y="166"/>
      <point x="499" y="177"/>
    </contour>
  </outline>
</glyph>
<glyph name="q" format="1">
  <advance width="720"/>
  <unicode hex="0071"/>
  <outline>
    <contour>
      <point x="595" y="472" type="curve" smooth="yes"/>
      <point x="595" y="-138" type="line" smooth="yes"/>
      <point x="595" y="-171"/>
      <point x="588" y="-204"/>
      <point x="547" y="-204" type="curve" smooth="yes"/>
      <point x="506" y="-204"/>
      <point x="499" y="-171"/>
      <point x="499" y="-138" type="curve" smooth="yes"/>
      <point x="499" y="70" type="line"/>
      <point x="482" y="53" type="line" smooth="yes"/>
      <point x="456" y="27"/>
      <point x="430" y="0"/>
      <point x="387" y="0" type="curve" smooth="yes"/>
      <point x="302" y="0" type="line" smooth="yes"/>
      <point x="261" y="0"/>
      <point x="241" y="8"/>
      <point x="210" y="34" type="curve" smooth="yes"/>
      <point x="177" y="62" type="line" smooth="yes"/>
      <point x="137" y="96"/>
      <point x="125" y="122"/>
      <point x="125" y="173" type="curve" smooth="yes"/>
      <point x="125" y="366" type="line" smooth="yes"/>
      <point x="125" y="417"/>
      <point x="137" y="443"/>
      <point x="177" y="477" type="curve" smooth="yes"/>
      <point x="210" y="505" type="line" smooth="yes"/>
      <point x="240" y="531"/>
      <point x="262" y="539"/>
      <point x="302" y="539" type="curve" smooth="yes"/>
      <point x="385" y="539" type="line" smooth="yes"/>
      <point x="417" y="539"/>
      <point x="447" y="519"/>
      <point x="477" y="490" type="curve" smooth="yes"/>
      <point x="499" y="469" type="line"/>
      <point x="499" y="475" type="line" smooth="yes"/>
      <point x="499" y="507"/>
      <point x="508" y="539"/>
      <point x="547" y="539" type="curve" smooth="yes"/>
      <point x="588" y="539"/>
      <point x="595" y="505"/>
    </contour>
    <contour>
      <point x="499" y="209" type="curve" smooth="yes"/>
      <point x="499" y="329" type="line" smooth="yes"/>
      <point x="499" y="351"/>
      <point x="484" y="360"/>
      <point x="470" y="372" type="curve" smooth="yes"/>
      <point x="415" y="419" type="line" smooth="yes"/>
      <point x="397" y="435"/>
      <point x="388" y="443"/>
      <point x="367" y="443" type="curve" smooth="yes"/>
      <point x="309" y="443" type="line" smooth="yes"/>
      <point x="291" y="443"/>
      <point x="276" y="436"/>
      <point x="259" y="422" type="curve" smooth="yes"/>
      <point x="237" y="404"/>
      <point x="221" y="390"/>
      <point x="221" y="366" type="curve" smooth="yes"/>
      <point x="221" y="173" type="line" smooth="yes"/>
      <point x="221" y="149"/>
      <point x="237" y="135"/>
      <point x="259" y="117" type="curve" smooth="yes"/>
      <point x="276" y="103"/>
      <point x="291" y="96"/>
      <point x="309" y="96" type="curve" smooth="yes"/>
      <point x="367" y="96" type="line" smooth="yes"/>
      <point x="388" y="96"/>
      <point x="397" y="105"/>
      <point x="415" y="120" type="curve" smooth="yes"/>
      <point x="470" y="167" type="line" smooth="yes"/>
      <point x="484" y="179"/>
      <point x="499" y="188"/>
    </contour>
  </outline>
</glyph>
<glyph name="r" format="1">
  <advance width="720"/>
  <unicode hex="0072"/>
  <outline>
    <contour>
      <point x="125" y="66" type="curve" smooth="yes"/>
      <point x="125" y="468" type="line" smooth="yes"/>
      <point x="125" y="503"/>
      <point x="129" y="539"/>
      <point x="173" y="539" type="curve" smooth="yes"/>
      <point x="211" y="539"/>
      <point x="221" y="507"/>
      <point x="221" y="475" type="curve" smooth="yes"/>
      <point x="221" y="436" type="line"/>
      <point x="296" y="498" type="line" smooth="yes"/>
      <point x="323" y="520"/>
      <point x="351" y="539"/>
      <point x="381" y="539" type="curve" smooth="yes"/>
      <point x="458" y="539" type="line" smooth="yes"/>
      <point x="495" y="539"/>
      <point x="526" y="527"/>
      <point x="552" y="501" type="curve" smooth="yes"/>
      <point x="584" y="469"/>
      <point x="595" y="436"/>
      <point x="595" y="392" type="curve" smooth="yes"/>
      <point x="595" y="359"/>
      <point x="589" y="325"/>
      <point x="548" y="325" type="curve" smooth="yes"/>
      <point x="513" y="325"/>
      <point x="499" y="353"/>
      <point x="499" y="384" type="curve" smooth="yes"/>
      <point x="499" y="400"/>
      <point x="499" y="412"/>
      <point x="489" y="426" type="curve" smooth="yes"/>
      <point x="477" y="443"/>
      <point x="454" y="443"/>
      <point x="431" y="443" type="curve" smooth="yes"/>
      <point x="403" y="443" type="line" smooth="yes"/>
      <point x="385" y="443"/>
      <point x="372" y="434"/>
      <point x="355" y="420" type="curve" smooth="yes"/>
      <point x="221" y="309" type="line"/>
      <point x="221" y="66" type="line" smooth="yes"/>
      <point x="221" y="33"/>
      <point x="214" y="0"/>
      <point x="173" y="0" type="curve" smooth="yes"/>
      <point x="132" y="0"/>
      <point x="125" y="33"/>
    </contour>
  </outline>
</glyph>
<glyph name="t" format="1">
  <advance width="720"/>
  <unicode hex="0074"/>
  <outline>
    <contour>
      <point x="318" y="443" type="line"/>
      <point x="318" y="181" type="line" smooth="yes"/>
      <point x="318" y="127"/>
      <point x="316" y="96"/>
      <point x="382" y="96" type="curve" smooth="yes"/>
      <point x="431" y="96" type="line" smooth="yes"/>
      <point x="470" y="96"/>
      <point x="488" y="99"/>
      <point x="498" y="138" type="curve" smooth="yes"/>
      <point x="504" y="161"/>
      <point x="522" y="177"/>
      <point x="546" y="177" type="curve" smooth="yes"/>
      <point x="573" y="177"/>
      <point x="595" y="156"/>
      <point x="595" y="129" type="curve" smooth="yes"/>
      <point x="595" y="102"/>
      <point x="578" y="68"/>
      <point x="562" y="49" type="curve" smooth="yes"/>
      <point x="527" y="7"/>
      <point x="481" y="0"/>
      <point x="430" y="0" type="curve" smooth="yes"/>
      <point x="381" y="0" type="line" smooth="yes"/>
      <point x="333" y="0"/>
      <point x="291" y="11"/>
      <point x="257" y="48" type="curve" smooth="yes"/>
      <point x="220" y="89"/>
      <point x="222" y="130"/>
      <point x="222" y="182" type="curve" smooth="yes"/>
      <point x="222" y="443" type="line"/>
      <point x="191" y="443" type="line" smooth="yes"/>
      <point x="163" y="443"/>
      <point x="125" y="449"/>
      <point x="125" y="491" type="curve" smooth="yes"/>
      <point x="125" y="532"/>
      <point x="159" y="539"/>
      <point x="191" y="539" type="curve" smooth="yes"/>
      <point x="222" y="539" type="line"/>
      <point x="222" y="637" type="line" smooth="yes"/>
      <point x="222" y="670"/>
      <point x="229" y="703"/>
      <point x="270" y="703" type="curve" smooth="yes"/>
      <point x="311" y="703"/>
      <point x="318" y="670"/>
      <point x="318" y="637" type="curve" smooth="yes"/>
      <point x="318" y="539" type="line"/>
      <point x="479" y="539" type="line" smooth="yes"/>
      <point x="511" y="539"/>
      <point x="545" y="532"/>
      <point x="545" y="491" type="curve" smooth="yes"/>
      <point x="545" y="449"/>
      <point x="507" y="443"/>
      <point x="479" y="443" type="curve" smooth="yes"/>
    </contour>
  </outline>
</glyph>
<glyph name="w" format="1">
  <advance width="720"/>
  <unicode hex="0077"/>
  <outline>
    <contour>
      <point x="408" y="310" type="curve" smooth="yes"/>
      <point x="408" y="222" type="line"/>
      <point x="460" y="133" type="line"/>
      <point x="490" y="222" type="line"/>
      <point x="500" y="470" type="line" smooth="yes"/>
      <point x="501" y="503"/>
      <point x="507" y="539"/>
      <point x="548" y="539" type="curve" smooth="yes"/>
      <point x="590" y="539"/>
      <point x="596" y="503"/>
      <point x="595" y="470" type="curve" smooth="yes"/>
      <point x="585" y="203" type="line"/>
      <point x="538" y="61" type="line" smooth="yes"/>
      <point x="528" y="32"/>
      <point x="523" y="0"/>
      <point x="489" y="0" type="curve" smooth="yes"/>
      <point x="452" y="0" type="line" smooth="yes"/>
      <point x="435" y="0"/>
      <point x="421" y="18"/>
      <point x="412" y="31" type="curve" smooth="yes"/>
      <point x="360" y="109" type="line"/>
      <point x="308" y="31" type="line" smooth="yes"/>
      <point x="299" y="18"/>
      <point x="285" y="0"/>
      <point x="268" y="0" type="curve" smooth="yes"/>
      <point x="231" y="0" type="line" smooth="yes"/>
      <point x="197" y="0"/>
      <point x="192" y="32"/>
      <point x="182" y="61" type="curve" smooth="yes"/>
      <point x="135" y="203" type="line"/>
      <point x="125" y="470" type="line" smooth="yes"/>
      <point x="124" y="503"/>
      <point x="130" y="539"/>
      <point x="172" y="539" type="curve" smooth="yes"/>
      <point x="213" y="539"/>
      <point x="219" y="503"/>
      <point x="220" y="470" type="curve" smooth="yes"/>
      <point x="230" y="222" type="line"/>
      <point x="260" y="133" type="line"/>
      <point x="312" y="222" type="line"/>
      <point x="312" y="310" type="line" smooth="yes"/>
      <point x="312" y="343"/>
      <point x="319" y="377"/>
      <point x="360" y="377" type="curve" smooth="yes"/>
      <point x="401" y="377"/>
      <point x="408" y="343"/>
    </contour>
  </outline>
</glyph>
<glyph name="y" format="1">
  <advance width="720"/>
  <unicode hex="0079"/>
  <outline>
    <contour>
      <point x="371" y="135" type="line"/>
      <point x="499" y="418" type="line"/>
      <point x="499" y="473" type="line" smooth="yes"/>
      <point x="499" y="506"/>
      <point x="506" y="539"/>
      <point x="547" y="539" type="curve" smooth="yes"/>
      <point x="588" y="539"/>
      <point x="595" y="506"/>
      <point x="595" y="473" type="curve" smooth="yes"/>
      <point x="595" y="434" type="line" smooth="yes"/>
      <point x="595" y="410"/>
      <point x="593" y="394"/>
      <point x="583" y="373" type="curve" smooth="yes"/>
      <point x="341" y="-154" type="line" smooth="yes"/>
      <point x="320" y="-199"/>
      <point x="309" y="-204"/>
      <point x="265" y="-204" type="curve" smooth="yes"/>
      <point x="191" y="-204" type="line" smooth="yes"/>
      <point x="163" y="-204"/>
      <point x="125" y="-198"/>
      <point x="125" y="-156" type="curve" smooth="yes"/>
      <point x="125" y="-115"/>
      <point x="159" y="-108"/>
      <point x="191" y="-108" type="curve" smooth="yes"/>
      <point x="257" y="-108" type="line"/>
      <point x="328" y="39" type="line"/>
      <point x="323" y="39" type="line" smooth="yes"/>
      <point x="283" y="39"/>
      <point x="281" y="57"/>
      <point x="266" y="90" type="curve" smooth="yes"/>
      <point x="148" y="351" type="line" smooth="yes"/>
      <point x="135" y="380"/>
      <point x="125" y="402"/>
      <point x="125" y="430" type="curve" smooth="yes"/>
      <point x="125" y="473" type="line" smooth="yes"/>
      <point x="125" y="506"/>
      <point x="132" y="539"/>
      <point x="173" y="539" type="curve" smooth="yes"/>
      <point x="214" y="539"/>
      <point x="221" y="506"/>
      <point x="221" y="473" type="curve" smooth="yes"/>
      <point x="221" y="418" type="line"/>
      <point x="350" y="135" type="line"/>
    </contour>
  </outline>
</glyph>
<glyph name="z" format="1">
  <advance width="720"/>
  <unicode hex="007A"/>
  <outline>
    <contour>
      <point x="143" y="127" type="curve" smooth="yes"/>
      <point x="474" y="443" type="line"/>
      <point x="218" y="443" type="line" smooth="yes"/>
      <point x="190" y="443"/>
      <point x="152" y="449"/>
      <point x="152" y="491" type="curve" smooth="yes"/>
      <point x="152" y="532"/>
      <point x="186" y="539"/>
      <point x="218" y="539" type="curve" smooth="yes"/>
      <point x="530" y="539" type="line" smooth="yes"/>
      <point x="579" y="539"/>
      <point x="595" y="523"/>
      <point x="595" y="489" type="curve" smooth="yes"/>
      <point x="595" y="457" type="line" smooth="yes"/>
      <point x="595" y="438"/>
      <point x="589" y="424"/>
      <point x="567" y="403" type="curve" smooth="yes"/>
      <point x="245" y="96" type="line"/>
      <point x="529" y="96" type="line" smooth="yes"/>
      <point x="561" y="96"/>
      <point x="595" y="89"/>
      <point x="595" y="48" type="curve" smooth="yes"/>
      <point x="595" y="6"/>
      <point x="557" y="0"/>
      <point x="529" y="0" type="curve" smooth="yes"/>
      <point x="196" y="0" type="line" smooth="yes"/>
      <point x="129" y="0"/>
      <point x="125" y="28"/>
      <point x="125" y="56" type="curve" smooth="yes"/>
      <point x="125" y="81" type="line" smooth="yes"/>
      <point x="125" y="104"/>
      <point x="126" y="111"/>
    </contour>
  </outline>
</glyph>
<glyph name="braceleft" format="1">
  <advance width="720"/>
  <unicode hex="007B"/>
  <outline>
    <contour>
      <point x="410" y="100" type="line"/>
      <point x="557" y="100" type="line" smooth="yes"/>
      <point x="583" y="100"/>
      <point x="607" y="86"/>
      <point x="607" y="50" type="curve" smooth="yes"/>
      <point x="607" y="14"/>
      <point x="583" y="0"/>
      <point x="557" y="0" type="curve" smooth="yes"/>
      <point x="421" y="0" type="line" smooth="yes"/>
      <point x="384" y="0"/>
      <point x="357" y="7"/>
      <point x="332" y="37" type="curve" smooth="yes"/>
      <point x="311" y="62"/>
      <point x="310" y="81"/>
      <point x="310" y="112" type="curve" smooth="yes"/>
      <point x="310" y="270" type="line" smooth="yes"/>
      <point x="310" y="322"/>
      <point x="297" y="339"/>
      <point x="244" y="339" type="curve" smooth="yes"/>
      <point x="163" y="339" type="line" smooth="yes"/>
      <point x="137" y="339"/>
      <point x="113" y="353"/>
      <point x="113" y="389" type="curve" smooth="yes"/>
      <point x="113" y="425"/>
      <point x="137" y="439"/>
      <point x="163" y="439" type="curve" smooth="yes"/>
      <point x="244" y="439" type="line" smooth="yes"/>
      <point x="297" y="439"/>
      <point x="310" y="456"/>
      <point x="310" y="508" type="curve" smooth="yes"/>
      <point x="310" y="666" type="line" smooth="yes"/>
      <point x="310" y="697"/>
      <point x="311" y="716"/>
      <point x="332" y="741" type="curve" smooth="yes"/>
      <point x="357" y="771"/>
      <point x="384" y="778"/>
      <point x="421" y="778" type="curve" smooth="yes"/>
      <point x="557" y="778" type="line" smooth="yes"/>
      <point x="583" y="778"/>
      <point x="607" y="764"/>
      <point x="607" y="728" type="curve" smooth="yes"/>
      <point x="607" y="692"/>
      <point x="583" y="678"/>
      <point x="557" y="678" type="curve" smooth="yes"/>
      <point x="410" y="678" type="line"/>
      <point x="410" y="499" type="line" smooth="yes"/>
      <point x="410" y="456"/>
      <point x="401" y="420"/>
      <point x="370" y="389" type="curve"/>
      <point x="400" y="356"/>
      <point x="410" y="320"/>
      <point x="410" y="278" type="curve" smooth="yes"/>
    </contour>
  </outline>
</glyph>
<glyph name="bar" format="1">
  <advance width="720"/>
  <unicode hex="007C"/>
  <outline>
    <contour>
      <point x="410" y="-239" type="line"/>
      <point x="310" y="-239" type="line"/>
      <point x="310" y="813" type="line"/>
      <point x="410" y="813" type="line"/>
    </contour>
  </outline>
</glyph>
<glyph name="braceright" format="1">
  <advance width="720"/>
  <unicode hex="007D"/>
  <outline>
    <contour>
      <point x="163" y="100" type="curve" smooth="yes"/>
      <point x="310" y="100" type="line"/>
      <point x="310" y="278" type="line" smooth="yes"/>
      <point x="310" y="320"/>
      <point x="320" y="356"/>
      <point x="350" y="389" type="curve"/>
      <point x="319" y="420"/>
      <point x="310" y="456"/>
      <point x="310" y="499" type="curve" smooth="yes"/>
      <point x="310" y="678" type="line"/>
      <point x="163" y="678" type="line" smooth="yes"/>
      <point x="137" y="678"/>
      <point x="113" y="692"/>
      <point x="113" y="728" type="curve" smooth="yes"/>
      <point x="113" y="764"/>
      <point x="137" y="778"/>
      <point x="163" y="778" type="curve" smooth="yes"/>
      <point x="299" y="778" type="line" smooth="yes"/>
      <point x="336" y="778"/>
      <point x="363" y="771"/>
      <point x="388" y="741" type="curve" smooth="yes"/>
      <point x="409" y="716"/>
      <point x="410" y="697"/>
      <point x="410" y="666" type="curve" smooth="yes"/>
      <point x="410" y="508" type="line" smooth="yes"/>
      <point x="410" y="456"/>
      <point x="423" y="439"/>
      <point x="476" y="439" type="curve" smooth="yes"/>
      <point x="557" y="439" type="line" smooth="yes"/>
      <point x="583" y="439"/>
      <point x="607" y="425"/>
      <point x="607" y="389" type="curve" smooth="yes"/>
      <point x="607" y="353"/>
      <point x="583" y="339"/>
      <point x="557" y="339" type="curve" smooth="yes"/>
      <point x="476" y="339" type="line" smooth="yes"/>
      <point x="423" y="339"/>
      <point x="410" y="322"/>
      <point x="410" y="270" type="curve" smooth="yes"/>
      <point x="410" y="112" type="line" smooth="yes"/>
      <point x="410" y="81"/>
      <point x="409" y="62"/>
      <point x="388" y="37" type="curve" smooth="yes"/>
      <point x="363" y="7"/>
      <point x="336" y="0"/>
      <point x="299" y="0" type="curve" smooth="yes"/>
      <point x="163" y="0" type="line" smooth="yes"/>
      <point x="137" y="0"/>
      <point x="113" y="14"/>
      <point x="113" y="50" type="curve" smooth="yes"/>
      <point x="113" y="86"/>
      <point x="137" y="100"/>
    </contour>
  </outline>
</glyph>
<glyph name="asciitilde" format="1">
  <advance width="720"/>
  <unicode hex="007E"/>
  <outline>
    <contour>
      <point x="330" y="490" type="curve" smooth="yes"/>
      <point x="445" y="376" type="line" smooth="yes"/>
      <point x="458" y="363"/>
      <point x="466" y="355"/>
      <point x="482" y="355" type="curve" smooth="yes"/>
      <point x="519" y="355" type="line" smooth="yes"/>
      <point x="527" y="355"/>
      <point x="531" y="359"/>
      <point x="531" y="367" type="curve" smooth="yes"/>
      <point x="531" y="429" type="line" smooth="yes"/>
      <point x="531" y="461"/>
      <point x="544" y="479"/>
      <point x="581" y="479" type="curve" smooth="yes"/>
      <point x="617" y="480"/>
      <point x="631" y="463"/>
      <point x="631" y="431" type="curve" smooth="yes"/>
      <point x="631" y="344" type="line" smooth="yes"/>
      <point x="631" y="293"/>
      <point x="598" y="257"/>
      <point x="548" y="257" type="curve" smooth="yes"/>
      <point x="465" y="257" type="line" smooth="yes"/>
      <point x="434" y="257"/>
      <point x="410" y="268"/>
      <point x="390" y="288" type="curve" smooth="yes"/>
      <point x="275" y="402" type="line" smooth="yes"/>
      <point x="262" y="415"/>
      <point x="254" y="423"/>
      <point x="238" y="423" type="curve" smooth="yes"/>
      <point x="201" y="423" type="line" smooth="yes"/>
      <point x="193" y="423"/>
      <point x="189" y="419"/>
      <point x="189" y="411" type="curve" smooth="yes"/>
      <point x="189" y="349" type="line" smooth="yes"/>
      <point x="189" y="317"/>
      <point x="176" y="299"/>
      <point x="139" y="299" type="curve" smooth="yes"/>
      <point x="103" y="298"/>
      <point x="89" y="315"/>
      <point x="89" y="347" type="curve" smooth="yes"/>
      <point x="89" y="434" type="line" smooth="yes"/>
      <point x="89" y="485"/>
      <point x="122" y="521"/>
      <point x="172" y="521" type="curve" smooth="yes"/>
      <point x="255" y="521" type="line" smooth="yes"/>
      <point x="286" y="521"/>
      <point x="310" y="510"/>
    </contour>
  </outline>
</glyph>
<glyph name="exclamdown" format="1">
  <advance width="720"/>
  <unicode hex="00A1"/>
  <outline>
    <contour>
      <point x="384" y="0" type="curve" smooth="yes"/>
      <point x="333" y="0" type="line" smooth="yes"/>
      <point x="290" y="0"/>
      <point x="288" y="26"/>
      <point x="290" y="74" type="curve" smooth="yes"/>
      <point x="308" y="417" type="line" smooth="yes"/>
      <point x="310" y="452"/>
      <point x="318" y="481"/>
      <point x="359" y="481" type="curve" smooth="yes"/>
      <point x="400" y="481"/>
      <point x="408" y="452"/>
      <point x="410" y="417" type="curve" smooth="yes"/>
      <point x="428" y="74" type="line" smooth="yes"/>
      <point x="431" y="26"/>
      <point x="427" y="0"/>
    </contour>
    <contour>
      <point x="372" y="638" type="curve" smooth="yes"/>
      <point x="346" y="638" type="line" smooth="yes"/>
      <point x="308" y="638"/>
      <point x="290" y="657"/>
      <point x="290" y="695" type="curve" smooth="yes"/>
      <point x="290" y="721" type="line" smooth="yes"/>
      <point x="290" y="759"/>
      <point x="308" y="778"/>
      <point x="346" y="778" type="curve" smooth="yes"/>
      <point x="372" y="778" type="line" smooth="yes"/>
      <point x="410" y="778"/>
      <point x="428" y="759"/>
      <point x="428" y="721" type="curve" smooth="yes"/>
      <point x="428" y="695" type="line" smooth="yes"/>
      <point x="428" y="657"/>
      <point x="410" y="638"/>
    </contour>
  </outline>
</glyph>
<glyph name="yen" format="1">
  <advance width="720"/>
  <unicode hex="00A5"/>
  <outline>
    <contour>
      <point x="409" y="354" type="line"/>
      <point x="556" y="354" type="line" smooth="yes"/>
      <point x="582" y="354"/>
      <point x="606" y="340"/>
      <point x="606" y="304" type="curve" smooth="yes"/>
      <point x="606" y="268"/>
      <point x="582" y="254"/>
      <point x="556" y="254" type="curve" smooth="yes"/>
      <point x="409" y="254" type="line"/>
      <point x="409" y="50" type="line" smooth="yes"/>
      <point x="409" y="18"/>
      <point x="395" y="0"/>
      <point x="359" y="0" type="curve" smooth="yes"/>
      <point x="323" y="0"/>
      <point x="309" y="18"/>
      <point x="309" y="50" type="curve" smooth="yes"/>
      <point x="309" y="254" type="line"/>
      <point x="162" y="254" type="line" smooth="yes"/>
      <point x="136" y="254"/>
      <point x="112" y="268"/>
      <point x="112" y="304" type="curve" smooth="yes"/>
      <point x="112" y="340"/>
      <point x="136" y="354"/>
      <point x="162" y="354" type="curve" smooth="yes"/>
      <point x="309" y="354" type="line"/>
      <point x="309" y="374" type="line"/>
      <point x="116" y="708" type="line" smooth="yes"/>
      <point x="104" y="729"/>
      <point x="121" y="769"/>
      <point x="136" y="774" type="curve" smooth="yes"/>
      <point x="170" y="786"/>
      <point x="194" y="774"/>
      <point x="209" y="748" type="curve" smooth="yes"/>
      <point x="359" y="489" type="line"/>
      <point x="509" y="748" type="line" smooth="yes"/>
      <point x="524" y="774"/>
      <point x="548" y="786"/>
      <point x="582" y="774" type="curve" smooth="yes"/>
      <point x="597" y="769"/>
      <point x="614" y="729"/>
      <point x="602" y="708" type="curve" smooth="yes"/>
      <point x="409" y="374" type="line"/>
    </contour>
  </outline>
</glyph>
<glyph name="section" format="1">
  <advance width="720"/>
  <unicode hex="00A7"/>
  <outline>
    <contour>
      <point x="381" y="671" type="line"/>
      <point x="308" y="613" type="line"/>
      <point x="587" y="267" type="line" smooth="yes"/>
      <point x="608" y="241"/>
      <point x="618" y="217"/>
      <point x="618" y="195" type="curve" smooth="yes"/>
      <point x="618" y="169"/>
      <point x="604" y="145"/>
      <point x="575" y="122" type="curve" smooth="yes"/>
      <point x="487" y="51" type="line"/>
      <point x="524" y="6" type="line" smooth="yes"/>
      <point x="535" y="-8"/>
      <point x="542" y="-24"/>
      <point x="542" y="-40" type="curve" smooth="yes"/>
      <point x="542" y="-63"/>
      <point x="530" y="-86"/>
      <point x="508" y="-104" type="curve" smooth="yes"/>
      <point x="412" y="-182" type="line" smooth="yes"/>
      <point x="394" y="-197"/>
      <point x="376" y="-204"/>
      <point x="358" y="-204" type="curve" smooth="yes"/>
      <point x="337" y="-204"/>
      <point x="318" y="-194"/>
      <point x="302" y="-175" type="curve" smooth="yes"/>
      <point x="200" y="-49" type="line" smooth="yes"/>
      <point x="189" y="-36"/>
      <point x="184" y="-23"/>
      <point x="184" y="-11" type="curve" smooth="yes"/>
      <point x="184" y="10"/>
      <point x="209" y="37"/>
      <point x="233" y="37" type="curve" smooth="yes"/>
      <point x="247" y="37"/>
      <point x="262" y="28"/>
      <point x="275" y="12" type="curve" smooth="yes"/>
      <point x="363" y="-97" type="line"/>
      <point x="436" y="-39" type="line"/>
      <point x="157" y="307" type="line" smooth="yes"/>
      <point x="136" y="333"/>
      <point x="126" y="357"/>
      <point x="126" y="379" type="curve" smooth="yes"/>
      <point x="126" y="405"/>
      <point x="140" y="429"/>
      <point x="169" y="452" type="curve" smooth="yes"/>
      <point x="256" y="522" type="line"/>
      <point x="220" y="568" type="line" smooth="yes"/>
      <point x="209" y="582"/>
      <point x="202" y="598"/>
      <point x="202" y="614" type="curve" smooth="yes"/>
      <point x="202" y="637"/>
      <point x="214" y="660"/>
      <point x="236" y="678" type="curve" smooth="yes"/>
      <point x="332" y="756" type="line" smooth="yes"/>
      <point x="350" y="771"/>
      <point x="368" y="778"/>
      <point x="386" y="778" type="curve" smooth="yes"/>
      <point x="407" y="778"/>
      <point x="426" y="768"/>
      <point x="442" y="749" type="curve" smooth="yes"/>
      <point x="544" y="623" type="line" smooth="yes"/>
      <point x="555" y="610"/>
      <point x="560" y="597"/>
      <point x="560" y="585" type="curve" smooth="yes"/>
      <point x="560" y="564"/>
      <point x="535" y="537"/>
      <point x="511" y="537" type="curve" smooth="yes"/>
      <point x="497" y="537"/>
      <point x="482" y="546"/>
      <point x="469" y="562" type="curve" smooth="yes"/>
    </contour>
    <contour>
      <point x="519" y="199" type="line"/>
      <point x="317" y="448" type="line"/>
      <point x="225" y="375" type="line"/>
      <point x="427" y="126" type="line"/>
    </contour>
  </outline>
</glyph>
<glyph name="dieresis" format="1">
  <advance width="720"/>
  <unicode hex="00A8"/>
  <outline>
    <contour>
      <point x="279" y="716" type="curve" smooth="yes"/>
      <point x="279" y="654" type="line" smooth="yes"/>
      <point x="279" y="624"/>
      <point x="266" y="593"/>
      <point x="229" y="593" type="curve" smooth="yes"/>
      <point x="192" y="593"/>
      <point x="179" y="624"/>
      <point x="179" y="654" type="curve" smooth="yes"/>
      <point x="179" y="716" type="line" smooth="yes"/>
      <point x="179" y="750"/>
      <point x="193" y="778"/>
      <point x="229" y="778" type="curve" smooth="yes"/>
      <point x="265" y="778"/>
      <point x="279" y="750"/>
    </contour>
    <contour>
      <point x="534" y="716" type="curve" smooth="yes"/>
      <point x="534" y="654" type="line" smooth="yes"/>
      <point x="534" y="624"/>
      <point x="521" y="593"/>
      <point x="484" y="593" type="curve" smooth="yes"/>
      <point x="447" y="593"/>
      <point x="434" y="624"/>
      <point x="434" y="654" type="curve" smooth="yes"/>
      <point x="434" y="716" type="line" smooth="yes"/>
      <point x="434" y="750"/>
      <point x="448" y="778"/>
      <point x="484" y="778" type="curve" smooth="yes"/>
      <point x="520" y="778"/>
      <point x="534" y="750"/>
    </contour>
  </outline>
</glyph>
<glyph name="logicalnot" format="1">
  <advance width="720"/>
  <unicode hex="00AC"/>
  <outline>
    <contour>
      <point x="527" y="456" type="line"/>
      <point x="123" y="456" type="line" smooth="yes"/>
      <point x="97" y="456"/>
      <point x="73" y="470"/>
      <point x="73" y="506" type="curve" smooth="yes"/>
      <point x="73" y="542"/>
      <point x="97" y="556"/>
      <point x="123" y="556" type="curve" smooth="yes"/>
      <point x="567" y="556" type="line" smooth="yes"/>
      <point x="585" y="556"/>
      <point x="596" y="556"/>
      <point x="611" y="542" type="curve" smooth="yes"/>
      <point x="627" y="527"/>
      <point x="627" y="513"/>
      <point x="627" y="492" type="curve" smooth="yes"/>
      <point x="627" y="242" type="line" smooth="yes"/>
      <point x="627" y="210"/>
      <point x="613" y="192"/>
      <point x="577" y="192" type="curve" smooth="yes"/>
      <point x="541" y="192"/>
      <point x="527" y="210"/>
      <point x="527" y="242" type="curve" smooth="yes"/>
    </contour>
  </outline>
</glyph>
<glyph name="registered" format="1">
  <advance width="720"/>
  <unicode hex="00AE"/>
  <outline>
    <contour>
      <point x="238" y="465" type="line"/>
      <point x="238" y="340" type="line"/>
      <point x="286" y="340" type="line" smooth="yes"/>
      <point x="312" y="340"/>
      <point x="354" y="343"/>
      <point x="354" y="380" type="curve" smooth="yes"/>
      <point x="354" y="423" type="line" smooth="yes"/>
      <point x="354" y="460"/>
      <point x="315" y="465"/>
      <point x="286" y="465" type="curve" smooth="yes"/>
    </contour>
    <contour>
      <point x="482" y="0" type="curve" smooth="yes"/>
      <point x="471" y="0" type="line" smooth="yes"/>
      <point x="429" y="0"/>
      <point x="408" y="15"/>
      <point x="387" y="41" type="curve" smooth="yes"/>
      <point x="253" y="244" type="line"/>
      <point x="238" y="244" type="line"/>
      <point x="238" y="86" type="line" smooth="yes"/>
      <point x="238" y="56"/>
      <point x="225" y="40"/>
      <point x="190" y="40" type="curve" smooth="yes"/>
      <point x="158" y="40"/>
      <point x="142" y="56"/>
      <point x="142" y="86" type="curve" smooth="yes"/>
      <point x="142" y="561" type="line"/>
      <point x="315" y="561" type="line" smooth="yes"/>
      <point x="388" y="561"/>
      <point x="450" y="513"/>
      <point x="450" y="431" type="curve" smooth="yes"/>
      <point x="450" y="381" type="line" smooth="yes"/>
      <point x="450" y="311"/>
      <point x="408" y="272"/>
      <point x="355" y="259" type="curve"/>
      <point x="465" y="96" type="line"/>
      <point x="480" y="96" type="line" smooth="yes"/>
      <point x="532" y="96"/>
      <point x="527" y="149"/>
      <point x="527" y="185" type="curve" smooth="yes"/>
      <point x="527" y="572" type="line" smooth="yes"/>
      <point x="527" y="600"/>
      <point x="530" y="623"/>
      <point x="514" y="647" type="curve" smooth="yes"/>
      <point x="494" y="677"/>
      <point x="464" y="682"/>
      <point x="430" y="682" type="curve" smooth="yes"/>
      <point x="303" y="682" type="line" smooth="yes"/>
      <point x="270" y="682"/>
      <point x="239" y="681"/>
      <point x="221" y="648" type="curve" smooth="yes"/>
      <point x="208" y="624"/>
      <point x="198" y="598"/>
      <point x="166" y="598" type="curve" smooth="yes"/>
      <point x="140" y="598"/>
      <point x="118" y="617"/>
      <point x="118" y="643" type="curve" smooth="yes"/>
      <point x="118" y="676"/>
      <point x="151" y="717"/>
      <point x="175" y="737" type="curve" smooth="yes"/>
      <point x="216" y="772"/>
      <point x="255" y="778"/>
      <point x="306" y="778" type="curve" smooth="yes"/>
      <point x="420" y="778" type="line" smooth="yes"/>
      <point x="455" y="778"/>
      <point x="472" y="778"/>
      <point x="507" y="764" type="curve" smooth="yes"/>
      <point x="585" y="733"/>
      <point x="623" y="674"/>
      <point x="623" y="592" type="curve" smooth="yes"/>
      <point x="623" y="172" type="line" smooth="yes"/>
      <point x="623" y="125"/>
      <point x="624" y="94"/>
      <point x="593" y="56" type="curve" smooth="yes"/>
      <point x="567" y="24"/>
      <point x="524" y="0"/>
    </contour>
  </outline>
</glyph>
<glyph name="paragraph" format="1">
  <advance width="720"/>
  <unicode hex="00B6"/>
  <outline>
    <contour>
      <point x="319" y="422" type="line"/>
      <point x="149" y="422" type="line" smooth="yes"/>
      <point x="121" y="422"/>
      <point x="99" y="446"/>
      <point x="99" y="472" type="curve" smooth="yes"/>
      <point x="99" y="728" type="line" smooth="yes"/>
      <point x="99" y="754"/>
      <point x="121" y="778"/>
      <point x="149" y="778" type="curve" smooth="yes"/>
      <point x="540" y="778" type="line" smooth="yes"/>
      <point x="597" y="778"/>
      <point x="607" y="761"/>
      <point x="607" y="707" type="curve" smooth="yes"/>
      <point x="607" y="50" type="line" smooth="yes"/>
      <point x="607" y="18"/>
      <point x="593" y="0"/>
      <point x="557" y="0" type="curve" smooth="yes"/>
      <point x="521" y="0"/>
      <point x="507" y="18"/>
      <point x="507" y="50" type="curve" smooth="yes"/>
      <point x="507" y="678" type="line"/>
      <point x="419" y="678" type="line"/>
      <point x="419" y="50" type="line" smooth="yes"/>
      <point x="419" y="18"/>
      <point x="405" y="0"/>
      <point x="369" y="0" type="curve" smooth="yes"/>
      <point x="333" y="0"/>
      <point x="319" y="18"/>
      <point x="319" y="50" type="curve" smooth="yes"/>
    </contour>
  </outline>
</glyph>
<glyph name="cedilla" format="1">
  <advance width="720"/>
  <unicode hex="00B8"/>
  <outline>
    <contour>
      <point x="376" y="10" type="line"/>
      <point x="469" y="10" type="line"/>
      <point x="469" y="-144" type="line" smooth="yes"/>
      <point x="469" y="-185"/>
      <point x="445" y="-204"/>
      <point x="405" y="-204" type="curve" smooth="yes"/>
      <point x="290" y="-204" type="line" smooth="yes"/>
      <point x="258" y="-204"/>
      <point x="240" y="-190"/>
      <point x="240" y="-157" type="curve" smooth="yes"/>
      <point x="240" y="-125"/>
      <point x="258" y="-111"/>
      <point x="290" y="-111" type="curve" smooth="yes"/>
      <point x="376" y="-111" type="line"/>
    </contour>
  </outline>
</glyph>
<glyph name="guillemotright" format="1">
  <advance width="720"/>
  <unicode hex="00BB"/>
  <outline>
    <contour>
      <point x="567" y="411" type="line"/>
      <point x="345" y="671" type="line" smooth="yes"/>
      <point x="334" y="684"/>
      <point x="328" y="695"/>
      <point x="328" y="711" type="curve" smooth="yes"/>
      <point x="328" y="735"/>
      <point x="345" y="755"/>
      <point x="374" y="755" type="curve" smooth="yes"/>
      <point x="395" y="755"/>
      <point x="408" y="744"/>
      <point x="420" y="730" type="curve" smooth="yes"/>
      <point x="631" y="486" type="line" smooth="yes"/>
      <point x="646" y="469"/>
      <point x="650" y="459"/>
      <point x="650" y="439" type="curve" smooth="yes"/>
      <point x="650" y="383" type="line" smooth="yes"/>
      <point x="650" y="363"/>
      <point x="646" y="353"/>
      <point x="631" y="336" type="curve" smooth="yes"/>
      <point x="420" y="92" type="line" smooth="yes"/>
      <point x="408" y="78"/>
      <point x="395" y="67"/>
      <point x="374" y="67" type="curve" smooth="yes"/>
      <point x="345" y="67"/>
      <point x="328" y="87"/>
      <point x="328" y="111" type="curve" smooth="yes"/>
      <point x="328" y="127"/>
      <point x="334" y="138"/>
      <point x="345" y="151" type="curve" smooth="yes"/>
    </contour>
    <contour>
      <point x="322" y="411" type="line"/>
      <point x="100" y="671" type="line" smooth="yes"/>
      <point x="89" y="684"/>
      <point x="83" y="695"/>
      <point x="83" y="711" type="curve" smooth="yes"/>
      <point x="83" y="735"/>
      <point x="100" y="755"/>
      <point x="129" y="755" type="curve" smooth="yes"/>
      <point x="150" y="755"/>
      <point x="163" y="744"/>
      <point x="175" y="730" type="curve" smooth="yes"/>
      <point x="386" y="486" type="line" smooth="yes"/>
      <point x="401" y="469"/>
      <point x="405" y="459"/>
      <point x="405" y="439" type="curve" smooth="yes"/>
      <point x="405" y="383" type="line" smooth="yes"/>
      <point x="405" y="363"/>
      <point x="401" y="353"/>
      <point x="386" y="336" type="curve" smooth="yes"/>
      <point x="175" y="92" type="line" smooth="yes"/>
      <point x="163" y="78"/>
      <point x="150" y="67"/>
      <point x="129" y="67" type="curve" smooth="yes"/>
      <point x="100" y="67"/>
      <point x="83" y="87"/>
      <point x="83" y="111" type="curve" smooth="yes"/>
      <point x="83" y="127"/>
      <point x="89" y="138"/>
      <point x="100" y="151" type="curve" smooth="yes"/>
    </contour>
  </outline>
</glyph>
<glyph name="onequarter" format="1">
  <advance width="720"/>
  <unicode hex="00BC"/>
  <outline>
    <contour>
      <point x="553" y="637" type="curve" smooth="yes"/>
      <point x="218" y="88" type="line" smooth="yes"/>
      <point x="207" y="70"/>
      <point x="191" y="62"/>
      <point x="176" y="62" type="curve" smooth="yes"/>
      <point x="151" y="62"/>
      <point x="127" y="82"/>
      <point x="127" y="109" type="curve" smooth="yes"/>
      <point x="127" y="118"/>
      <point x="130" y="128"/>
      <point x="136" y="138" type="curve" smooth="yes"/>
      <point x="471" y="687" type="line" smooth="yes"/>
      <point x="481" y="704"/>
      <point x="496" y="711"/>
      <point x="510" y="711" type="curve" smooth="yes"/>
      <point x="535" y="711"/>
      <point x="561" y="690"/>
      <point x="561" y="663" type="curve" smooth="yes"/>
      <point x="561" y="655"/>
      <point x="558" y="646"/>
    </contour>
    <contour>
      <point x="204" y="337" type="curve" smooth="yes"/>
      <point x="89" y="337" type="line" smooth="yes"/>
      <point x="64" y="337"/>
      <point x="40" y="349"/>
      <point x="40" y="385" type="curve" smooth="yes"/>
      <point x="40" y="422"/>
      <point x="64" y="433"/>
      <point x="89" y="433" type="curve" smooth="yes"/>
      <point x="99" y="433" type="line"/>
      <point x="99" y="682" type="line"/>
      <point x="59" y="682" type="line" smooth="yes"/>
      <point x="34" y="682"/>
      <point x="10" y="693"/>
      <point x="10" y="730" type="curve" smooth="yes"/>
      <point x="10" y="766"/>
      <point x="34" y="778"/>
      <point x="59" y="778" type="curve" smooth="yes"/>
      <point x="195" y="778" type="line"/>
      <point x="195" y="433" type="line"/>
      <point x="204" y="433" type="line" smooth="yes"/>
      <point x="229" y="433"/>
      <point x="253" y="422"/>
      <point x="253" y="386" type="curve" smooth="yes"/>
      <point x="253" y="349"/>
      <point x="229" y="337"/>
    </contour>
    <contour>
      <point x="534" y="237" type="line"/>
      <point x="589" y="237" type="line"/>
      <point x="589" y="353" type="line" smooth="yes"/>
      <point x="589" y="379"/>
      <point x="600" y="403"/>
      <point x="637" y="403" type="curve" smooth="yes"/>
      <point x="675" y="403"/>
      <point x="685" y="379"/>
      <point x="685" y="353" type="curve" smooth="yes"/>
      <point x="685" y="235" type="line"/>
      <point x="704" y="228"/>
      <point x="718" y="214"/>
      <point x="718" y="191" type="curve" smooth="yes"/>
      <point x="718" y="169"/>
      <point x="705" y="154"/>
      <point x="685" y="147" type="curve"/>
      <point x="685" y="49" type="line" smooth="yes"/>
      <point x="685" y="18"/>
      <point x="673" y="0"/>
      <point x="637" y="0" type="curve" smooth="yes"/>
      <point x="602" y="0"/>
      <point x="589" y="18"/>
      <point x="589" y="49" type="curve" smooth="yes"/>
      <point x="589" y="141" type="line"/>
      <point x="438" y="141" type="line"/>
      <point x="438" y="392" type="line" smooth="yes"/>
      <point x="438" y="417"/>
      <point x="450" y="441"/>
      <point x="487" y="441" type="curve" smooth="yes"/>
      <point x="525" y="441"/>
      <point x="534" y="417"/>
      <point x="534" y="392" type="curve" smooth="yes"/>
    </contour>
  </outline>
</glyph>
<glyph name="onehalf" format="1">
  <advance width="720"/>
  <unicode hex="00BD"/>
  <outline>
    <contour>
      <point x="560" y="637" type="curve" smooth="yes"/>
      <point x="225" y="88" type="line" smooth="yes"/>
      <point x="214" y="70"/>
      <point x="198" y="62"/>
      <point x="183" y="62" type="curve" smooth="yes"/>
      <point x="158" y="62"/>
      <point x="134" y="82"/>
      <point x="134" y="109" type="curve" smooth="yes"/>
      <point x="134" y="118"/>
      <point x="137" y="128"/>
      <point x="143" y="138" type="curve" smooth="yes"/>
      <point x="478" y="687" type="line" smooth="yes"/>
      <point x="488" y="704"/>
      <point x="503" y="711"/>
      <point x="517" y="711" type="curve" smooth="yes"/>
      <point x="542" y="711"/>
      <point x="568" y="690"/>
      <point x="568" y="663" type="curve" smooth="yes"/>
      <point x="568" y="655"/>
      <point x="565" y="646"/>
    </contour>
    <contour>
      <point x="206" y="337" type="curve" smooth="yes"/>
      <point x="91" y="337" type="line" smooth="yes"/>
      <point x="66" y="337"/>
      <point x="42" y="349"/>
      <point x="42" y="385" type="curve" smooth="yes"/>
      <point x="42" y="422"/>
      <point x="66" y="433"/>
      <point x="91" y="433" type="curve" smooth="yes"/>
      <point x="101" y="433" type="line"/>
      <point x="101" y="682" type="line"/>
      <point x="61" y="682" type="line" smooth="yes"/>
      <point x="36" y="682"/>
      <point x="12" y="693"/>
      <point x="12" y="730" type="curve" smooth="yes"/>
      <point x="12" y="766"/>
      <point x="36" y="778"/>
      <point x="61" y="778" type="curve" smooth="yes"/>
      <point x="197" y="778" type="line"/>
      <point x="197" y="433" type="line"/>
      <point x="206" y="433" type="line" smooth="yes"/>
      <point x="231" y="433"/>
      <point x="255" y="422"/>
      <point x="255" y="386" type="curve" smooth="yes"/>
      <point x="255" y="349"/>
      <point x="231" y="337"/>
    </contour>
    <contour>
      <point x="547" y="175" type="line"/>
      <point x="547" y="96" type="line"/>
      <point x="649" y="96" type="line" smooth="yes"/>
      <point x="674" y="96"/>
      <point x="698" y="85"/>
      <point x="698" y="48" type="curve" smooth="yes"/>
      <point x="698" y="12"/>
      <point x="674" y="0"/>
      <point x="649" y="0" type="curve" smooth="yes"/>
      <point x="451" y="0" type="line"/>
      <point x="451" y="193" type="line" smooth="yes"/>
      <point x="451" y="243"/>
      <point x="477" y="271"/>
      <point x="529" y="271" type="curve" smooth="yes"/>
      <point x="602" y="271" type="line"/>
      <point x="602" y="345" type="line"/>
      <point x="500" y="345" type="line" smooth="yes"/>
      <point x="475" y="345"/>
      <point x="451" y="356"/>
      <point x="451" y="393" type="curve" smooth="yes"/>
      <point x="451" y="429"/>
      <point x="475" y="441"/>
      <point x="500" y="441" type="curve" smooth="yes"/>
      <point x="621" y="441" type="line" smooth="yes"/>
      <point x="642" y="441"/>
      <point x="657" y="438"/>
      <point x="674" y="422" type="curve" smooth="yes"/>
      <point x="694" y="405"/>
      <point x="698" y="385"/>
      <point x="698" y="361" type="curve" smooth="yes"/>
      <point x="698" y="254" type="line" smooth="yes"/>
      <point x="698" y="231"/>
      <point x="696" y="213"/>
      <point x="675" y="194" type="curve" smooth="yes"/>
      <point x="657" y="178"/>
      <point x="643" y="175"/>
      <point x="621" y="175" type="curve" smooth="yes"/>
    </contour>
  </outline>
</glyph>
<glyph name="threequarters" format="1">
  <advance width="720"/>
  <unicode hex="00BE"/>
  <outline>
    <contour>
      <point x="549" y="637" type="curve" smooth="yes"/>
      <point x="214" y="88" type="line" smooth="yes"/>
      <point x="203" y="70"/>
      <point x="187" y="62"/>
      <point x="172" y="62" type="curve" smooth="yes"/>
      <point x="147" y="62"/>
      <point x="123" y="82"/>
      <point x="123" y="109" type="curve" smooth="yes"/>
      <point x="123" y="118"/>
      <point x="126" y="128"/>
      <point x="132" y="138" type="curve" smooth="yes"/>
      <point x="467" y="687" type="line" smooth="yes"/>
      <point x="477" y="704"/>
      <point x="492" y="711"/>
      <point x="506" y="711" type="curve" smooth="yes"/>
      <point x="531" y="711"/>
      <point x="557" y="690"/>
      <point x="557" y="663" type="curve" smooth="yes"/>
      <point x="557" y="655"/>
      <point x="554" y="646"/>
    </contour>
    <contour>
      <point x="161" y="512" type="line"/>
      <point x="106" y="512" type="line" smooth="yes"/>
      <point x="80" y="512"/>
      <point x="56" y="524"/>
      <point x="56" y="560" type="curve" smooth="yes"/>
      <point x="56" y="595"/>
      <point x="80" y="608"/>
      <point x="106" y="608" type="curve" smooth="yes"/>
      <point x="161" y="608" type="line"/>
      <point x="161" y="682" type="line"/>
      <point x="62" y="682" type="line" smooth="yes"/>
      <point x="36" y="682"/>
      <point x="12" y="693"/>
      <point x="12" y="730" type="curve" smooth="yes"/>
      <point x="12" y="766"/>
      <point x="36" y="778"/>
      <point x="62" y="778" type="curve" smooth="yes"/>
      <point x="185" y="778" type="line" smooth="yes"/>
      <point x="227" y="778"/>
      <point x="257" y="748"/>
      <point x="257" y="706" type="curve" smooth="yes"/>
      <point x="257" y="409" type="line" smooth="yes"/>
      <point x="257" y="367"/>
      <point x="227" y="337"/>
      <point x="185" y="337" type="curve" smooth="yes"/>
      <point x="62" y="337" type="line" smooth="yes"/>
      <point x="36" y="337"/>
      <point x="12" y="349"/>
      <point x="12" y="385" type="curve" smooth="yes"/>
      <point x="12" y="422"/>
      <point x="36" y="433"/>
      <point x="62" y="433" type="curve" smooth="yes"/>
      <point x="161" y="433" type="line"/>
    </contour>
    <contour>
      <point x="534" y="237" type="line"/>
      <point x="589" y="237" type="line"/>
      <point x="589" y="353" type="line" smooth="yes"/>
      <point x="589" y="379"/>
      <point x="600" y="403"/>
      <point x="637" y="403" type="curve" smooth="yes"/>
      <point x="675" y="403"/>
      <point x="685" y="379"/>
      <point x="685" y="353" type="curve" smooth="yes"/>
      <point x="685" y="235" type="line"/>
      <point x="704" y="228"/>
      <point x="718" y="214"/>
      <point x="718" y="191" type="curve" smooth="yes"/>
      <point x="718" y="169"/>
      <point x="705" y="154"/>
      <point x="685" y="147" type="curve"/>
      <point x="685" y="49" type="line" smooth="yes"/>
      <point x="685" y="18"/>
      <point x="673" y="0"/>
      <point x="637" y="0" type="curve" smooth="yes"/>
      <point x="602" y="0"/>
      <point x="589" y="18"/>
      <point x="589" y="49" type="curve" smooth="yes"/>
      <point x="589" y="141" type="line"/>
      <point x="438" y="141" type="line"/>
      <point x="438" y="392" type="line" smooth="yes"/>
      <point x="438" y="417"/>
      <point x="450" y="441"/>
      <point x="487" y="441" type="curve" smooth="yes"/>
      <point x="525" y="441"/>
      <point x="534" y="417"/>
      <point x="534" y="392" type="curve" smooth="yes"/>
    </contour>
  </outline>
</glyph>
<glyph name="questiondown" format="1">
  <advance width="720"/>
  <unicode hex="00BF"/>
  <outline>
    <contour>
      <point x="213" y="195" type="line"/>
      <point x="213" y="158" type="line"/>
      <point x="262" y="116" type="line"/>
      <point x="515" y="333" type="line" smooth="yes"/>
      <point x="527" y="343"/>
      <point x="541" y="353"/>
      <point x="557" y="353" type="curve" smooth="yes"/>
      <point x="586" y="353"/>
      <point x="607" y="329"/>
      <point x="607" y="301" type="curve" smooth="yes"/>
      <point x="607" y="277"/>
      <point x="584" y="260"/>
      <point x="568" y="246" type="curve" smooth="yes"/>
      <point x="303" y="20" type="line" smooth="yes"/>
      <point x="291" y="9"/>
      <point x="280" y="0"/>
      <point x="262" y="0" type="curve" smooth="yes"/>
      <point x="243" y="0"/>
      <point x="235" y="8"/>
      <point x="221" y="20" type="curve" smooth="yes"/>
      <point x="139" y="90" type="line" smooth="yes"/>
      <point x="113" y="112"/>
      <point x="113" y="117"/>
      <point x="113" y="150" type="curve" smooth="yes"/>
      <point x="113" y="205" type="line" smooth="yes"/>
      <point x="113" y="241"/>
      <point x="117" y="244"/>
      <point x="144" y="268" type="curve" smooth="yes"/>
      <point x="409" y="497" type="line"/>
      <point x="409" y="558" type="line" smooth="yes"/>
      <point x="409" y="590"/>
      <point x="423" y="608"/>
      <point x="459" y="608" type="curve" smooth="yes"/>
      <point x="495" y="608"/>
      <point x="509" y="590"/>
      <point x="509" y="558" type="curve" smooth="yes"/>
      <point x="509" y="484" type="line" smooth="yes"/>
      <point x="509" y="450"/>
      <point x="504" y="447"/>
      <point x="479" y="426" type="curve" smooth="yes"/>
    </contour>
    <contour>
      <point x="459" y="678" type="curve" smooth="yes"/>
      <point x="431" y="678"/>
      <point x="409" y="701"/>
      <point x="409" y="729" type="curve" smooth="yes"/>
      <point x="409" y="756"/>
      <point x="431" y="778"/>
      <point x="459" y="778" type="curve" smooth="yes"/>
      <point x="486" y="778"/>
      <point x="509" y="756"/>
      <point x="509" y="729" type="curve" smooth="yes"/>
      <point x="509" y="702"/>
      <point x="486" y="678"/>
    </contour>
  </outline>
</glyph>
<glyph name="Agrave" format="1">
  <advance width="720"/>
  <unicode hex="00C0"/>
  <outline>
    <contour>
      <point x="468" y="127" type="line"/>
      <point x="252" y="127" type="line"/>
      <point x="217" y="50" type="line" smooth="yes"/>
      <point x="210" y="26"/>
      <point x="194" y="0"/>
      <point x="163" y="0" type="curve" smooth="yes"/>
      <point x="135" y="0"/>
      <point x="106" y="27"/>
      <point x="115" y="50" type="curve" smooth="yes"/>
      <point x="309" y="563" type="line" smooth="yes"/>
      <point x="319" y="588"/>
      <point x="329" y="608"/>
      <point x="360" y="608" type="curve" smooth="yes"/>
      <point x="390" y="608"/>
      <point x="403" y="586"/>
      <point x="412" y="563" type="curve" smooth="yes"/>
      <point x="605" y="50" type="line" smooth="yes"/>
      <point x="612" y="26"/>
      <point x="585" y="0"/>
      <point x="557" y="0" type="curve" smooth="yes"/>
      <point x="526" y="0"/>
      <point x="510" y="26"/>
      <point x="503" y="50" type="curve" smooth="yes"/>
    </contour>
    <contour>
      <point x="432" y="227" type="line"/>
      <point x="360" y="420" type="line"/>
      <point x="288" y="227" type="line"/>
    </contour>
    <contour>
      <point x="257" y="813" type="curve" smooth="yes"/>
      <point x="444" y="733" type="line" smooth="yes"/>
      <point x="458" y="727"/>
      <point x="468" y="713"/>
      <point x="468" y="698" type="curve" smooth="yes"/>
      <point x="468" y="672"/>
      <point x="451" y="646"/>
      <point x="430" y="646" type="curve" smooth="yes"/>
      <point x="424" y="646"/>
      <point x="417" y="648"/>
      <point x="411" y="650" type="curve" smooth="yes"/>
      <point x="209" y="719" type="line" smooth="yes"/>
      <point x="189" y="728"/>
      <point x="185" y="743"/>
      <point x="185" y="761" type="curve" smooth="yes"/>
      <point x="185" y="789"/>
      <point x="208" y="818"/>
      <point x="235" y="818" type="curve" smooth="yes"/>
      <point x="241" y="818"/>
      <point x="249" y="817"/>
    </contour>
  </outline>
</glyph>
<glyph name="AE" format="1">
  <advance width="720"/>
  <unicode hex="00C6"/>
  <outline>
    <contour>
      <point x="460" y="339" type="line"/>
      <point x="460" y="100" type="line"/>
      <point x="557" y="100" type="line" smooth="yes"/>
      <point x="583" y="100"/>
      <point x="607" y="86"/>
      <point x="607" y="50" type="curve" smooth="yes"/>
      <point x="607" y="14"/>
      <point x="583" y="0"/>
      <point x="557" y="0" type="curve" smooth="yes"/>
      <point x="409" y="0" type="line" smooth="yes"/>
      <point x="383" y="0"/>
      <point x="360" y="14"/>
      <point x="360" y="50" type="curve" smooth="yes"/>
      <point x="360" y="220" type="line"/>
      <point x="277" y="220" type="line"/>
      <point x="212" y="40" type="line" smooth="yes"/>
      <point x="204" y="17"/>
      <point x="186" y="-8"/>
      <point x="149" y="0" type="curve" smooth="yes"/>
      <point x="112" y="8"/>
      <point x="108" y="46"/>
      <point x="117" y="72" type="curve" smooth="yes"/>
      <point x="351" y="728" type="line" smooth="yes"/>
      <point x="362" y="760"/>
      <point x="379" y="778"/>
      <point x="410" y="778" type="curve" smooth="yes"/>
      <point x="557" y="778" type="line" smooth="yes"/>
      <point x="583" y="778"/>
      <point x="607" y="764"/>
      <point x="607" y="728" type="curve" smooth="yes"/>
      <point x="607" y="692"/>
      <point x="583" y="678"/>
      <point x="557" y="678" type="curve" smooth="yes"/>
      <point x="460" y="678" type="line"/>
      <point x="460" y="439" type="line"/>
      <point x="557" y="439" type="line" smooth="yes"/>
      <point x="583" y="439"/>
      <point x="607" y="425"/>
      <point x="607" y="389" type="curve" smooth="yes"/>
      <point x="607" y="353"/>
      <point x="583" y="339"/>
      <point x="557" y="339" type="curve" smooth="yes"/>
    </contour>
    <contour>
      <point x="360" y="320" type="line"/>
      <point x="360" y="439" type="line"/>
      <point x="356" y="439" type="line"/>
      <point x="313" y="320" type="line"/>
    </contour>
  </outline>
</glyph>
<glyph name="Egrave" format="1">
  <advance width="720"/>
  <unicode hex="00C8"/>
  <outline>
    <contour>
      <point x="213" y="100" type="line"/>
      <point x="557" y="100" type="line" smooth="yes"/>
      <point x="583" y="100"/>
      <point x="607" y="86"/>
      <point x="607" y="50" type="curve" smooth="yes"/>
      <point x="607" y="14"/>
      <point x="583" y="0"/>
      <point x="557" y="0" type="curve" smooth="yes"/>
      <point x="113" y="0" type="line"/>
      <point x="113" y="608" type="line"/>
      <point x="557" y="608" type="line" smooth="yes"/>
      <point x="583" y="608"/>
      <point x="607" y="594"/>
      <point x="607" y="558" type="curve" smooth="yes"/>
      <point x="607" y="522"/>
      <point x="583" y="508"/>
      <point x="557" y="508" type="curve" smooth="yes"/>
      <point x="213" y="508" type="line"/>
      <point x="213" y="367" type="line"/>
      <point x="360" y="367" type="line" smooth="yes"/>
      <point x="386" y="367"/>
      <point x="410" y="353"/>
      <point x="410" y="317" type="curve" smooth="yes"/>
      <point x="410" y="281"/>
      <point x="386" y="267"/>
      <point x="360" y="267" type="curve" smooth="yes"/>
      <point x="213" y="267" type="line"/>
    </contour>
    <contour>
      <point x="257" y="813" type="curve" smooth="yes"/>
      <point x="444" y="733" type="line" smooth="yes"/>
      <point x="458" y="727"/>
      <point x="468" y="713"/>
      <point x="468" y="698" type="curve" smooth="yes"/>
      <point x="468" y="672"/>
      <point x="451" y="646"/>
      <point x="430" y="646" type="curve" smooth="yes"/>
      <point x="424" y="646"/>
      <point x="417" y="648"/>
      <point x="411" y="650" type="curve" smooth="yes"/>
      <point x="209" y="719" type="line" smooth="yes"/>
      <point x="189" y="728"/>
      <point x="185" y="743"/>
      <point x="185" y="761" type="curve" smooth="yes"/>
      <point x="185" y="789"/>
      <point x="208" y="818"/>
      <point x="235" y="818" type="curve" smooth="yes"/>
      <point x="241" y="818"/>
      <point x="249" y="817"/>
    </contour>
  </outline>
</glyph>
<glyph name="Ecircumflex" format="1">
  <advance width="720"/>
  <unicode hex="00CA"/>
  <outline>
    <contour>
      <point x="213" y="100" type="line"/>
      <point x="557" y="100" type="line" smooth="yes"/>
      <point x="583" y="100"/>
      <point x="607" y="86"/>
      <point x="607" y="50" type="curve" smooth="yes"/>
      <point x="607" y="14"/>
      <point x="583" y="0"/>
      <point x="557" y="0" type="curve" smooth="yes"/>
      <point x="113" y="0" type="line"/>
      <point x="113" y="608" type="line"/>
      <point x="557" y="608" type="line" smooth="yes"/>
      <point x="583" y="608"/>
      <point x="607" y="594"/>
      <point x="607" y="558" type="curve" smooth="yes"/>
      <point x="607" y="522"/>
      <point x="583" y="508"/>
      <point x="557" y="508" type="curve" smooth="yes"/>
      <point x="213" y="508" type="line"/>
      <point x="213" y="367" type="line"/>
      <point x="360" y="367" type="line" smooth="yes"/>
      <point x="386" y="367"/>
      <point x="410" y="353"/>
      <point x="410" y="317" type="curve" smooth="yes"/>
      <point x="410" y="281"/>
      <point x="386" y="267"/>
      <point x="360" y="267" type="curve" smooth="yes"/>
      <point x="213" y="267" type="line"/>
    </contour>
    <contour>
      <point x="360" y="723" type="line"/>
      <point x="228" y="658" type="line" smooth="yes"/>
      <point x="218" y="653"/>
      <point x="212" y="652"/>
      <point x="203" y="652" type="curve" smooth="yes"/>
      <point x="179" y="652"/>
      <point x="160" y="673"/>
      <point x="160" y="697" type="curve" smooth="yes"/>
      <point x="160" y="713"/>
      <point x="169" y="727"/>
      <point x="184" y="735" type="curve" smooth="yes"/>
      <point x="312" y="809" type="line" smooth="yes"/>
      <point x="328" y="818"/>
      <point x="345" y="823"/>
      <point x="360" y="823" type="curve" smooth="yes"/>
      <point x="375" y="823"/>
      <point x="392" y="818"/>
      <point x="408" y="809" type="curve" smooth="yes"/>
      <point x="536" y="735" type="line" smooth="yes"/>
      <point x="551" y="727"/>
      <point x="560" y="713"/>
      <point x="560" y="697" type="curve" smooth="yes"/>
      <point x="560" y="673"/>
      <point x="541" y="652"/>
      <point x="517" y="652" type="curve" smooth="yes"/>
      <point x="508" y="652"/>
      <point x="502" y="653"/>
      <point x="492" y="658" type="curve" smooth="yes"/>
    </contour>
  </outline>
</glyph>
<glyph name="Edieresis" format="1">
  <advance width="720"/>
  <unicode hex="00CB"/>
  <outline>
    <contour>
      <point x="213" y="100" type="line"/>
      <point x="557" y="100" type="line" smooth="yes"/>
      <point x="583" y="100"/>
      <point x="607" y="86"/>
      <point x="607" y="50" type="curve" smooth="yes"/>
      <point x="607" y="14"/>
      <point x="583" y="0"/>
      <point x="557" y="0" type="curve" smooth="yes"/>
      <point x="113" y="0" type="line"/>
      <point x="113" y="608" type="line"/>
      <point x="557" y="608" type="line" smooth="yes"/>
      <point x="583" y="608"/>
      <point x="607" y="594"/>
      <point x="607" y="558" type="curve" smooth="yes"/>
      <point x="607" y="522"/>
      <point x="583" y="508"/>
      <point x="557" y="508" type="curve" smooth="yes"/>
      <point x="213" y="508" type="line"/>
      <point x="213" y="367" type="line"/>
      <point x="360" y="367" type="line" smooth="yes"/>
      <point x="386" y="367"/>
      <point x="410" y="353"/>
      <point x="410" y="317" type="curve" smooth="yes"/>
      <point x="410" y="281"/>
      <point x="386" y="267"/>
      <point x="360" y="267" type="curve" smooth="yes"/>
      <point x="213" y="267" type="line"/>
    </contour>
    <contour>
      <point x="293" y="748" type="curve" smooth="yes"/>
      <point x="293" y="716" type="line" smooth="yes"/>
      <point x="293" y="686"/>
      <point x="280" y="655"/>
      <point x="243" y="655" type="curve" smooth="yes"/>
      <point x="206" y="655"/>
      <point x="193" y="686"/>
      <point x="193" y="716" type="curve" smooth="yes"/>
      <point x="193" y="748" type="line" smooth="yes"/>
      <point x="193" y="782"/>
      <point x="207" y="810"/>
      <point x="243" y="810" type="curve" smooth="yes"/>
      <point x="279" y="810"/>
      <point x="293" y="782"/>
    </contour>
    <contour>
      <point x="527" y="748" type="curve" smooth="yes"/>
      <point x="527" y="716" type="line" smooth="yes"/>
      <point x="527" y="686"/>
      <point x="514" y="655"/>
      <point x="477" y="655" type="curve" smooth="yes"/>
      <point x="440" y="655"/>
      <point x="427" y="686"/>
      <point x="427" y="716" type="curve" smooth="yes"/>
      <point x="427" y="748" type="line" smooth="yes"/>
      <point x="427" y="782"/>
      <point x="441" y="810"/>
      <point x="477" y="810" type="curve" smooth="yes"/>
      <point x="513" y="810"/>
      <point x="527" y="782"/>
    </contour>
  </outline>
</glyph>
<glyph name="Idieresis" format="1">
  <advance width="720"/>
  <unicode hex="00CF"/>
  <outline>
    <contour>
      <point x="410" y="508" type="line"/>
      <point x="410" y="100" type="line"/>
      <point x="557" y="100" type="line" smooth="yes"/>
      <point x="583" y="100"/>
      <point x="607" y="86"/>
      <point x="607" y="50" type="curve" smooth="yes"/>
      <point x="607" y="14"/>
      <point x="583" y="0"/>
      <point x="557" y="0" type="curve" smooth="yes"/>
      <point x="163" y="0" type="line" smooth="yes"/>
      <point x="137" y="0"/>
      <point x="113" y="14"/>
      <point x="113" y="50" type="curve" smooth="yes"/>
      <point x="113" y="86"/>
      <point x="137" y="100"/>
      <point x="163" y="100" type="curve" smooth="yes"/>
      <point x="310" y="100" type="line"/>
      <point x="310" y="508" type="line"/>
      <point x="163" y="508" type="line" smooth="yes"/>
      <point x="137" y="508"/>
      <point x="113" y="522"/>
      <point x="113" y="558" type="curve" smooth="yes"/>
      <point x="113" y="594"/>
      <point x="137" y="608"/>
      <point x="163" y="608" type="curve" smooth="yes"/>
      <point x="557" y="608" type="line" smooth="yes"/>
      <point x="583" y="608"/>
      <point x="607" y="594"/>
      <point x="607" y="558" type="curve" smooth="yes"/>
      <point x="607" y="522"/>
      <point x="583" y="508"/>
      <point x="557" y="508" type="curve" smooth="yes"/>
    </contour>
    <contour>
      <point x="293" y="748" type="curve" smooth="yes"/>
      <point x="293" y="716" type="line" smooth="yes"/>
      <point x="293" y="686"/>
      <point x="280" y="655"/>
      <point x="243" y="655" type="curve" smooth="yes"/>
      <point x="206" y="655"/>
      <point x="193" y="686"/>
      <point x="193" y="716" type="curve" smooth="yes"/>
      <point x="193" y="748" type="line" smooth="yes"/>
      <point x="193" y="782"/>
      <point x="207" y="810"/>
      <point x="243" y="810" type="curve" smooth="yes"/>
      <point x="279" y="810"/>
      <point x="293" y="782"/>
    </contour>
    <contour>
      <point x="527" y="748" type="curve" smooth="yes"/>
      <point x="527" y="716" type="line" smooth="yes"/>
      <point x="527" y="686"/>
      <point x="514" y="655"/>
      <point x="477" y="655" type="curve" smooth="yes"/>
      <point x="440" y="655"/>
      <point x="427" y="686"/>
      <point x="427" y="716" type="curve" smooth="yes"/>
      <point x="427" y="748" type="line" smooth="yes"/>
      <point x="427" y="782"/>
      <point x="441" y="810"/>
      <point x="477" y="810" type="curve" smooth="yes"/>
      <point x="513" y="810"/>
      <point x="527" y="782"/>
    </contour>
  </outline>
</glyph>
<glyph name="Ntilde" format="1">
  <advance width="720"/>
  <unicode hex="00D1"/>
  <outline>
    <contour>
      <point x="507" y="171" type="line"/>
      <point x="507" y="474" type="line" smooth="yes"/>
      <point x="507" y="506"/>
      <point x="521" y="524"/>
      <point x="557" y="524" type="curve" smooth="yes"/>
      <point x="593" y="524"/>
      <point x="607" y="506"/>
      <point x="607" y="474" type="curve" smooth="yes"/>
      <point x="607" y="50" type="line" smooth="yes"/>
      <point x="607" y="18"/>
      <point x="593" y="0"/>
      <point x="557" y="0" type="curve" smooth="yes"/>
      <point x="521" y="0"/>
      <point x="504" y="29"/>
      <point x="485" y="50" type="curve" smooth="yes"/>
      <point x="215" y="346" type="line"/>
      <point x="213" y="346" type="line"/>
      <point x="213" y="50" type="line" smooth="yes"/>
      <point x="213" y="18"/>
      <point x="199" y="0"/>
      <point x="163" y="0" type="curve" smooth="yes"/>
      <point x="127" y="0"/>
      <point x="113" y="18"/>
      <point x="113" y="50" type="curve" smooth="yes"/>
      <point x="113" y="474" type="line" smooth="yes"/>
      <point x="113" y="506"/>
      <point x="127" y="524"/>
      <point x="163" y="524" type="curve" smooth="yes"/>
      <point x="199" y="524"/>
      <point x="216" y="495"/>
      <point x="235" y="474" type="curve" smooth="yes"/>
      <point x="506" y="171" type="line"/>
      <point x="505" y="171" type="line"/>
    </contour>
    <contour>
      <point x="163" y="778" type="curve" smooth="yes"/>
      <point x="507" y="742" type="line"/>
      <point x="513" y="754"/>
      <point x="531" y="778"/>
      <point x="557" y="778" type="curve" smooth="yes"/>
      <point x="583" y="778"/>
      <point x="607" y="764"/>
      <point x="607" y="728" type="curve" smooth="yes"/>
      <point x="607" y="682" type="line" smooth="yes"/>
      <point x="607" y="658"/>
      <point x="587" y="632"/>
      <point x="557" y="636" type="curve" smooth="yes"/>
      <point x="213" y="672" type="line"/>
      <point x="207" y="660"/>
      <point x="189" y="636"/>
      <point x="163" y="636" type="curve" smooth="yes"/>
      <point x="137" y="636"/>
      <point x="113" y="650"/>
      <point x="113" y="686" type="curve" smooth="yes"/>
      <point x="113" y="732" type="line" smooth="yes"/>
      <point x="113" y="756"/>
      <point x="133" y="782"/>
    </contour>
  </outline>
</glyph>
<glyph name="Otilde" format="1">
  <advance width="720"/>
  <unicode hex="00D5"/>
  <outline>
    <contour>
      <point x="233" y="82" type="curve" smooth="yes"/>
      <point x="145" y="213" type="line" smooth="yes"/>
      <point x="125" y="243"/>
      <point x="114" y="265"/>
      <point x="113" y="304" type="curve" smooth="yes"/>
      <point x="114" y="343"/>
      <point x="125" y="365"/>
      <point x="145" y="395" type="curve" smooth="yes"/>
      <point x="233" y="526" type="line" smooth="yes"/>
      <point x="265" y="574"/>
      <point x="297" y="608"/>
      <point x="360" y="608" type="curve" smooth="yes"/>
      <point x="423" y="608"/>
      <point x="455" y="574"/>
      <point x="487" y="526" type="curve" smooth="yes"/>
      <point x="575" y="395" type="line" smooth="yes"/>
      <point x="595" y="365"/>
      <point x="606" y="343"/>
      <point x="607" y="304" type="curve" smooth="yes"/>
      <point x="606" y="265"/>
      <point x="595" y="243"/>
      <point x="575" y="213" type="curve" smooth="yes"/>
      <point x="487" y="82" type="line" smooth="yes"/>
      <point x="455" y="34"/>
      <point x="423" y="0"/>
      <point x="360" y="0" type="curve" smooth="yes"/>
      <point x="297" y="0"/>
      <point x="265" y="34"/>
    </contour>
    <contour>
      <point x="225" y="274" type="curve" smooth="yes"/>
      <point x="320" y="131" type="line" smooth="yes"/>
      <point x="331" y="115"/>
      <point x="338" y="100"/>
      <point x="360" y="100" type="curve" smooth="yes"/>
      <point x="382" y="100"/>
      <point x="389" y="115"/>
      <point x="400" y="131" type="curve" smooth="yes"/>
      <point x="495" y="274" type="line" smooth="yes"/>
      <point x="501" y="283"/>
      <point x="507" y="292"/>
      <point x="507" y="304" type="curve" smooth="yes"/>
      <point x="507" y="316"/>
      <point x="501" y="325"/>
      <point x="495" y="334" type="curve" smooth="yes"/>
      <point x="400" y="477" type="line" smooth="yes"/>
      <point x="389" y="493"/>
      <point x="382" y="508"/>
      <point x="360" y="508" type="curve" smooth="yes"/>
      <point x="338" y="508"/>
      <point x="331" y="493"/>
      <point x="320" y="477" type="curve" smooth="yes"/>
      <point x="225" y="334" type="line" smooth="yes"/>
      <point x="219" y="325"/>
      <point x="213" y="316"/>
      <point x="213" y="304" type="curve" smooth="yes"/>
      <point x="213" y="292"/>
      <point x="219" y="283"/>
    </contour>
    <contour>
      <point x="163" y="778" type="curve" smooth="yes"/>
      <point x="507" y="742" type="line"/>
      <point x="513" y="754"/>
      <point x="531" y="778"/>
      <point x="557" y="778" type="curve" smooth="yes"/>
      <point x="583" y="778"/>
      <point x="607" y="764"/>
      <point x="607" y="728" type="curve" smooth="yes"/>
      <point x="607" y="682" type="line" smooth="yes"/>
      <point x="607" y="658"/>
      <point x="587" y="632"/>
      <point x="557" y="636" type="curve" smooth="yes"/>
      <point x="213" y="672" type="line"/>
      <point x="207" y="660"/>
      <point x="189" y="636"/>
      <point x="163" y="636" type="curve" smooth="yes"/>
      <point x="137" y="636"/>
      <point x="113" y="650"/>
      <point x="113" y="686" type="curve" smooth="yes"/>
      <point x="113" y="732" type="line" smooth="yes"/>
      <point x="113" y="756"/>
      <point x="133" y="782"/>
    </contour>
  </outline>
</glyph>
<glyph name="Oslash" format="1">
  <advance width="720"/>
  <unicode hex="00D8"/>
  <outline>
    <contour>
      <point x="140" y="502" type="curve" smooth="yes"/>
      <point x="237" y="693" type="line" smooth="yes"/>
      <point x="263" y="743"/>
      <point x="300" y="778"/>
      <point x="360" y="778" type="curve" smooth="yes"/>
      <point x="413" y="778"/>
      <point x="459" y="743"/>
      <point x="480" y="695" type="curve"/>
      <point x="493" y="718" type="line" smooth="yes"/>
      <point x="508" y="745"/>
      <point x="522" y="778"/>
      <point x="558" y="778" type="curve" smooth="yes"/>
      <point x="583" y="778"/>
      <point x="606" y="756"/>
      <point x="606" y="730" type="curve" smooth="yes"/>
      <point x="606" y="718"/>
      <point x="600" y="706"/>
      <point x="594" y="695" type="curve" smooth="yes"/>
      <point x="533" y="592" type="line"/>
      <point x="577" y="502" type="line" smooth="yes"/>
      <point x="596" y="463"/>
      <point x="607" y="432"/>
      <point x="607" y="388" type="curve" smooth="yes"/>
      <point x="607" y="350"/>
      <point x="595" y="313"/>
      <point x="579" y="280" type="curve" smooth="yes"/>
      <point x="481" y="82" type="line" smooth="yes"/>
      <point x="457" y="33"/>
      <point x="419" y="0"/>
      <point x="360" y="0" type="curve" smooth="yes"/>
      <point x="307" y="0"/>
      <point x="259" y="32"/>
      <point x="238" y="81" type="curve"/>
      <point x="212" y="36" type="line" smooth="yes"/>
      <point x="200" y="15"/>
      <point x="187" y="0"/>
      <point x="162" y="0" type="curve" smooth="yes"/>
      <point x="136" y="0"/>
      <point x="113" y="22"/>
      <point x="113" y="48" type="curve" smooth="yes"/>
      <point x="113" y="67"/>
      <point x="124" y="85"/>
      <point x="134" y="101" type="curve" smooth="yes"/>
      <point x="185" y="188" type="line"/>
      <point x="140" y="280" type="line" smooth="yes"/>
      <point x="121" y="319"/>
      <point x="113" y="349"/>
      <point x="113" y="393" type="curve" smooth="yes"/>
      <point x="113" y="434"/>
      <point x="122" y="466"/>
    </contour>
    <contour>
      <point x="420" y="593" type="line"/>
      <point x="393" y="648" type="line" smooth="yes"/>
      <point x="384" y="664"/>
      <point x="380" y="678"/>
      <point x="360" y="678" type="curve" smooth="yes"/>
      <point x="339" y="678"/>
      <point x="333" y="663"/>
      <point x="326" y="648" type="curve" smooth="yes"/>
      <point x="236" y="468" type="line" smooth="yes"/>
      <point x="223" y="443"/>
      <point x="213" y="420"/>
      <point x="213" y="391" type="curve" smooth="yes"/>
      <point x="213" y="355"/>
      <point x="224" y="333"/>
      <point x="239" y="300" type="curve" smooth="yes"/>
      <point x="244" y="291" type="line"/>
    </contour>
    <contour>
      <point x="474" y="489" type="line"/>
      <point x="298" y="185" type="line"/>
      <point x="323" y="133" type="line" smooth="yes"/>
      <point x="331" y="116"/>
      <point x="338" y="100"/>
      <point x="360" y="100" type="curve" smooth="yes"/>
      <point x="380" y="100"/>
      <point x="386" y="114"/>
      <point x="393" y="129" type="curve" smooth="yes"/>
      <point x="485" y="312" type="line" smooth="yes"/>
      <point x="499" y="339"/>
      <point x="507" y="361"/>
      <point x="507" y="392" type="curve" smooth="yes"/>
      <point x="507" y="420"/>
      <point x="492" y="448"/>
      <point x="481" y="473" type="curve" smooth="yes"/>
    </contour>
  </outline>
</glyph>
<glyph name="Ugrave" format="1">
  <advance width="720"/>
  <unicode hex="00D9"/>
  <outline>
    <contour>
      <point x="507" y="175" type="curve" smooth="yes"/>
      <point x="507" y="558" type="line" smooth="yes"/>
      <point x="507" y="590"/>
      <point x="521" y="608"/>
      <point x="557" y="608" type="curve" smooth="yes"/>
      <point x="593" y="608"/>
      <point x="607" y="590"/>
      <point x="607" y="558" type="curve" smooth="yes"/>
      <point x="607" y="167" type="line" smooth="yes"/>
      <point x="607" y="119"/>
      <point x="601" y="84"/>
      <point x="566" y="47" type="curve" smooth="yes"/>
      <point x="533" y="12"/>
      <point x="496" y="0"/>
      <point x="450" y="0" type="curve" smooth="yes"/>
      <point x="270" y="0" type="line" smooth="yes"/>
      <point x="224" y="0"/>
      <point x="187" y="12"/>
      <point x="154" y="47" type="curve" smooth="yes"/>
      <point x="119" y="84"/>
      <point x="113" y="119"/>
      <point x="113" y="167" type="curve" smooth="yes"/>
      <point x="113" y="558" type="line" smooth="yes"/>
      <point x="113" y="590"/>
      <point x="127" y="608"/>
      <point x="163" y="608" type="curve" smooth="yes"/>
      <point x="199" y="608"/>
      <point x="213" y="590"/>
      <point x="213" y="558" type="curve" smooth="yes"/>
      <point x="213" y="175" type="line" smooth="yes"/>
      <point x="213" y="151"/>
      <point x="209" y="130"/>
      <point x="228" y="113" type="curve" smooth="yes"/>
      <point x="245" y="97"/>
      <point x="269" y="100"/>
      <point x="290" y="100" type="curve" smooth="yes"/>
      <point x="430" y="100" type="line" smooth="yes"/>
      <point x="451" y="100"/>
      <point x="475" y="97"/>
      <point x="492" y="113" type="curve" smooth="yes"/>
      <point x="511" y="130"/>
      <point x="507" y="151"/>
    </contour>
    <contour>
      <point x="257" y="813" type="curve" smooth="yes"/>
      <point x="444" y="733" type="line" smooth="yes"/>
      <point x="458" y="727"/>
      <point x="468" y="713"/>
      <point x="468" y="698" type="curve" smooth="yes"/>
      <point x="468" y="672"/>
      <point x="451" y="646"/>
      <point x="430" y="646" type="curve" smooth="yes"/>
      <point x="424" y="646"/>
      <point x="417" y="648"/>
      <point x="411" y="650" type="curve" smooth="yes"/>
      <point x="209" y="719" type="line" smooth="yes"/>
      <point x="189" y="728"/>
      <point x="185" y="743"/>
      <point x="185" y="761" type="curve" smooth="yes"/>
      <point x="185" y="789"/>
      <point x="208" y="818"/>
      <point x="235" y="818" type="curve" smooth="yes"/>
      <point x="241" y="818"/>
      <point x="249" y="817"/>
    </contour>
  </outline>
</glyph>
<glyph name="Ucircumflex" format="1">
  <advance width="720"/>
  <unicode hex="00DB"/>
  <outline>
    <contour>
      <point x="507" y="175" type="curve" smooth="yes"/>
      <point x="507" y="558" type="line" smooth="yes"/>
      <point x="507" y="590"/>
      <point x="521" y="608"/>
      <point x="557" y="608" type="curve" smooth="yes"/>
      <point x="593" y="608"/>
      <point x="607" y="590"/>
      <point x="607" y="558" type="curve" smooth="yes"/>
      <point x="607" y="167" type="line" smooth="yes"/>
      <point x="607" y="119"/>
      <point x="601" y="84"/>
      <point x="566" y="47" type="curve" smooth="yes"/>
      <point x="533" y="12"/>
      <point x="496" y="0"/>
      <point x="450" y="0" type="curve" smooth="yes"/>
      <point x="270" y="0" type="line" smooth="yes"/>
      <point x="224" y="0"/>
      <point x="187" y="12"/>
      <point x="154" y="47" type="curve" smooth="yes"/>
      <point x="119" y="84"/>
      <point x="113" y="119"/>
      <point x="113" y="167" type="curve" smooth="yes"/>
      <point x="113" y="558" type="line" smooth="yes"/>
      <point x="113" y="590"/>
      <point x="127" y="608"/>
      <point x="163" y="608" type="curve" smooth="yes"/>
      <point x="199" y="608"/>
      <point x="213" y="590"/>
      <point x="213" y="558" type="curve" smooth="yes"/>
      <point x="213" y="175" type="line" smooth="yes"/>
      <point x="213" y="151"/>
      <point x="209" y="130"/>
      <point x="228" y="113" type="curve" smooth="yes"/>
      <point x="245" y="97"/>
      <point x="269" y="100"/>
      <point x="290" y="100" type="curve" smooth="yes"/>
      <point x="430" y="100" type="line" smooth="yes"/>
      <point x="451" y="100"/>
      <point x="475" y="97"/>
      <point x="492" y="113" type="curve" smooth="yes"/>
      <point x="511" y="130"/>
      <point x="507" y="151"/>
    </contour>
    <contour>
      <point x="360" y="723" type="line"/>
      <point x="228" y="658" type="line" smooth="yes"/>
      <point x="218" y="653"/>
      <point x="212" y="652"/>
      <point x="203" y="652" type="curve" smooth="yes"/>
      <point x="179" y="652"/>
      <point x="160" y="673"/>
      <point x="160" y="697" type="curve" smooth="yes"/>
      <point x="160" y="713"/>
      <point x="169" y="727"/>
      <point x="184" y="735" type="curve" smooth="yes"/>
      <point x="312" y="809" type="line" smooth="yes"/>
      <point x="328" y="818"/>
      <point x="345" y="823"/>
      <point x="360" y="823" type="curve" smooth="yes"/>
      <point x="375" y="823"/>
      <point x="392" y="818"/>
      <point x="408" y="809" type="curve" smooth="yes"/>
      <point x="536" y="735" type="line" smooth="yes"/>
      <point x="551" y="727"/>
      <point x="560" y="713"/>
      <point x="560" y="697" type="curve" smooth="yes"/>
      <point x="560" y="673"/>
      <point x="541" y="652"/>
      <point x="517" y="652" type="curve" smooth="yes"/>
      <point x="508" y="652"/>
      <point x="502" y="653"/>
      <point x="492" y="658" type="curve" smooth="yes"/>
    </contour>
  </outline>
</glyph>
<glyph name="Udieresis" format="1">
  <advance width="720"/>
  <unicode hex="00DC"/>
  <outline>
    <contour>
      <point x="507" y="175" type="curve" smooth="yes"/>
      <point x="507" y="558" type="line" smooth="yes"/>
      <point x="507" y="590"/>
      <point x="521" y="608"/>
      <point x="557" y="608" type="curve" smooth="yes"/>
      <point x="593" y="608"/>
      <point x="607" y="590"/>
      <point x="607" y="558" type="curve" smooth="yes"/>
      <point x="607" y="167" type="line" smooth="yes"/>
      <point x="607" y="119"/>
      <point x="601" y="84"/>
      <point x="566" y="47" type="curve" smooth="yes"/>
      <point x="533" y="12"/>
      <point x="496" y="0"/>
      <point x="450" y="0" type="curve" smooth="yes"/>
      <point x="270" y="0" type="line" smooth="yes"/>
      <point x="224" y="0"/>
      <point x="187" y="12"/>
      <point x="154" y="47" type="curve" smooth="yes"/>
      <point x="119" y="84"/>
      <point x="113" y="119"/>
      <point x="113" y="167" type="curve" smooth="yes"/>
      <point x="113" y="558" type="line" smooth="yes"/>
      <point x="113" y="590"/>
      <point x="127" y="608"/>
      <point x="163" y="608" type="curve" smooth="yes"/>
      <point x="199" y="608"/>
      <point x="213" y="590"/>
      <point x="213" y="558" type="curve" smooth="yes"/>
      <point x="213" y="175" type="line" smooth="yes"/>
      <point x="213" y="151"/>
      <point x="209" y="130"/>
      <point x="228" y="113" type="curve" smooth="yes"/>
      <point x="245" y="97"/>
      <point x="269" y="100"/>
      <point x="290" y="100" type="curve" smooth="yes"/>
      <point x="430" y="100" type="line" smooth="yes"/>
      <point x="451" y="100"/>
      <point x="475" y="97"/>
      <point x="492" y="113" type="curve" smooth="yes"/>
      <point x="511" y="130"/>
      <point x="507" y="151"/>
    </contour>
    <contour>
      <point x="313" y="716" type="curve" smooth="yes"/>
      <point x="313" y="654" type="line" smooth="yes"/>
      <point x="313" y="624"/>
      <point x="300" y="593"/>
      <point x="263" y="593" type="curve" smooth="yes"/>
      <point x="226" y="593"/>
      <point x="213" y="624"/>
      <point x="213" y="654" type="curve" smooth="yes"/>
      <point x="213" y="716" type="line" smooth="yes"/>
      <point x="213" y="750"/>
      <point x="227" y="778"/>
      <point x="263" y="778" type="curve" smooth="yes"/>
      <point x="299" y="778"/>
      <point x="313" y="750"/>
    </contour>
    <contour>
      <point x="507" y="716" type="curve" smooth="yes"/>
      <point x="507" y="654" type="line" smooth="yes"/>
      <point x="507" y="624"/>
      <point x="494" y="593"/>
      <point x="457" y="593" type="curve" smooth="yes"/>
      <point x="420" y="593"/>
      <point x="407" y="624"/>
      <point x="407" y="654" type="curve" smooth="yes"/>
      <point x="407" y="716" type="line" smooth="yes"/>
      <point x="407" y="750"/>
      <point x="421" y="778"/>
      <point x="457" y="778" type="curve" smooth="yes"/>
      <point x="493" y="778"/>
      <point x="507" y="750"/>
    </contour>
  </outline>
</glyph>
<glyph name="Yacute" format="1">
  <advance width="720"/>
  <unicode hex="00DD"/>
  <outline>
    <contour>
      <point x="410" y="200" type="line"/>
      <point x="410" y="50" type="line" smooth="yes"/>
      <point x="410" y="18"/>
      <point x="396" y="0"/>
      <point x="360" y="0" type="curve" smooth="yes"/>
      <point x="324" y="0"/>
      <point x="310" y="18"/>
      <point x="310" y="50" type="curve" smooth="yes"/>
      <point x="310" y="200" type="line"/>
      <point x="113" y="456" type="line"/>
      <point x="113" y="558" type="line" smooth="yes"/>
      <point x="113" y="590"/>
      <point x="127" y="608"/>
      <point x="163" y="608" type="curve" smooth="yes"/>
      <point x="199" y="608"/>
      <point x="213" y="590"/>
      <point x="213" y="558" type="curve" smooth="yes"/>
      <point x="213" y="490" type="line"/>
      <point x="360" y="299" type="line"/>
      <point x="507" y="490" type="line"/>
      <point x="507" y="558" type="line" smooth="yes"/>
      <point x="507" y="590"/>
      <point x="521" y="608"/>
      <point x="557" y="608" type="curve" smooth="yes"/>
      <point x="593" y="608"/>
      <point x="607" y="590"/>
      <point x="607" y="558" type="curve" smooth="yes"/>
      <point x="607" y="456" type="line"/>
    </contour>
    <contour>
      <point x="259" y="733" type="curve" smooth="yes"/>
      <point x="446" y="813" type="line" smooth="yes"/>
      <point x="454" y="817"/>
      <point x="462" y="818"/>
      <point x="468" y="818" type="curve" smooth="yes"/>
      <point x="495" y="818"/>
      <point x="518" y="789"/>
      <point x="518" y="761" type="curve" smooth="yes"/>
      <point x="518" y="743"/>
      <point x="514" y="728"/>
      <point x="494" y="719" type="curve" smooth="yes"/>
      <point x="292" y="650" type="line" smooth="yes"/>
      <point x="286" y="648"/>
      <point x="279" y="646"/>
      <point x="273" y="646" type="curve" smooth="yes"/>
      <point x="252" y="646"/>
      <point x="235" y="672"/>
      <point x="235" y="698" type="curve" smooth="yes"/>
      <point x="235" y="713"/>
      <point x="245" y="727"/>
    </contour>
  </outline>
</glyph>
<glyph name="aacute" format="1">
  <advance width="720"/>
  <unicode hex="00E1"/>
  <outline>
    <contour>
      <point x="405" y="443" type="curve" smooth="yes"/>
      <point x="286" y="443" type="line" smooth="yes"/>
      <point x="258" y="443"/>
      <point x="220" y="449"/>
      <point x="220" y="491" type="curve" smooth="yes"/>
      <point x="220" y="532"/>
      <point x="254" y="539"/>
      <point x="286" y="539" type="curve" smooth="yes"/>
      <point x="418" y="539" type="line" smooth="yes"/>
      <point x="468" y="539"/>
      <point x="504" y="534"/>
      <point x="542" y="496" type="curve" smooth="yes"/>
      <point x="579" y="459"/>
      <point x="584" y="430"/>
      <point x="585" y="382" type="curve" smooth="yes"/>
      <point x="595" y="56" type="line" smooth="yes"/>
      <point x="596" y="28"/>
      <point x="582" y="0"/>
      <point x="550" y="0" type="curve" smooth="yes"/>
      <point x="525" y="0"/>
      <point x="500" y="21"/>
      <point x="501" y="48" type="curve"/>
      <point x="435" y="14" type="line" smooth="yes"/>
      <point x="408" y="0"/>
      <point x="407" y="0"/>
      <point x="376" y="0" type="curve" smooth="yes"/>
      <point x="284" y="0" type="line" smooth="yes"/>
      <point x="241" y="0"/>
      <point x="210" y="5"/>
      <point x="175" y="34" type="curve" smooth="yes"/>
      <point x="135" y="67"/>
      <point x="125" y="102"/>
      <point x="125" y="152" type="curve" smooth="yes"/>
      <point x="125" y="194" type="line" smooth="yes"/>
      <point x="125" y="240"/>
      <point x="136" y="269"/>
      <point x="172" y="301" type="curve" smooth="yes"/>
      <point x="205" y="330"/>
      <point x="242" y="337"/>
      <point x="284" y="337" type="curve" smooth="yes"/>
      <point x="490" y="337" type="line"/>
      <point x="490" y="359" type="line" smooth="yes"/>
      <point x="490" y="431"/>
      <point x="474" y="443"/>
    </contour>
    <contour>
      <point x="427" y="241" type="curve" smooth="yes"/>
      <point x="285" y="241" type="line" smooth="yes"/>
      <point x="259" y="241"/>
      <point x="221" y="234"/>
      <point x="221" y="199" type="curve" smooth="yes"/>
      <point x="221" y="135" type="line" smooth="yes"/>
      <point x="221" y="103"/>
      <point x="260" y="96"/>
      <point x="283" y="96" type="curve" smooth="yes"/>
      <point x="389" y="96" type="line"/>
      <point x="495" y="151" type="line"/>
      <point x="495" y="172" type="line" smooth="yes"/>
      <point x="495" y="225"/>
      <point x="480" y="241"/>
    </contour>
    <contour>
      <point x="286" y="668" type="curve" smooth="yes"/>
      <point x="468" y="773" type="line" smooth="yes"/>
      <point x="473" y="776"/>
      <point x="481" y="778"/>
      <point x="488" y="778" type="curve" smooth="yes"/>
      <point x="517" y="778"/>
      <point x="543" y="743"/>
      <point x="541" y="714" type="curve" smooth="yes"/>
      <point x="540" y="701"/>
      <point x="534" y="689"/>
      <point x="520" y="682" type="curve" smooth="yes"/>
      <point x="329" y="588" type="line" smooth="yes"/>
      <point x="323" y="585"/>
      <point x="317" y="583"/>
      <point x="311" y="583" type="curve" smooth="yes"/>
      <point x="286" y="583"/>
      <point x="267" y="610"/>
      <point x="267" y="634" type="curve" smooth="yes"/>
      <point x="267" y="647"/>
      <point x="272" y="660"/>
    </contour>
  </outline>
</glyph>
<glyph name="adieresis" format="1">
  <advance width="720"/>
  <unicode hex="00E4"/>
  <outline>
    <contour>
      <point x="405" y="443" type="curve" smooth="yes"/>
      <point x="286" y="443" type="line" smooth="yes"/>
      <point x="258" y="443"/>
      <point x="220" y="449"/>
      <point x="220" y="491" type="curve" smooth="yes"/>
      <point x="220" y="532"/>
      <point x="254" y="539"/>
      <point x="286" y="539" type="curve" smooth="yes"/>
      <point x="418" y="539" type="line" smooth="yes"/>
      <point x="468" y="539"/>
      <point x="504" y="534"/>
      <point x="542" y="496" type="curve" smooth="yes"/>
      <point x="579" y="459"/>
      <point x="584" y="430"/>
      <point x="585" y="382" type="curve" smooth="yes"/>
      <point x="595" y="56" type="line" smooth="yes"/>
      <point x="596" y="28"/>
      <point x="582" y="0"/>
      <point x="550" y="0" type="curve" smooth="yes"/>
      <point x="525" y="0"/>
      <point x="500" y="21"/>
      <point x="501" y="48" type="curve"/>
      <point x="435" y="14" type="line" smooth="yes"/>
      <point x="408" y="0"/>
      <point x="407" y="0"/>
      <point x="376" y="0" type="curve" smooth="yes"/>
      <point x="284" y="0" type="line" smooth="yes"/>
      <point x="241" y="0"/>
      <point x="210" y="5"/>
      <point x="175" y="34" type="curve" smooth="yes"/>
      <point x="135" y="67"/>
      <point x="125" y="102"/>
      <point x="125" y="152" type="curve" smooth="yes"/>
      <point x="125" y="194" type="line" smooth="yes"/>
      <point x="125" y="240"/>
      <point x="136" y="269"/>
      <point x="172" y="301" type="curve" smooth="yes"/>
      <point x="205" y="330"/>
      <point x="242" y="337"/>
      <point x="284" y="337" type="curve" smooth="yes"/>
      <point x="490" y="337" type="line"/>
      <point x="490" y="359" type="line" smooth="yes"/>
      <point x="490" y="431"/>
      <point x="474" y="443"/>
    </contour>
    <contour>
      <point x="427" y="241" type="curve" smooth="yes"/>
      <point x="285" y="241" type="line" smooth="yes"/>
      <point x="259" y="241"/>
      <point x="221" y="234"/>
      <point x="221" y="199" type="curve" smooth="yes"/>
      <point x="221" y="135" type="line" smooth="yes"/>
      <point x="221" y="103"/>
      <point x="260" y="96"/>
      <point x="283" y="96" type="curve" smooth="yes"/>
      <point x="389" y="96" type="line"/>
      <point x="495" y="151" type="line"/>
      <point x="495" y="172" type="line" smooth="yes"/>
      <point x="495" y="225"/>
      <point x="480" y="241"/>
    </contour>
    <contour>
      <point x="279" y="716" type="curve" smooth="yes"/>
      <point x="279" y="654" type="line" smooth="yes"/>
      <point x="279" y="624"/>
      <point x="266" y="593"/>
      <point x="229" y="593" type="curve" smooth="yes"/>
      <point x="192" y="593"/>
      <point x="179" y="624"/>
      <point x="179" y="654" type="curve" smooth="yes"/>
      <point x="179" y="716" type="line" smooth="yes"/>
      <point x="179" y="750"/>
      <point x="193" y="778"/>
      <point x="229" y="778" type="curve" smooth="yes"/>
      <point x="265" y="778"/>
      <point x="279" y="750"/>
    </contour>
    <contour>
      <point x="534" y="716" type="curve" smooth="yes"/>
      <point x="534" y="654" type="line" smooth="yes"/>
      <point x="534" y="624"/>
      <point x="521" y="593"/>
      <point x="484" y="593" type="curve" smooth="yes"/>
      <point x="447" y="593"/>
      <point x="434" y="624"/>
      <point x="434" y="654" type="curve" smooth="yes"/>
      <point x="434" y="716" type="line" smooth="yes"/>
      <point x="434" y="750"/>
      <point x="448" y="778"/>
      <point x="484" y="778" type="curve" smooth="yes"/>
      <point x="520" y="778"/>
      <point x="534" y="750"/>
    </contour>
  </outline>
</glyph>
<glyph name="aring" format="1">
  <advance width="720"/>
  <unicode hex="00E5"/>
  <outline>
    <contour>
      <point x="405" y="398" type="curve" smooth="yes"/>
      <point x="286" y="398" type="line" smooth="yes"/>
      <point x="258" y="398"/>
      <point x="220" y="404"/>
      <point x="220" y="446" type="curve" smooth="yes"/>
      <point x="220" y="487"/>
      <point x="254" y="494"/>
      <point x="286" y="494" type="curve" smooth="yes"/>
      <point x="418" y="494" type="line" smooth="yes"/>
      <point x="468" y="494"/>
      <point x="504" y="489"/>
      <point x="542" y="451" type="curve" smooth="yes"/>
      <point x="579" y="414"/>
      <point x="584" y="385"/>
      <point x="585" y="337" type="curve" smooth="yes"/>
      <point x="595" y="56" type="line" smooth="yes"/>
      <point x="596" y="28"/>
      <point x="582" y="0"/>
      <point x="550" y="0" type="curve" smooth="yes"/>
      <point x="525" y="0"/>
      <point x="500" y="21"/>
      <point x="501" y="48" type="curve"/>
      <point x="435" y="14" type="line" smooth="yes"/>
      <point x="408" y="0"/>
      <point x="407" y="0"/>
      <point x="376" y="0" type="curve" smooth="yes"/>
      <point x="284" y="0" type="line" smooth="yes"/>
      <point x="241" y="0"/>
      <point x="210" y="5"/>
      <point x="175" y="34" type="curve" smooth="yes"/>
      <point x="135" y="67"/>
      <point x="125" y="102"/>
      <point x="125" y="152" type="curve" smooth="yes"/>
      <point x="125" y="168" type="line" smooth="yes"/>
      <point x="125" y="214"/>
      <point x="136" y="243"/>
      <point x="172" y="275" type="curve" smooth="yes"/>
      <point x="205" y="304"/>
      <point x="242" y="311"/>
      <point x="284" y="311" type="curve" smooth="yes"/>
      <point x="490" y="311" type="line"/>
      <point x="490" y="343" type="line" smooth="yes"/>
      <point x="490" y="379"/>
      <point x="474" y="398"/>
    </contour>
    <contour>
      <point x="427" y="215" type="curve" smooth="yes"/>
      <point x="285" y="215" type="line" smooth="yes"/>
      <point x="259" y="215"/>
      <point x="221" y="208"/>
      <point x="221" y="173" type="curve" smooth="yes"/>
      <point x="221" y="135" type="line" smooth="yes"/>
      <point x="221" y="103"/>
      <point x="260" y="96"/>
      <point x="283" y="96" type="curve" smooth="yes"/>
      <point x="389" y="96" type="line"/>
      <point x="495" y="151" type="line"/>
      <point x="495" y="160" type="line" smooth="yes"/>
      <point x="495" y="204"/>
      <point x="480" y="215"/>
    </contour>
    <contour>
      <point x="532" y="669" type="curve" smooth="yes"/>
      <point x="532" y="644" type="line" smooth="yes"/>
      <point x="532" y="571"/>
      <point x="494" y="535"/>
      <point x="420" y="535" type="curve" smooth="yes"/>
      <point x="306" y="535" type="line" smooth="yes"/>
      <point x="232" y="535"/>
      <point x="194" y="571"/>
      <point x="194" y="644" type="curve" smooth="yes"/>
      <point x="194" y="669" type="line" smooth="yes"/>
      <point x="194" y="742"/>
      <point x="232" y="778"/>
      <point x="306" y="778" type="curve" smooth="yes"/>
      <point x="420" y="778" type="line" smooth="yes"/>
      <point x="494" y="778"/>
      <point x="532" y="742"/>
    </contour>
    <contour>
      <point x="436" y="624" type="line"/>
      <point x="436" y="689" type="line"/>
      <point x="290" y="689" type="line"/>
      <point x="290" y="624" type="line"/>
    </contour>
  </outline>
</glyph>
<glyph name="ae" format="1">
  <advance width="720"/>
  <unicode hex="00E6"/>
  <outline>
    <contour>
      <point x="342" y="38" type="line"/>
      <point x="296" y="14" type="line" smooth="yes"/>
      <point x="275" y="3"/>
      <point x="268" y="0"/>
      <point x="237" y="0" type="curve" smooth="yes"/>
      <point x="201" y="0" type="line" smooth="yes"/>
      <point x="129" y="0"/>
      <point x="65" y="45"/>
      <point x="65" y="125" type="curve" smooth="yes"/>
      <point x="65" y="217" type="line" smooth="yes"/>
      <point x="65" y="289"/>
      <point x="121" y="337"/>
      <point x="200" y="337" type="curve" smooth="yes"/>
      <point x="301" y="337" type="line"/>
      <point x="301" y="359" type="line" smooth="yes"/>
      <point x="301" y="431"/>
      <point x="285" y="443"/>
      <point x="216" y="443" type="curve" smooth="yes"/>
      <point x="169" y="443" type="line" smooth="yes"/>
      <point x="141" y="443"/>
      <point x="103" y="449"/>
      <point x="103" y="491" type="curve" smooth="yes"/>
      <point x="103" y="532"/>
      <point x="137" y="539"/>
      <point x="169" y="539" type="curve" smooth="yes"/>
      <point x="229" y="539" type="line" smooth="yes"/>
      <point x="279" y="539"/>
      <point x="315" y="534"/>
      <point x="351" y="497" type="curve"/>
      <point x="369" y="514" type="line" smooth="yes"/>
      <point x="397" y="538"/>
      <point x="409" y="539"/>
      <point x="433" y="539" type="curve" smooth="yes"/>
      <point x="507" y="539" type="line" smooth="yes"/>
      <point x="539" y="539"/>
      <point x="552" y="535"/>
      <point x="576" y="510" type="curve" smooth="yes"/>
      <point x="601" y="483" type="line" smooth="yes"/>
      <point x="630" y="454"/>
      <point x="634" y="423"/>
      <point x="634" y="378" type="curve" smooth="yes"/>
      <point x="634" y="271" type="line" smooth="yes"/>
      <point x="634" y="216"/>
      <point x="628" y="200"/>
      <point x="592" y="200" type="curve" smooth="yes"/>
      <point x="401" y="200" type="line"/>
      <point x="401" y="137" type="line" smooth="yes"/>
      <point x="401" y="127"/>
      <point x="406" y="122"/>
      <point x="419" y="110" type="curve" smooth="yes"/>
      <point x="433" y="97"/>
      <point x="442" y="96"/>
      <point x="459" y="96" type="curve" smooth="yes"/>
      <point x="592" y="97" type="line" smooth="yes"/>
      <point x="612" y="97"/>
      <point x="634" y="90"/>
      <point x="634" y="49" type="curve" smooth="yes"/>
      <point x="634" y="7"/>
      <point x="610" y="0"/>
      <point x="592" y="0" type="curve" smooth="yes"/>
      <point x="409" y="0" type="line" smooth="yes"/>
      <point x="389" y="0"/>
      <point x="382" y="0"/>
      <point x="368" y="13" type="curve" smooth="yes"/>
    </contour>
    <contour>
      <point x="487" y="443" type="curve" smooth="yes"/>
      <point x="450" y="443" type="line" smooth="yes"/>
      <point x="434" y="443"/>
      <point x="428" y="439"/>
      <point x="416" y="427" type="curve" smooth="yes"/>
      <point x="402" y="413"/>
      <point x="401" y="409"/>
      <point x="401" y="397" type="curve" smooth="yes"/>
      <point x="401" y="296" type="line"/>
      <point x="534" y="296" type="line"/>
      <point x="534" y="390" type="line" smooth="yes"/>
      <point x="534" y="400"/>
      <point x="532" y="409"/>
      <point x="517" y="424" type="curve" smooth="yes"/>
      <point x="502" y="439"/>
      <point x="497" y="443"/>
    </contour>
    <contour>
      <point x="277" y="241" type="curve" smooth="yes"/>
      <point x="218" y="241" type="line" smooth="yes"/>
      <point x="192" y="241"/>
      <point x="165" y="234"/>
      <point x="165" y="199" type="curve" smooth="yes"/>
      <point x="165" y="141" type="line" smooth="yes"/>
      <point x="165" y="105"/>
      <point x="196" y="96"/>
      <point x="219" y="96" type="curve" smooth="yes"/>
      <point x="254" y="96" type="line"/>
      <point x="306" y="124" type="line"/>
      <point x="306" y="207" type="line" smooth="yes"/>
      <point x="306" y="230"/>
      <point x="300" y="241"/>
    </contour>
  </outline>
</glyph>
<glyph name="ecircumflex" format="1">
  <advance width="720"/>
  <unicode hex="00EA"/>
  <outline>
    <contour>
      <point x="529" y="0" type="curve" smooth="yes"/>
      <point x="301" y="0" type="line" smooth="yes"/>
      <point x="261" y="0"/>
      <point x="245" y="0"/>
      <point x="215" y="26" type="curve" smooth="yes"/>
      <point x="174" y="62" type="line" smooth="yes"/>
      <point x="136" y="96"/>
      <point x="125" y="118"/>
      <point x="125" y="170" type="curve" smooth="yes"/>
      <point x="125" y="355" type="line" smooth="yes"/>
      <point x="125" y="406"/>
      <point x="132" y="436"/>
      <point x="172" y="470" type="curve" smooth="yes"/>
      <point x="206" y="499" type="line" smooth="yes"/>
      <point x="251" y="538"/>
      <point x="273" y="539"/>
      <point x="312" y="539" type="curve" smooth="yes"/>
      <point x="400" y="539" type="line" smooth="yes"/>
      <point x="447" y="539"/>
      <point x="469" y="534"/>
      <point x="506" y="504" type="curve" smooth="yes"/>
      <point x="545" y="473" type="line" smooth="yes"/>
      <point x="589" y="438"/>
      <point x="595" y="401"/>
      <point x="595" y="348" type="curve" smooth="yes"/>
      <point x="595" y="271" type="line" smooth="yes"/>
      <point x="595" y="216"/>
      <point x="586" y="200"/>
      <point x="529" y="200" type="curve" smooth="yes"/>
      <point x="221" y="200" type="line"/>
      <point x="221" y="168" type="line" smooth="yes"/>
      <point x="221" y="159"/>
      <point x="228" y="147"/>
      <point x="235" y="140" type="curve" smooth="yes"/>
      <point x="259" y="114" type="line" smooth="yes"/>
      <point x="272" y="100"/>
      <point x="291" y="96"/>
      <point x="323" y="96" type="curve" smooth="yes"/>
      <point x="529" y="96" type="line" smooth="yes"/>
      <point x="561" y="96"/>
      <point x="595" y="89"/>
      <point x="595" y="48" type="curve" smooth="yes"/>
      <point x="595" y="6"/>
      <point x="557" y="0"/>
    </contour>
    <contour>
      <point x="221" y="364" type="curve" smooth="yes"/>
      <point x="221" y="296" type="line"/>
      <point x="499" y="296" type="line"/>
      <point x="499" y="354" type="line" smooth="yes"/>
      <point x="499" y="372"/>
      <point x="500" y="387"/>
      <point x="487" y="399" type="curve" smooth="yes"/>
      <point x="450" y="431" type="line" smooth="yes"/>
      <point x="438" y="442"/>
      <point x="419" y="443"/>
      <point x="404" y="443" type="curve" smooth="yes"/>
      <point x="323" y="443" type="line" smooth="yes"/>
      <point x="305" y="443"/>
      <point x="290" y="443"/>
      <point x="274" y="432" type="curve" smooth="yes"/>
      <point x="241" y="408" type="line" smooth="yes"/>
      <point x="229" y="399"/>
      <point x="221" y="392"/>
    </contour>
    <contour>
      <point x="191" y="665" type="curve" smooth="yes"/>
      <point x="314" y="762" type="line" smooth="yes"/>
      <point x="328" y="773"/>
      <point x="342" y="778"/>
      <point x="360" y="778" type="curve" smooth="yes"/>
      <point x="378" y="778"/>
      <point x="392" y="773"/>
      <point x="406" y="762" type="curve" smooth="yes"/>
      <point x="529" y="665" type="line" smooth="yes"/>
      <point x="542" y="655"/>
      <point x="548" y="642"/>
      <point x="548" y="630" type="curve" smooth="yes"/>
      <point x="548" y="606"/>
      <point x="527" y="585"/>
      <point x="502" y="585" type="curve" smooth="yes"/>
      <point x="493" y="585"/>
      <point x="483" y="589"/>
      <point x="474" y="595" type="curve" smooth="yes"/>
      <point x="360" y="676" type="line"/>
      <point x="246" y="595" type="line" smooth="yes"/>
      <point x="237" y="589"/>
      <point x="227" y="585"/>
      <point x="218" y="585" type="curve" smooth="yes"/>
      <point x="193" y="585"/>
      <point x="172" y="606"/>
      <point x="172" y="630" type="curve" smooth="yes"/>
      <point x="172" y="642"/>
      <point x="178" y="655"/>
    </contour>
  </outline>
</glyph>
<glyph name="icircumflex" format="1">
  <advance width="720"/>
  <unicode hex="00EE"/>
  <outline>
    <contour>
      <point x="410" y="472" type="curve" smooth="yes"/>
      <point x="410" y="96" type="line"/>
      <point x="482" y="96" type="line" smooth="yes"/>
      <point x="514" y="96"/>
      <point x="548" y="89"/>
      <point x="548" y="48" type="curve" smooth="yes"/>
      <point x="548" y="6"/>
      <point x="510" y="0"/>
      <point x="482" y="0" type="curve" smooth="yes"/>
      <point x="238" y="0" type="line" smooth="yes"/>
      <point x="210" y="0"/>
      <point x="172" y="6"/>
      <point x="172" y="48" type="curve" smooth="yes"/>
      <point x="172" y="89"/>
      <point x="206" y="96"/>
      <point x="238" y="96" type="curve" smooth="yes"/>
      <point x="314" y="96" type="line"/>
      <point x="314" y="443" type="line"/>
      <point x="238" y="443" type="line" smooth="yes"/>
      <point x="210" y="443"/>
      <point x="172" y="449"/>
      <point x="172" y="491" type="curve" smooth="yes"/>
      <point x="172" y="532"/>
      <point x="206" y="539"/>
      <point x="238" y="539" type="curve" smooth="yes"/>
      <point x="339" y="539" type="line" smooth="yes"/>
      <point x="394" y="539"/>
      <point x="410" y="529"/>
    </contour>
    <contour>
      <point x="165" y="665" type="curve" smooth="yes"/>
      <point x="288" y="762" type="line" smooth="yes"/>
      <point x="302" y="773"/>
      <point x="316" y="778"/>
      <point x="334" y="778" type="curve" smooth="yes"/>
      <point x="352" y="778"/>
      <point x="366" y="773"/>
      <point x="380" y="762" type="curve" smooth="yes"/>
      <point x="503" y="665" type="line" smooth="yes"/>
      <point x="516" y="655"/>
      <point x="522" y="642"/>
      <point x="522" y="630" type="curve" smooth="yes"/>
      <point x="522" y="606"/>
      <point x="501" y="585"/>
      <point x="476" y="585" type="curve" smooth="yes"/>
      <point x="467" y="585"/>
      <point x="457" y="589"/>
      <point x="448" y="595" type="curve" smooth="yes"/>
      <point x="334" y="676" type="line"/>
      <point x="220" y="595" type="line" smooth="yes"/>
      <point x="211" y="589"/>
      <point x="201" y="585"/>
      <point x="192" y="585" type="curve" smooth="yes"/>
      <point x="167" y="585"/>
      <point x="146" y="606"/>
      <point x="146" y="630" type="curve" smooth="yes"/>
      <point x="146" y="642"/>
      <point x="152" y="655"/>
    </contour>
  </outline>
</glyph>
<glyph name="eth" format="1">
  <advance width="720"/>
  <unicode hex="00F0"/>
  <outline>
    <contour>
      <point x="111" y="564" type="curve" smooth="yes"/>
      <point x="158" y="601" type="line"/>
      <point x="95" y="653" type="line" smooth="yes"/>
      <point x="85" y="662"/>
      <point x="79" y="674"/>
      <point x="79" y="685" type="curve" smooth="yes"/>
      <point x="79" y="711"/>
      <point x="104" y="737"/>
      <point x="131" y="737" type="curve" smooth="yes"/>
      <point x="140" y="737"/>
      <point x="150" y="734"/>
      <point x="158" y="727" type="curve" smooth="yes"/>
      <point x="237" y="662" type="line"/>
      <point x="314" y="723" type="line" smooth="yes"/>
      <point x="327" y="733"/>
      <point x="340" y="737"/>
      <point x="352" y="737" type="curve" smooth="yes"/>
      <point x="378" y="737"/>
      <point x="398" y="717"/>
      <point x="398" y="692" type="curve" smooth="yes"/>
      <point x="398" y="678"/>
      <point x="391" y="662"/>
      <point x="375" y="649" type="curve" smooth="yes"/>
      <point x="313" y="600" type="line"/>
      <point x="506" y="442" type="line" smooth="yes"/>
      <point x="562" y="398"/>
      <point x="567" y="371"/>
      <point x="567" y="303" type="curve" smooth="yes"/>
      <point x="567" y="200" type="line" smooth="yes"/>
      <point x="567" y="131"/>
      <point x="562" y="105"/>
      <point x="506" y="61" type="curve" smooth="yes"/>
      <point x="483" y="43" type="line" smooth="yes"/>
      <point x="463" y="27"/>
      <point x="432" y="0"/>
      <point x="406" y="0" type="curve" smooth="yes"/>
      <point x="328" y="0" type="line" smooth="yes"/>
      <point x="302" y="0"/>
      <point x="271" y="27"/>
      <point x="251" y="43" type="curve" smooth="yes"/>
      <point x="230" y="59" type="line" smooth="yes"/>
      <point x="174" y="103"/>
      <point x="169" y="129"/>
      <point x="169" y="198" type="curve" smooth="yes"/>
      <point x="169" y="301" type="line" smooth="yes"/>
      <point x="169" y="369"/>
      <point x="174" y="396"/>
      <point x="230" y="440" type="curve" smooth="yes"/>
      <point x="253" y="457" type="line"/>
      <point x="296" y="488" type="line"/>
      <point x="234" y="538" type="line"/>
      <point x="171" y="489" type="line" smooth="yes"/>
      <point x="159" y="480"/>
      <point x="146" y="475"/>
      <point x="135" y="475" type="curve" smooth="yes"/>
      <point x="108" y="475"/>
      <point x="88" y="496"/>
      <point x="88" y="521" type="curve" smooth="yes"/>
      <point x="88" y="535"/>
      <point x="95" y="551"/>
    </contour>
    <contour>
      <point x="383" y="405" type="curve" smooth="yes"/>
      <point x="355" y="405" type="line" smooth="yes"/>
      <point x="342" y="405"/>
      <point x="331" y="396"/>
      <point x="322" y="388" type="curve" smooth="yes"/>
      <point x="285" y="356" type="line" smooth="yes"/>
      <point x="270" y="343"/>
      <point x="265" y="332"/>
      <point x="265" y="314" type="curve" smooth="yes"/>
      <point x="265" y="185" type="line" smooth="yes"/>
      <point x="265" y="167"/>
      <point x="270" y="156"/>
      <point x="285" y="143" type="curve" smooth="yes"/>
      <point x="320" y="113" type="line" smooth="yes"/>
      <point x="329" y="105"/>
      <point x="340" y="96"/>
      <point x="353" y="96" type="curve" smooth="yes"/>
      <point x="381" y="96" type="line" smooth="yes"/>
      <point x="394" y="96"/>
      <point x="405" y="105"/>
      <point x="414" y="113" type="curve" smooth="yes"/>
      <point x="451" y="145" type="line" smooth="yes"/>
      <point x="466" y="158"/>
      <point x="471" y="169"/>
      <point x="471" y="187" type="curve" smooth="yes"/>
      <point x="471" y="316" type="line" smooth="yes"/>
      <point x="471" y="334"/>
      <point x="466" y="345"/>
      <point x="451" y="358" type="curve" smooth="yes"/>
      <point x="407" y="395" type="line" smooth="yes"/>
      <point x="400" y="400"/>
      <point x="392" y="405"/>
    </contour>
  </outline>
</glyph>
<glyph name="ntilde" format="1">
  <advance width="720"/>
  <unicode hex="00F1"/>
  <outline>
    <contour>
      <point x="363" y="434" type="curve" smooth="yes"/>
      <point x="221" y="345" type="line"/>
      <point x="221" y="66" type="line" smooth="yes"/>
      <point x="221" y="33"/>
      <point x="214" y="0"/>
      <point x="173" y="0" type="curve" smooth="yes"/>
      <point x="132" y="0"/>
      <point x="125" y="33"/>
      <point x="125" y="66" type="curve" smooth="yes"/>
      <point x="125" y="468" type="line" smooth="yes"/>
      <point x="125" y="503"/>
      <point x="129" y="539"/>
      <point x="173" y="539" type="curve" smooth="yes"/>
      <point x="216" y="539"/>
      <point x="221" y="503"/>
      <point x="221" y="469" type="curve" smooth="yes"/>
      <point x="221" y="458" type="line"/>
      <point x="221" y="456" type="line"/>
      <point x="299" y="507" type="line" smooth="yes"/>
      <point x="324" y="523"/>
      <point x="351" y="539"/>
      <point x="382" y="539" type="curve" smooth="yes"/>
      <point x="453" y="539" type="line" smooth="yes"/>
      <point x="490" y="539"/>
      <point x="513" y="529"/>
      <point x="542" y="504" type="curve" smooth="yes"/>
      <point x="585" y="467"/>
      <point x="583" y="426"/>
      <point x="585" y="374" type="curve" smooth="yes"/>
      <point x="595" y="72" type="line" smooth="yes"/>
      <point x="596" y="38"/>
      <point x="591" y="0"/>
      <point x="548" y="0" type="curve" smooth="yes"/>
      <point x="509" y="0"/>
      <point x="501" y="33"/>
      <point x="500" y="65" type="curve" smooth="yes"/>
      <point x="490" y="361" type="line" smooth="yes"/>
      <point x="488" y="420"/>
      <point x="483" y="443"/>
      <point x="425" y="443" type="curve" smooth="yes"/>
      <point x="393" y="443" type="line" smooth="yes"/>
      <point x="383" y="443"/>
      <point x="373" y="440"/>
    </contour>
    <contour>
      <point x="242" y="769" type="curve" smooth="yes"/>
      <point x="467" y="722" type="line"/>
      <point x="475" y="744" type="line" smooth="yes"/>
      <point x="485" y="772"/>
      <point x="500" y="782"/>
      <point x="519" y="782" type="curve" smooth="yes"/>
      <point x="544" y="782"/>
      <point x="569" y="766"/>
      <point x="569" y="738" type="curve" smooth="yes"/>
      <point x="569" y="732"/>
      <point x="568" y="724"/>
      <point x="566" y="717" type="curve" smooth="yes"/>
      <point x="549" y="661" type="line" smooth="yes"/>
      <point x="540" y="634"/>
      <point x="523" y="622"/>
      <point x="501" y="622" type="curve" smooth="yes"/>
      <point x="494" y="622"/>
      <point x="483" y="624"/>
      <point x="478" y="625" type="curve" smooth="yes"/>
      <point x="253" y="672" type="line"/>
      <point x="245" y="650" type="line" smooth="yes"/>
      <point x="235" y="622"/>
      <point x="220" y="612"/>
      <point x="201" y="612" type="curve" smooth="yes"/>
      <point x="176" y="612"/>
      <point x="151" y="628"/>
      <point x="151" y="656" type="curve" smooth="yes"/>
      <point x="151" y="662"/>
      <point x="152" y="670"/>
      <point x="154" y="677" type="curve" smooth="yes"/>
      <point x="171" y="733" type="line" smooth="yes"/>
      <point x="180" y="760"/>
      <point x="197" y="772"/>
      <point x="219" y="772" type="curve" smooth="yes"/>
      <point x="226" y="772"/>
      <point x="237" y="770"/>
    </contour>
  </outline>
</glyph>
<glyph name="oacute" format="1">
  <advance width="720"/>
  <unicode hex="00F3"/>
  <outline>
    <contour>
      <point x="125" y="179" type="curve" smooth="yes"/>
      <point x="125" y="360" type="line" smooth="yes"/>
      <point x="125" y="424"/>
      <point x="138" y="446"/>
      <point x="186" y="485" type="curve" smooth="yes"/>
      <point x="233" y="524"/>
      <point x="255" y="539"/>
      <point x="322" y="539" type="curve" smooth="yes"/>
      <point x="398" y="539" type="line" smooth="yes"/>
      <point x="465" y="539"/>
      <point x="487" y="524"/>
      <point x="534" y="485" type="curve" smooth="yes"/>
      <point x="582" y="446"/>
      <point x="595" y="424"/>
      <point x="595" y="360" type="curve" smooth="yes"/>
      <point x="595" y="179" type="line" smooth="yes"/>
      <point x="595" y="116"/>
      <point x="579" y="92"/>
      <point x="529" y="50" type="curve" smooth="yes"/>
      <point x="479" y="8"/>
      <point x="459" y="0"/>
      <point x="398" y="0" type="curve" smooth="yes"/>
      <point x="322" y="0" type="line" smooth="yes"/>
      <point x="261" y="0"/>
      <point x="241" y="8"/>
      <point x="191" y="50" type="curve" smooth="yes"/>
      <point x="141" y="92"/>
      <point x="125" y="116"/>
    </contour>
    <contour>
      <point x="221" y="360" type="curve" smooth="yes"/>
      <point x="221" y="179" type="line" smooth="yes"/>
      <point x="221" y="159"/>
      <point x="228" y="146"/>
      <point x="256" y="122" type="curve" smooth="yes"/>
      <point x="277" y="104"/>
      <point x="292" y="96"/>
      <point x="322" y="96" type="curve" smooth="yes"/>
      <point x="398" y="96" type="line" smooth="yes"/>
      <point x="428" y="96"/>
      <point x="443" y="104"/>
      <point x="464" y="122" type="curve" smooth="yes"/>
      <point x="492" y="146"/>
      <point x="499" y="159"/>
      <point x="499" y="179" type="curve" smooth="yes"/>
      <point x="499" y="360" type="line" smooth="yes"/>
      <point x="499" y="380"/>
      <point x="492" y="393"/>
      <point x="464" y="417" type="curve" smooth="yes"/>
      <point x="443" y="435"/>
      <point x="428" y="443"/>
      <point x="398" y="443" type="curve" smooth="yes"/>
      <point x="322" y="443" type="line" smooth="yes"/>
      <point x="292" y="443"/>
      <point x="277" y="435"/>
      <point x="256" y="417" type="curve" smooth="yes"/>
      <point x="228" y="393"/>
      <point x="221" y="380"/>
    </contour>
    <contour>
      <point x="286" y="668" type="curve" smooth="yes"/>
      <point x="468" y="773" type="line" smooth="yes"/>
      <point x="473" y="776"/>
      <point x="481" y="778"/>
      <point x="488" y="778" type="curve" smooth="yes"/>
      <point x="517" y="778"/>
      <point x="543" y="743"/>
      <point x="541" y="714" type="curve" smooth="yes"/>
      <point x="540" y="701"/>
      <point x="534" y="689"/>
      <point x="520" y="682" type="curve" smooth="yes"/>
      <point x="329" y="588" type="line" smooth="yes"/>
      <point x="323" y="585"/>
      <point x="317" y="583"/>
      <point x="311" y="583" type="curve" smooth="yes"/>
      <point x="286" y="583"/>
      <point x="267" y="610"/>
      <point x="267" y="634" type="curve" smooth="yes"/>
      <point x="267" y="647"/>
      <point x="272" y="660"/>
    </contour>
  </outline>
</glyph>
<glyph name="odieresis" format="1">
  <advance width="720"/>
  <unicode hex="00F6"/>
  <outline>
    <contour>
      <point x="125" y="179" type="curve" smooth="yes"/>
      <point x="125" y="360" type="line" smooth="yes"/>
      <point x="125" y="424"/>
      <point x="138" y="446"/>
      <point x="186" y="485" type="curve" smooth="yes"/>
      <point x="233" y="524"/>
      <point x="255" y="539"/>
      <point x="322" y="539" type="curve" smooth="yes"/>
      <point x="398" y="539" type="line" smooth="yes"/>
      <point x="465" y="539"/>
      <point x="487" y="524"/>
      <point x="534" y="485" type="curve" smooth="yes"/>
      <point x="582" y="446"/>
      <point x="595" y="424"/>
      <point x="595" y="360" type="curve" smooth="yes"/>
      <point x="595" y="179" type="line" smooth="yes"/>
      <point x="595" y="116"/>
      <point x="579" y="92"/>
      <point x="529" y="50" type="curve" smooth="yes"/>
      <point x="479" y="8"/>
      <point x="459" y="0"/>
      <point x="398" y="0" type="curve" smooth="yes"/>
      <point x="322" y="0" type="line" smooth="yes"/>
      <point x="261" y="0"/>
      <point x="241" y="8"/>
      <point x="191" y="50" type="curve" smooth="yes"/>
      <point x="141" y="92"/>
      <point x="125" y="116"/>
    </contour>
    <contour>
      <point x="221" y="360" type="curve" smooth="yes"/>
      <point x="221" y="179" type="line" smooth="yes"/>
      <point x="221" y="159"/>
      <point x="228" y="146"/>
      <point x="256" y="122" type="curve" smooth="yes"/>
      <point x="277" y="104"/>
      <point x="292" y="96"/>
      <point x="322" y="96" type="curve" smooth="yes"/>
      <point x="398" y="96" type="line" smooth="yes"/>
      <point x="428" y="96"/>
      <point x="443" y="104"/>
      <point x="464" y="122" type="curve" smooth="yes"/>
      <point x="492" y="146"/>
      <point x="499" y="159"/>
      <point x="499" y="179" type="curve" smooth="yes"/>
      <point x="499" y="360" type="line" smooth="yes"/>
      <point x="499" y="380"/>
      <point x="492" y="393"/>
      <point x="464" y="417" type="curve" smooth="yes"/>
      <point x="443" y="435"/>
      <point x="428" y="443"/>
      <point x="398" y="443" type="curve" smooth="yes"/>
      <point x="322" y="443" type="line" smooth="yes"/>
      <point x="292" y="443"/>
      <point x="277" y="435"/>
      <point x="256" y="417" type="curve" smooth="yes"/>
      <point x="228" y="393"/>
      <point x="221" y="380"/>
    </contour>
    <contour>
      <point x="279" y="716" type="curve" smooth="yes"/>
      <point x="279" y="654" type="line" smooth="yes"/>
      <point x="279" y="624"/>
      <point x="266" y="593"/>
      <point x="229" y="593" type="curve" smooth="yes"/>
      <point x="192" y="593"/>
      <point x="179" y="624"/>
      <point x="179" y="654" type="curve" smooth="yes"/>
      <point x="179" y="716" type="line" smooth="yes"/>
      <point x="179" y="750"/>
      <point x="193" y="778"/>
      <point x="229" y="778" type="curve" smooth="yes"/>
      <point x="265" y="778"/>
      <point x="279" y="750"/>
    </contour>
    <contour>
      <point x="534" y="716" type="curve" smooth="yes"/>
      <point x="534" y="654" type="line" smooth="yes"/>
      <point x="534" y="624"/>
      <point x="521" y="593"/>
      <point x="484" y="593" type="curve" smooth="yes"/>
      <point x="447" y="593"/>
      <point x="434" y="624"/>
      <point x="434" y="654" type="curve" smooth="yes"/>
      <point x="434" y="716" type="line" smooth="yes"/>
      <point x="434" y="750"/>
      <point x="448" y="778"/>
      <point x="484" y="778" type="curve" smooth="yes"/>
      <point x="520" y="778"/>
      <point x="534" y="750"/>
    </contour>
  </outline>
</glyph>
<glyph name="oslash" format="1">
  <advance width="720"/>
  <unicode hex="00F8"/>
  <outline>
    <contour>
      <point x="102" y="83" type="curve" smooth="yes"/>
      <point x="135" y="115" type="line"/>
      <point x="128" y="132"/>
      <point x="125" y="152"/>
      <point x="125" y="179" type="curve" smooth="yes"/>
      <point x="125" y="360" type="line" smooth="yes"/>
      <point x="125" y="424"/>
      <point x="138" y="446"/>
      <point x="186" y="485" type="curve" smooth="yes"/>
      <point x="233" y="524"/>
      <point x="255" y="539"/>
      <point x="322" y="539" type="curve" smooth="yes"/>
      <point x="398" y="539" type="line" smooth="yes"/>
      <point x="458" y="539"/>
      <point x="482" y="526"/>
      <point x="520" y="496" type="curve"/>
      <point x="546" y="521" type="line" smooth="yes"/>
      <point x="559" y="533"/>
      <point x="573" y="539"/>
      <point x="586" y="539" type="curve" smooth="yes"/>
      <point x="612" y="539"/>
      <point x="634" y="519"/>
      <point x="634" y="493" type="curve" smooth="yes"/>
      <point x="634" y="480"/>
      <point x="628" y="466"/>
      <point x="614" y="453" type="curve" smooth="yes"/>
      <point x="585" y="425" type="line"/>
      <point x="592" y="408"/>
      <point x="595" y="388"/>
      <point x="595" y="360" type="curve" smooth="yes"/>
      <point x="595" y="179" type="line" smooth="yes"/>
      <point x="595" y="116"/>
      <point x="579" y="92"/>
      <point x="529" y="50" type="curve" smooth="yes"/>
      <point x="479" y="8"/>
      <point x="459" y="0"/>
      <point x="398" y="0" type="curve" smooth="yes"/>
      <point x="322" y="0" type="line" smooth="yes"/>
      <point x="264" y="0"/>
      <point x="243" y="7"/>
      <point x="198" y="44" type="curve"/>
      <point x="172" y="18" type="line" smooth="yes"/>
      <point x="159" y="5"/>
      <point x="144" y="0"/>
      <point x="131" y="0" type="curve" smooth="yes"/>
      <point x="106" y="0"/>
      <point x="85" y="21"/>
      <point x="85" y="46" type="curve" smooth="yes"/>
      <point x="85" y="58"/>
      <point x="90" y="71"/>
    </contour>
    <contour>
      <point x="464" y="122" type="curve" smooth="yes"/>
      <point x="492" y="146"/>
      <point x="499" y="159"/>
      <point x="499" y="179" type="curve" smooth="yes"/>
      <point x="499" y="340" type="line"/>
      <point x="268" y="112" type="line"/>
      <point x="283" y="101"/>
      <point x="298" y="96"/>
      <point x="322" y="96" type="curve" smooth="yes"/>
      <point x="398" y="96" type="line" smooth="yes"/>
      <point x="428" y="96"/>
      <point x="443" y="104"/>
    </contour>
    <contour>
      <point x="221" y="360" type="curve" smooth="yes"/>
      <point x="221" y="200" type="line"/>
      <point x="451" y="427" type="line"/>
      <point x="436" y="438"/>
      <point x="421" y="443"/>
      <point x="398" y="443" type="curve" smooth="yes"/>
      <point x="322" y="443" type="line" smooth="yes"/>
      <point x="292" y="443"/>
      <point x="277" y="435"/>
      <point x="256" y="417" type="curve" smooth="yes"/>
      <point x="228" y="393"/>
      <point x="221" y="380"/>
    </contour>
  </outline>
</glyph>
<glyph name="ugrave" format="1">
  <advance width="720"/>
  <unicode hex="00F9"/>
  <outline>
    <contour>
      <point x="595" y="473" type="curve" smooth="yes"/>
      <point x="595" y="71" type="line" smooth="yes"/>
      <point x="595" y="49"/>
      <point x="599" y="0"/>
      <point x="548" y="0" type="curve" smooth="yes"/>
      <point x="507" y="0"/>
      <point x="500" y="34"/>
      <point x="500" y="67" type="curve" smooth="yes"/>
      <point x="500" y="83" type="line"/>
      <point x="422" y="32" type="line" smooth="yes"/>
      <point x="391" y="12"/>
      <point x="365" y="0"/>
      <point x="339" y="0" type="curve" smooth="yes"/>
      <point x="268" y="0" type="line" smooth="yes"/>
      <point x="241" y="0"/>
      <point x="211" y="8"/>
      <point x="179" y="35" type="curve" smooth="yes"/>
      <point x="136" y="72"/>
      <point x="137" y="113"/>
      <point x="135" y="165" type="curve" smooth="yes"/>
      <point x="125" y="467" type="line" smooth="yes"/>
      <point x="124" y="502"/>
      <point x="129" y="539"/>
      <point x="173" y="539" type="curve" smooth="yes"/>
      <point x="214" y="539"/>
      <point x="219" y="504"/>
      <point x="220" y="473" type="curve" smooth="yes"/>
      <point x="230" y="178" type="line" smooth="yes"/>
      <point x="231" y="156"/>
      <point x="232" y="130"/>
      <point x="240" y="116" type="curve" smooth="yes"/>
      <point x="248" y="102"/>
      <point x="273" y="96"/>
      <point x="296" y="96" type="curve" smooth="yes"/>
      <point x="328" y="96" type="line" smooth="yes"/>
      <point x="339" y="96"/>
      <point x="349" y="99"/>
      <point x="358" y="105" type="curve" smooth="yes"/>
      <point x="499" y="194" type="line"/>
      <point x="499" y="473" type="line" smooth="yes"/>
      <point x="499" y="506"/>
      <point x="506" y="539"/>
      <point x="547" y="539" type="curve" smooth="yes"/>
      <point x="588" y="539"/>
      <point x="595" y="506"/>
    </contour>
    <contour>
      <point x="252" y="773" type="curve" smooth="yes"/>
      <point x="434" y="668" type="line" smooth="yes"/>
      <point x="448" y="660"/>
      <point x="453" y="647"/>
      <point x="453" y="634" type="curve" smooth="yes"/>
      <point x="453" y="610"/>
      <point x="434" y="583"/>
      <point x="409" y="583" type="curve" smooth="yes"/>
      <point x="403" y="583"/>
      <point x="397" y="585"/>
      <point x="391" y="588" type="curve" smooth="yes"/>
      <point x="200" y="682" type="line" smooth="yes"/>
      <point x="186" y="689"/>
      <point x="180" y="701"/>
      <point x="179" y="714" type="curve" smooth="yes"/>
      <point x="177" y="743"/>
      <point x="203" y="778"/>
      <point x="232" y="778" type="curve" smooth="yes"/>
      <point x="239" y="778"/>
      <point x="247" y="776"/>
    </contour>
  </outline>
</glyph>
